<!-- Generated by IcoMoon.io -->
<svg version="1.1" xmlns="http://www.w3.org/2000/svg" width="107" height="36" viewBox="0 0 107 36">
<title>rank-3</title>
<path d="M12.385 31.513l-7.743-4.483v-7.999l-1.327-1.303c-1.435-1.408-1.724-2.36-0.718-2.36 0.552 0 0.512-0.12-0.413-1.254-2.313-2.837-2.858-5.003-1.303-5.182 0.446-0.051 0.811-0.122 0.811-0.158s-0.27-0.833-0.6-1.773c-0.535-1.522-0.562-1.901-0.251-3.482 0.195-0.991 0.533-1.844 0.767-1.934 0.23-0.088 0.841 0.236 1.358 0.721 1.311 1.23 3.46 2.637 5.107 3.343l1.394 0.597 10.839-6.248 5.614 3.26c3.088 1.793 5.749 3.26 5.915 3.26 0.613 0 4.283-2.107 5.677-3.258 0.957-0.791 1.539-1.092 1.734-0.896 0.162 0.162 0.265 1.295 0.229 2.519l-0.065 2.225h1.081c1.327 0 2.912 0.72 3.467 1.574 0.228 0.351 0.718 1.567 1.090 2.703s0.86 2.43 1.085 2.876l0.41 0.811h60.158v5.899h-0.885c-0.787 0-0.885 0.098-0.885 0.885 0 0.836-0.066 0.885-1.18 0.885h-1.18v5.566l1.174 0.83c0.877 0.621 1.175 1.035 1.18 1.641l0.006 0.811h-11.209v-1.605c0-1.563 0.038-1.637 1.475-2.848 0.811-0.684 1.475-1.473 1.475-1.753 0-0.822-4.379-4.421-5.363-4.407-0.214 0.003-1.484 0.808-2.823 1.79-2.952 2.164-3.062 2.616-1.065 4.374 0.753 0.663 1.483 1.205 1.622 1.205s0.253 0.73 0.253 1.622v1.622h-11.504v-0.851c0-0.569 0.231-1.002 0.696-1.307 1.57-1.028 1.664-1.266 1.664-4.205v-2.781h-1.18c-1.062 0-1.18-0.074-1.18-0.737v-0.737h-30.958l-0.42 0.664c-0.231 0.365-0.774 1.839-1.206 3.276-1.216 4.043-2.364 4.695-7.087 4.024-2.211-0.314-2.485-0.422-2.566-1.010-0.083-0.604-0.715-0.296-7.612 3.709-4.137 2.402-7.588 4.366-7.669 4.363s-3.632-2.021-7.89-4.487zM23.193 27.887c1.315-0.74 2.392-1.48 2.392-1.644 0-0.531-3.317-3.795-3.856-3.795-0.34 0-0.589 0.309-0.716 0.885-0.259 1.178-1.513 1.275-1.798 0.139-0.149-0.595-0.315-0.709-0.817-0.56-1.268 0.375-4.13 2.603-3.968 3.089 0.155 0.466 5.002 3.172 5.741 3.204 0.348 0.016 1.708-0.577 3.023-1.317zM39.358 19.765c0.879-0.831 1.557-1.538 1.508-1.571s-0.473-0.35-0.941-0.705c-1.11-0.841-1.77-0.813-3.003 0.128l-1.013 0.772 0.008 3.136 0.008 3.136 0.918-1.692c0.505-0.931 1.637-2.372 2.516-3.203zM20.862 15.41c0.19-3.149 0.518-3.957 2.069-5.104 0.486-0.359 0.883-0.75 0.883-0.869s-0.762-0.682-1.693-1.251l-1.693-1.035-3.987 2.095 1.127 1.127c1.346 1.346 1.82 2.759 1.82 5.418 0 2.161 0.422 3.403 0.971 2.854 0.179-0.179 0.405-1.635 0.502-3.235z"></path>
</svg>
