<!-- Generated by IcoMoon.io -->
<svg version="1.1" xmlns="http://www.w3.org/2000/svg" width="99" height="36" viewBox="0 0 99 36">
<title>rank-6</title>
<path d="M11.691 31.67l-7.232-4.309-0.151-7.613-1.221-1.198c-1.321-1.296-1.586-2.176-0.657-2.176 0.511 0 0.476-0.109-0.376-1.16-1.23-1.516-2.152-3.371-2.046-4.114 0.059-0.418 0.307-0.619 0.835-0.679 0.413-0.047 0.75-0.113 0.75-0.146s-0.25-0.771-0.555-1.64c-0.495-1.409-0.52-1.759-0.233-3.221 0.18-0.917 0.493-1.706 0.71-1.789 0.213-0.082 0.778 0.218 1.256 0.667 1.3 1.22 3.429 2.584 3.737 2.394 0.149-0.092 0.271-0.406 0.271-0.697 0-0.389 0.189-0.53 0.711-0.53 0.573 0 0.672-0.093 0.509-0.478-0.369-0.87-1.22-4.005-1.22-4.497 0-0.581 0.905-0.633 3.057-0.177 1.831 0.389 3.767 1.36 5.087 2.552l1.029 0.929 1.173-0.666c1.468-0.834 2.044-0.831 3.529 0.017l1.184 0.677 1.548-1.346c2.094-1.821 3.574-2.456 5.741-2.464l1.743-0.006-0.167 1.216c-0.092 0.669-0.411 1.94-0.709 2.825-0.446 1.325-0.491 1.796-0.251 2.672 0.16 0.585 0.327 1.103 0.371 1.151 0.148 0.159 2.711-1.311 3.955-2.268 2.493-1.917 2.567-1.884 2.479 1.129l-0.059 2.007h1c1.228 0 2.695 0.666 3.207 1.456 0.211 0.325 0.664 1.45 1.008 2.501s0.796 2.248 1.004 2.661l0.379 0.75h55.656v5.458h-0.819c-0.728 0-0.819 0.091-0.819 0.819 0 0.773-0.061 0.819-1.092 0.819h-1.092v5.15l1.086 0.768c0.811 0.574 1.087 0.958 1.092 1.519l0.006 0.75h-10.37v-1.485c0-1.446 0.035-1.514 1.364-2.635 0.75-0.633 1.364-1.353 1.364-1.6 0-0.933-3.721-3.831-4.919-3.831-0.471 0-1.505 0.556-2.824 1.52-2.546 1.859-2.64 2.308-0.814 3.915 0.697 0.613 1.372 1.115 1.501 1.115s0.234 0.675 0.234 1.501v1.501h-10.643v-0.787c0-0.526 0.214-0.927 0.644-1.209 1.452-0.951 1.539-1.172 1.539-3.89v-2.573h-1.092c-0.983 0-1.092-0.068-1.092-0.685v-0.685l-29.020 0.141-0.998 3.102c-0.715 2.221-1.185 3.244-1.659 3.602-1.133 0.858-2.965 0.967-6.050 0.359-0.571-0.113-0.75-0.306-0.75-0.808 0-0.363-0.104-0.661-0.231-0.661s-1.017 0.51-1.978 1.133c-4.288 2.78-12.051 7.597-12.213 7.577-0.098-0.012-3.432-1.961-7.41-4.33zM23.706 26.352c4.36-2.653 4.645-2.875 4.177-3.262-4.128-3.412-3.926-3.339-5.484-1.973l-0.616 0.54-1.636-1.567 0.683-0.713c0.376-0.392 0.681-0.952 0.678-1.244-0.005-0.533-2.012-2.424-2.395-2.257-0.613 0.266-2.765 2.042-2.774 2.289-0.006 0.16 0.358 0.643 0.808 1.074s0.819 0.876 0.819 0.988c0 0.112-0.371 0.468-0.825 0.791l-0.825 0.587-0.962-0.844c-0.729-0.64-1.074-0.783-1.427-0.589-0.806 0.442-4.149 3.299-4.149 3.546 0 0.258 2.179 1.599 6.413 3.948 1.501 0.833 2.753 1.519 2.781 1.525s2.158-1.271 4.732-2.836zM36.508 20.371c0.779-0.728 1.377-1.35 1.33-1.382s-0.44-0.326-0.873-0.655c-0.993-0.753-1.616-0.752-2.635 0.001-0.802 0.593-0.808 0.616-0.805 3.343l0.002 2.746 0.783-1.364c0.431-0.75 1.42-1.96 2.198-2.688zM10.966 16.873c-0.274-0.302-0.714-0.666-0.978-0.807-0.437-0.234-0.48-0.090-0.473 1.594l0.007 1.852 0.971-1.045c0.948-1.020 0.959-1.058 0.473-1.594zM28.064 17.403v-1.426l-1.474 1.474 0.648 0.69c0.356 0.379 0.688 0.69 0.737 0.69s0.089-0.642 0.089-1.426zM14.008 13.921l0.754-1.088-0.644-0.522c-0.638-0.517-0.657-0.515-2 0.166l-1.356 0.687 1.007 0.922c0.554 0.507 1.114 0.922 1.246 0.922s0.579-0.49 0.994-1.088zM25.759 14.259c0.517-0.413 0.941-0.832 0.941-0.932s-0.571-0.501-1.27-0.891c-1.193-0.667-1.301-0.682-1.774-0.254-0.277 0.251-0.504 0.566-0.504 0.701 0 0.233 1.41 2.126 1.584 2.126 0.046 0 0.506-0.338 1.023-0.75z"></path>
</svg>
