<!-- Generated by IcoMoon.io -->
<svg version="1.1" xmlns="http://www.w3.org/2000/svg" width="92" height="36" viewBox="0 0 92 36">
<title>rank-5</title>
<path d="M10.944 31.946l-6.77-4.034-0.141-7.382-1.143-1.122c-1.237-1.214-1.485-2.037-0.615-2.037 0.478 0 0.445-0.102-0.352-1.086-1.151-1.42-2.014-3.156-1.915-3.852 0.056-0.391 0.287-0.579 0.782-0.636 0.386-0.045 0.703-0.106 0.703-0.137s-0.234-0.721-0.52-1.535c-0.463-1.319-0.487-1.646-0.218-3.015 0.169-0.859 0.462-1.597 0.665-1.675 0.199-0.076 0.728 0.21 1.176 0.636 1.058 1.008 3.254 2.38 3.533 2.207 0.12-0.074 0.218-0.358 0.218-0.631 0-0.644 0.515-0.632 2.43 0.055l1.536 0.551 1.934-1.108c1.755-1.006 1.974-1.221 2.367-2.328 0.602-1.696 2.44-4.818 2.835-4.818 0.34 0 2.694 4.357 2.694 4.985 0 0.411 0.481 0.776 2.918 2.215l1.768 1.044 1.252-0.45c1.418-0.51 1.711-0.372 1.797 0.847 0.031 0.446 0.156 0.81 0.277 0.811 0.471 0.001 3.201-1.607 4.374-2.576 0.821-0.678 1.321-0.936 1.49-0.766 0.14 0.14 0.229 1.122 0.198 2.182l-0.056 1.927h0.936c1.168 0 2.523 0.626 3.030 1.399 0.212 0.324 0.637 1.377 0.944 2.341s0.718 2.068 0.913 2.455l0.355 0.703h52.101v5.109h-0.766c-0.681 0-0.766 0.085-0.766 0.766 0 0.724-0.057 0.766-1.022 0.766h-1.022v4.821l1.016 0.719c0.76 0.537 1.018 0.897 1.022 1.422l0.005 0.703h-9.708v-1.39c0-1.354 0.033-1.418 1.277-2.467 0.703-0.592 1.277-1.266 1.277-1.498 0-0.874-3.483-3.587-4.605-3.587-0.441 0-1.409 0.521-2.644 1.423-2.384 1.741-2.471 2.161-0.762 3.665 0.652 0.574 1.284 1.044 1.405 1.044s0.219 0.632 0.219 1.405v1.405h-9.963v-0.737c0-0.493 0.2-0.868 0.603-1.132 1.359-0.891 1.441-1.097 1.441-3.642v-2.409h-1.022c-0.921 0-1.022-0.063-1.022-0.641v-0.641l-27.167 0.132-0.934 2.904c-0.669 2.079-1.11 3.037-1.553 3.372-1.061 0.803-2.776 0.905-5.664 0.336-0.475-0.093-0.703-0.298-0.703-0.629 0-0.69-0.217-0.63-2.068 0.57-4.014 2.603-11.281 7.112-11.433 7.094-0.092-0.012-3.213-1.835-6.936-4.054zM14.991 26.858c0.163-0.543 0.296-1.463 0.296-2.044v-1.056h-2.555v-0.894c0-0.873 0.024-0.894 1.022-0.894 0.947 0 1.021-0.051 1.009-0.703-0.023-1.294-0.91-7.872-1.104-8.185-0.284-0.459-0.435-0.411-2.622 0.835l-2.009 1.145-0.255 9.414 2.044 1.217c1.124 0.669 2.389 1.425 2.81 1.68s0.834 0.465 0.918 0.468c0.083 0.003 0.284-0.44 0.447-0.983zM23.548 26.121l2.851-1.724-0.139-9.286-2.089-1.205c-1.961-1.131-2.129-1.183-2.741-0.841-0.592 0.331-0.69 0.629-1.074 3.294-0.232 1.611-0.462 3.562-0.511 4.335l-0.089 1.405 1.213 0.078c1.155 0.074 1.213 0.114 1.213 0.83 0 0.733-0.034 0.752-1.277 0.752h-1.277v1.056c0 1.242 0.49 3.031 0.83 3.031 0.131 0 1.521-0.776 3.089-1.724zM34.177 21.114c0.729-0.682 1.289-1.264 1.245-1.294s-0.412-0.306-0.818-0.613c-0.962-0.729-1.533-0.704-2.601 0.11-0.867 0.661-0.877 0.692-0.877 2.661 0 2.835 0.169 3.099 1.024 1.603 0.386-0.676 1.298-1.787 2.027-2.468z"></path>
</svg>
