<!-- Generated by IcoMoon.io -->
<svg version="1.1" xmlns="http://www.w3.org/2000/svg" width="98" height="36" viewBox="0 0 98 36">
<title>rank-7</title>
<path d="M82.688 32.275v-3.725l1.044-1.264c0.574-0.695 1.044-1.359 1.044-1.476 0-0.25-1.733-1.763-3.121-2.725-2.015-1.396-2.69-0.17-2.835 5.147l-0.105 3.85h-10.123v-1.286c0-1.102 0.107-1.373 0.751-1.892 0.413-0.333 0.887-0.871 1.053-1.194 0.28-0.543 0.479-0.587 2.651-0.587 2.544 0 2.808-0.152 2.486-1.436-0.159-0.635-0.226-0.652-2.508-0.652h-2.344v-0.783c0-0.74-0.058-0.783-1.044-0.783s-1.044-0.043-1.044-0.785v-0.785l-28.574 0.135-0.276 2.088c-0.299 2.257-0.639 3.101-1.418 3.518-0.274 0.147-1.916 0.267-3.648 0.267h-3.15v-0.653c0-0.359-0.099-0.653-0.221-0.653s-0.973 0.488-1.892 1.084c-5.903 3.828-11.589 7.273-11.83 7.169-0.156-0.067-3.337-1.936-7.070-4.152l-6.787-4.030-0.144-8.286-0.876-0.918c-1.513-1.585-1.834-2.841-0.647-2.531 0.271 0.071 0.493 0.085 0.493 0.031s-0.521-0.684-1.157-1.4c-0.875-0.985-1.201-1.597-1.338-2.508-0.199-1.329 0.151-2.049 0.72-1.479 0.628 0.628 0.71 0.288 0.176-0.735-0.811-1.556-1.020-2.803-0.71-4.247 0.259-1.21 0.977-1.963 1.209-1.268 0.195 0.586 1.738 1.852 3.225 2.645 1.743 0.93 1.791 0.937 1.791 0.263 0-0.357 0.174-0.522 0.55-0.522 0.422 0 0.506-0.106 0.36-0.457-0.558-1.343-0.91-2.899-0.91-4.022 0-1.499 0.036-1.509 2.877-0.725 2.222 0.613 3.89 1.502 4.663 2.484l0.53 0.674 3.218-1.814 1.339 1.015c0.736 0.558 1.429 1.015 1.54 1.016s0.698-0.453 1.305-1.009 1.577-1.25 2.156-1.542c1.548-0.783 3.954-1.425 4.588-1.224 0.483 0.153 0.532 0.308 0.384 1.228-0.151 0.946-0.786 2.966-1.313 4.18-0.154 0.353-0.074 0.457 0.352 0.457 0.315 0 0.55 0.167 0.55 0.392 0 0.97 2.542-0.079 4.398-1.816 1.162-1.087 1.307-1.154 1.636-0.757 0.244 0.294 0.354 1.091 0.339 2.455l-0.022 2.020 1.206 0.16c2.005 0.266 2.654 0.999 3.946 4.452l0.542 1.448h53.88l3.614 3.642-1.814 1.932c-1.599 1.703-1.93 1.935-2.793 1.964-0.939 0.031-0.979 0.070-0.979 0.946 0 0.909-0.006 0.914-1.175 0.914h-1.175v2.161c0 1.535 0.118 2.329 0.407 2.742 0.481 0.686 1.696 1.362 2.451 1.362 0.492 0 0.535 0.158 0.535 1.958v1.958h-2.702c-3.25 0-4.21 0.278-4.574 1.324-0.258 0.74-0.32 0.764-1.977 0.764h-1.71v-3.725zM22.104 25.726c5.084-3.093 4.906-2.595 1.863-5.222l-1.946-1.68-2.157 1.767-1.227-1.306 0.963-0.986c1.083-1.109 1.131-1.235 0.554-1.457-0.244-0.094-0.815 0.169-1.416 0.653l-1.007 0.81-0.934-0.712c-0.78-0.595-1-0.657-1.337-0.378-0.354 0.294-0.288 0.452 0.544 1.304l0.947 0.969-1.534 1.092-0.605-0.644c-0.333-0.354-0.79-0.639-1.016-0.633-0.463 0.012-4.979 3.534-4.979 3.882 0 0.245 2.091 1.532 6.134 3.775 1.436 0.796 2.633 1.453 2.661 1.458s2.050-1.206 4.494-2.693zM33.236 20.842c0.516-0.703 1.283-1.524 1.703-1.823s0.764-0.652 0.764-0.783c0-0.132-0.483-0.56-1.074-0.951l-1.074-0.711-2.012 2.328 0.011 2.61c0.010 2.549 0.019 2.587 0.378 1.609 0.202-0.551 0.79-1.577 1.306-2.28zM10.643 16.449c0-0.148-0.36-0.679-0.799-1.18-0.654-0.745-0.749-1.003-0.525-1.422 0.45-0.841 0.881-0.804 1.893 0.162 0.605 0.578 1.112 0.859 1.37 0.76 0.648-0.248 0.498-0.54-0.868-1.692l-1.278-1.078-2.142 2.324v5.28l1.175-1.442c0.646-0.793 1.175-1.563 1.175-1.712zM27.871 16.443c0-2.968-0.031-3.15-0.676-3.915-0.972-1.155-1.767-1.048-3.455 0.465-1.199 1.075-1.336 1.291-0.994 1.574 0.331 0.275 0.584 0.156 1.543-0.729l1.147-1.057 1.391 1.451-0.914 0.885c-0.502 0.487-0.914 0.97-0.914 1.072 0 0.208 2.593 3.365 2.763 3.365 0.059 0 0.108-1.401 0.108-3.112zM20.85 14.316l2.791-2.462-0.429-0.748c-0.236-0.411-0.79-1.145-1.231-1.631l-0.802-0.884-7.533 0.022-0.965 1.252c-0.531 0.689-1.001 1.366-1.044 1.506-0.102 0.328 5.822 5.607 6.164 5.493 0.143-0.047 1.515-1.194 3.050-2.548z"></path>
</svg>
