<!-- Generated by IcoMoon.io -->
<svg version="1.1" xmlns="http://www.w3.org/2000/svg" width="32" height="32" viewBox="0 0 32 32">
<title>battlenet</title>
<path d="M20.083 30.802c-0.626-0.656-1.554-1.787-2.062-2.513-0.891-1.274-0.949-1.307-1.657-0.942-3.069 1.585-5.492 0.901-4.918-1.389l0.189-0.752-0.925 0.478c-0.508 0.263-1.63 0.541-2.493 0.618-3.817 0.339-4.341-2.667-1.425-8.171l1.121-2.117-0.702-2.093c-0.386-1.151-0.702-2.437-0.702-2.858v-0.765l-3.384 0.182c-4.72 0.254-3.872-0.651 1.037-1.107l2.004-0.186 0.187-1.41c0.364-2.745 1.365-3.705 3.008-2.885 1.096 0.547 1.078 0.548 1.078-0.070 0-1.056 0.864-3.36 1.528-4.077 0.531-0.573 0.956-0.745 1.843-0.745 0.996 0 1.351 0.188 2.609 1.378 0.801 0.758 2.025 2.333 2.72 3.5 1.144 1.922 1.347 2.123 2.15 2.13 0.488 0.004 1.688 0.259 2.666 0.566s1.868 0.559 1.976 0.561c0.261 0.005 2.031-3.227 2.496-4.557 0.202-0.579 0.468-1.052 0.592-1.052 0.464 0 0.192 1.265-0.8 3.715-0.981 2.422-1.002 2.543-0.491 2.822 0.293 0.161 1.015 0.769 1.604 1.353 0.923 0.914 1.058 1.208 0.982 2.126-0.070 0.85-0.249 1.142-0.881 1.444l-0.793 0.378 1.151 0.985c2.906 2.487 2.569 5.086-0.788 6.083-0.785 0.233-2.64 0.513-4.121 0.622l-2.693 0.198-4.086 4.166 0.929 1.542c0.511 0.848 1.312 2.027 1.781 2.619s0.853 1.153 0.853 1.247c0 0.422-0.532 0.079-1.583-1.023zM15.282 25.457l0.773-0.338-1.135-1.855-0.859 0.612c-1.031 0.734-1.318 1.351-0.785 1.688 0.522 0.331 1.074 0.301 2.007-0.107zM20.398 21.542c1.586-1.753 3.057-4.395 3.33-5.981 0.128-0.748 0.033-0.916-0.747-1.311-1.657-0.84-4.528-1.857-6.965-2.468-2.386-0.598-2.421-0.619-2.387-1.45l0.034-0.843 1.371 0.182c0.754 0.1 2.775 0.544 4.492 0.986s3.15 0.776 3.184 0.742c0.034-0.034-0.322-0.529-0.792-1.099-1.143-1.386-0.444-1.329 0.89 0.073l1.055 1.11 0.445-0.679c0.245-0.373 0.445-0.727 0.445-0.786 0-0.239-2.215-1.056-3.929-1.45-2.162-0.496-4.756-0.515-6.314-0.046-0.915 0.276-1.149 0.492-1.273 1.171-0.176 0.965 0.306 4.030 1.139 7.242 0.625 2.412 0.597 2.8-0.238 3.247-0.487 0.261-0.608 0.112-1.185-1.455-0.353-0.96-0.979-2.997-1.39-4.526l-0.747-2.78-0.522 1.237c-0.418 0.99-0.543 1.116-0.625 0.634-0.057-0.332 0.087-1.058 0.319-1.614l0.422-1.011h-0.968c-1.134 0-1.16 0.134-0.536 2.782 0.598 2.538 1.911 5.136 3.268 6.466 0.638 0.625 1.252 1.137 1.365 1.137 0.45 0 3.898-2.735 5.924-4.699 1.633-1.583 2.306-2.061 2.804-1.99 1.317 0.187 0.874 0.998-2.361 4.315-3.137 3.216-3.177 3.274-2.192 3.134 0.552-0.079 1.257-0.242 1.565-0.364 0.49-0.192 0.514-0.163 0.194 0.231-0.202 0.248-0.983 0.61-1.736 0.803l-1.369 0.351 0.831 1.607 0.812-0.578c0.447-0.318 1.52-1.361 2.386-2.318zM11.547 22.078l0.891-0.375-0.965-0.736c-0.531-0.405-1.345-1.31-1.81-2.012l-0.845-1.276-0.418 1.054c-0.747 1.884-0.839 2.766-0.341 3.264 0.556 0.556 2.265 0.595 3.488 0.081zM26.371 19.764c0.504-0.205 0.987-0.556 1.073-0.781 0.223-0.582-0.552-1.947-1.615-2.841l-0.909-0.765-0.358 1.576c-0.197 0.867-0.55 1.948-0.785 2.402s-0.427 0.901-0.427 0.993c0 0.235 1.924-0.137 3.021-0.583zM27.745 12.753c0.151-0.394-1.131-2.088-1.581-2.088-0.204 0-1.225 1.691-1.088 1.802 0.952 0.776 2.42 0.934 2.669 0.286zM10.439 8.174c0-2.193-1.513-2.148-1.87 0.055-0.167 1.031-0.166 1.033 0.851 1.033 0.996 0 1.019-0.024 1.019-1.088zM16.383 6.922l1.966-0.329-1.186-1.347c-0.917-1.041-1.346-1.328-1.893-1.262-0.936 0.113-1.748 1.255-1.947 2.738-0.157 1.173-0.146 1.193 0.466 0.865 0.345-0.184 1.512-0.484 2.593-0.665z"></path>
</svg>
