<!-- Generated by IcoMoon.io -->
<svg version="1.1" xmlns="http://www.w3.org/2000/svg" width="32" height="32" viewBox="0 0 32 32">
<title>brawl</title>
<path d="M18.459 31.842c-0.307-0.131-0.911-0.174-2.385-0.169-2.804 0.009-4.481-0.302-6.644-1.235-1.675-0.722-2.955-1.583-4.544-3.057-0.507-0.47-0.677-0.542-2.198-0.924-1.649-0.414-1.649-0.414-1.872-1.006-0.123-0.326-0.356-0.765-0.519-0.975-0.478-0.618-0.399-0.916 0.386-1.471 0.375-0.265 0.736-0.5 0.802-0.521s-0.158-0.607-0.497-1.302c-0.856-1.75-0.988-2.348-0.988-4.476 0-2.161 0.25-3.572 0.97-5.46 1.359-3.568 4.398-6.887 7.244-7.911 0.386-0.139 0.702-0.319 0.702-0.401 0-0.443 0.885-1.11 1.57-1.184 0.198-0.021 0.54-0.189 0.762-0.373 0.54-0.448 0.915-0.582 1.605-0.573 0.401 0.005 0.832-0.107 1.405-0.366 0.648-0.293 1.037-0.384 1.803-0.421 0.915-0.044 1.018-0.024 1.622 0.325 0.477 0.276 0.714 0.512 0.91 0.91 0.146 0.296 0.331 0.538 0.411 0.538s0.335-0.185 0.564-0.412c0.786-0.775 2.496-1.017 4.204-0.595 0.72 0.178 0.938 0.301 1.553 0.878 0.393 0.369 0.84 0.915 0.992 1.213 0.49 0.959 0.69 2.395 0.429 3.074-0.113 0.293-0.056 0.391 0.706 1.206 0.908 0.972 1.753 2.304 2.292 3.611 0.258 0.625 0.525 1.015 1.032 1.506 0.952 0.921 1.223 1.544 1.223 2.81 0 1.624-0.187 2.288-0.85 3.014-0.318 0.348-0.576 0.753-0.586 0.919-0.033 0.534-0.892 2.927-1.494 4.16-0.739 1.513-1.798 2.986-3.089 4.296-1.157 1.174-1.993 1.819-3.325 2.568-0.521 0.293-1.036 0.676-1.145 0.851-0.132 0.213-0.521 0.452-1.175 0.723-1.101 0.456-1.296 0.48-1.877 0.232zM20.546 30.902c0.454-0.184 0.454-0.184 0.264-0.824-0.262-0.884-0.767-1.979-1.007-2.182-0.23-0.195-3.907-1.729-6.062-2.529-1.92-0.713-4.627-1.518-7.799-2.319-2.3-0.581-2.624-0.636-3.118-0.526s-1.5 0.641-2.142 1.132c-0.231 0.177-0.231 0.183 0 0.431 0.129 0.139 0.372 0.533 0.54 0.875 0.301 0.615 0.316 0.626 1.16 0.84 5.175 1.311 8.697 2.473 14.257 4.705 2.476 0.994 2.476 0.994 2.964 0.788 0.269-0.113 0.693-0.289 0.942-0.39zM18.26 30.080c-4.904-2.027-10.422-3.888-14.589-4.92-0.836-0.207-1.565-0.404-1.619-0.436s-0.046-0.156 0.018-0.274c0.109-0.2 0.249-0.18 2.154 0.308 2.963 0.759 4.692 1.279 7.312 2.203 2.572 0.906 7.648 2.862 7.793 3.003 0.051 0.049 0.023 0.175-0.061 0.28-0.138 0.171-0.24 0.155-1.008-0.163zM16.469 31.061c-0.32-0.184-5.501-2.132-7.187-2.702-0.84-0.284-2.049-0.657-2.687-0.829-1.16-0.312-1.16-0.312-0.672 0.106 2.599 2.227 6.095 3.474 9.893 3.529 0.605 0.009 0.796-0.022 0.652-0.104zM23.817 28.676c1.515-1.060 3.323-3.106 4.356-4.929 0.541-0.954 1.030-2.119 1.432-3.409 0.298-0.957 0.298-0.957-0.455-0.43-0.414 0.29-1.193 0.765-1.73 1.056-0.947 0.511-0.998 0.562-1.66 1.648-0.375 0.616-0.852 1.287-1.059 1.492-0.377 0.371-0.377 0.371 0.010 0.628 0.601 0.398 0.59 0.878-0.034 1.434-0.409 0.365-0.585 0.441-1.014 0.437-0.285-0.002-0.654-0.078-0.82-0.169-0.283-0.154-0.338-0.131-0.916 0.382-0.338 0.3-0.794 0.63-1.012 0.733s-0.397 0.233-0.397 0.289c0 0.056 0.131 0.358 0.292 0.67s0.361 0.799 0.447 1.081c0.155 0.512 0.155 0.512 0.96 0.078 0.443-0.239 1.162-0.685 1.599-0.991zM21.728 26.316c0.363-0.372 0.363-0.372 0.006-0.764s-0.357-0.392-0.847 0.57c-0.27 0.529-0.49 0.993-0.49 1.032 0 0.14 0.976-0.474 1.331-0.838zM20.629 25.372c1.676-3.426 2.318-5.749 2.824-10.202 0.448-3.948 0.497-3.432-0.37-3.864-0.416-0.207-0.784-0.35-0.817-0.316s-0.19 0.686-0.347 1.45-0.508 2.23-0.779 3.257c-0.271 1.027-0.46 1.953-0.419 2.057 0.041 0.106-0.013 0.254-0.122 0.335-0.108 0.080-0.505 1.090-0.882 2.244-0.77 2.355-1.403 3.871-2.070 4.953-0.248 0.402-0.415 0.766-0.372 0.809 0.12 0.119 2.187 0.983 2.362 0.988 0.085 0.002 0.532-0.768 0.994-1.712zM24.326 25.805c0.442-0.395 0.257-0.701-0.509-0.842-1.138-0.21-1.428-1.396-0.554-2.259 0.414-0.408 0.768-0.612 3.909-2.253 1.455-0.76 1.871-1.046 2.823-1.944 1.069-1.008 1.123-1.084 1.283-1.807 0.092-0.415 0.168-1.134 0.17-1.598 0.005-1.569-0.953-2.832-2.483-3.27-1.417-0.406-3.856 0.027-4.4 0.781-0.166 0.23-0.286 0.743-0.406 1.743-0.094 0.779-0.145 1.442-0.113 1.473 0.142 0.14 0.838 0.030 1.108-0.174 0.297-0.225 0.297-0.225-0.036-0.959-0.244-0.535-0.302-0.791-0.217-0.947 0.24-0.438 0.711-0.742 1.439-0.926 1.443-0.366 2.356-0.197 3.202 0.591 0.546 0.509 0.558 0.536 0.607 1.388 0.073 1.28-0.229 2.263-0.944 3.069-0.614 0.692-2.012 1.902-2.248 1.944-0.335 0.061-2.53 1.052-3.336 1.507-0.868 0.49-0.868 0.49-1.321 1.653-0.249 0.64-0.483 1.285-0.52 1.434-0.081 0.329 0.421 1.027 0.983 1.365 0.474 0.285 1.263 0.301 1.564 0.032zM17.317 24.77c0.342-0.613 0.784-1.521 0.981-2.018 0.422-1.062 1.395-3.989 1.342-4.036-0.020-0.018-0.449 0.049-0.953 0.149-0.765 0.152-1.003 0.26-1.442 0.657-0.523 0.473-1.619 1.057-1.988 1.059-0.138 0.001-0.393 0.542-0.895 1.899-0.386 1.044-0.711 1.967-0.723 2.052-0.013 0.092 0.571 0.391 1.444 0.741 0.806 0.322 1.498 0.592 1.538 0.598s0.352-0.489 0.695-1.102zM13.546 23.174c0.272-0.695 0.529-1.414 0.57-1.596 0.075-0.332 0.075-0.332-0.257 0.068-0.401 0.483-1.18 0.986-1.527 0.986-0.19 0-0.335-0.174-0.576-0.693-0.266-0.571-0.319-0.851-0.305-1.596 0.015-0.774-0.024-0.964-0.276-1.325-0.398-0.571-0.631-1.154-0.733-1.83-0.047-0.311-0.182-0.652-0.301-0.757-0.203-0.181-0.244-0.108-0.712 1.288-0.54 1.611-1.367 4.651-1.367 5.026 0 0.19 0.2 0.292 1.069 0.546 0.588 0.171 1.646 0.494 2.351 0.718s1.347 0.412 1.426 0.419c0.079 0.007 0.366-0.557 0.639-1.252zM24.393 23.685c0.266-0.348 0.633-0.891 0.815-1.207 0.332-0.575 0.332-0.575-0.429-0.159-1.026 0.561-1.45 0.946-1.45 1.315 0 0.879 0.416 0.899 1.064 0.051zM8.058 20.463c0.277-1.027 0.72-2.482 0.984-3.234 0.48-1.367 0.48-1.367 0.167-1.771-0.324-0.419-0.702-1.454-0.594-1.626 0.053-0.084 0.852-0.282 1.555-0.385 0.146-0.021 0.503-0.63 1.112-1.899 0.493-1.027 1.18-2.346 1.526-2.931s0.629-1.078 0.629-1.095c0-0.017-0.669-0.214-1.488-0.438-1.119-0.306-1.5-0.369-1.539-0.254-0.028 0.084-0.15 0.245-0.27 0.357-0.225 0.21-2.373 3.516-3.265 5.026-0.858 1.451-1.731 3.26-2.104 4.361-0.354 1.042-0.769 3.112-0.917 4.577-0.076 0.744-0.074 0.75 0.265 0.833 0.188 0.046 1.001 0.252 1.807 0.456 1.44 0.366 1.467 0.368 1.548 0.131 0.045-0.133 0.309-1.082 0.586-2.109zM3.138 21.85c0.028-0.010 0.431-3.080 0.427-3.255-0.001-0.066-0.090-0.581-0.196-1.144-0.405-2.149-0.161-3.822 0.86-5.893 0.47-0.954 0.738-1.313 1.683-2.256 0.957-0.955 1.281-1.194 2.179-1.609 0.58-0.268 1.171-0.633 1.312-0.81 0.257-0.322 0.257-0.322-0.054-0.483-0.28-0.145-0.311-0.232-0.311-0.878 0-0.394-0.066-0.962-0.148-1.261-0.168-0.621-0.182-0.621-1.319-0.059-1.678 0.83-3.353 2.45-4.888 4.729-1.021 1.516-1.275 2.122-1.772 4.243-0.385 1.639-0.533 4.237-0.308 5.382 0.168 0.853 0.726 2.313 1.171 3.066 0.294 0.496 0.294 0.496 0.817 0.367 0.288-0.071 0.534-0.133 0.547-0.138zM13.261 21.471c0.302-0.307 0.531-0.613 0.508-0.681s-0.274-0.191-0.558-0.273c-0.284-0.083-0.65-0.237-0.814-0.343s-0.327-0.192-0.363-0.192c-0.036 0-0.065 0.243-0.065 0.54 0 0.647 0.324 1.508 0.567 1.508 0.096 0 0.422-0.251 0.724-0.558zM25.805 19.676c0.455-0.179 0.876-0.415 0.936-0.525 0.262-0.483 0.512-2.143 0.438-2.905-0.154-1.573-0.445-2.891-0.638-2.891-0.226 0-0.993 0.352-1.085 0.498-0.037 0.059 0.074 0.411 0.246 0.783s0.314 0.744 0.314 0.828-0.226 0.353-0.501 0.599c-0.446 0.398-0.561 0.442-1.043 0.404-0.463-0.036-0.549-0.007-0.591 0.2-0.027 0.133-0.165 0.893-0.307 1.688s-0.338 1.713-0.435 2.040c-0.097 0.327-0.176 0.604-0.176 0.615s0.453-0.21 1.008-0.493 1.38-0.661 1.835-0.84zM16.048 19.691c2.099-1.013 2.818-3.93 1.432-5.816-0.749-1.019-2.461-1.502-3.786-1.067-0.981 0.321-1.757 1.001-2.233 1.955-0.366 0.733-0.407 0.922-0.407 1.851 0 0.913 0.043 1.118 0.369 1.749 0.386 0.746 1.133 1.37 1.935 1.614 0.676 0.206 1.952 0.070 2.69-0.286zM13.496 18.249c-1.135-0.418-1.106-0.606 0.114-0.74 1.090-0.12 1.749-0.439 1.966-0.952 0.383-0.904 0.072-1.516-0.767-1.513-0.532 0.002-0.671 0.075-0.877 0.459-0.179 0.335-0.094 0.623 0.184 0.623 0.128 0 0.175-0.065 0.13-0.181-0.083-0.213 0.19-0.241 0.541-0.056 0.557 0.294 0.080 1.2-0.631 1.2-0.753 0-1.363-1.086-1.149-2.045 0.045-0.2 0.134-0.364 0.198-0.364s0.268-0.11 0.452-0.244c0.572-0.417 1.111-0.428 1.952-0.040 0.594 0.274 0.787 0.435 0.95 0.79 0.447 0.975-0.006 2.372-0.946 2.92-0.458 0.267-1.576 0.342-2.118 0.143zM28.628 17.748c0.599-0.685 0.817-1.223 0.987-2.445 0.162-1.159-0.507-1.945-1.74-2.046-0.608-0.050-0.66-0.035-0.597 0.172 0.038 0.125 0.16 0.715 0.271 1.311 0.205 1.098 0.199 3.345-0.012 3.84-0.091 0.214-0.080 0.215 0.203 0.033 0.164-0.106 0.563-0.495 0.887-0.865zM19.542 18.070c0.235-0.109 0.444-0.284 0.463-0.389 0.037-0.197-0.858-1.194-1.071-1.194-0.066 0-0.152 0.149-0.191 0.331s-0.17 0.611-0.29 0.953c-0.218 0.622-0.218 0.622 0.222 0.559 0.242-0.035 0.632-0.152 0.867-0.261zM5.367 13.811c0.401-0.776 1.322-2.346 2.047-3.488s1.367-2.153 1.425-2.248c0.058-0.094-0.244 0.011-0.672 0.234-0.917 0.477-2.83 2.283-3.338 3.151-0.617 1.055-0.933 2.177-1.008 3.576-0.038 0.71-0.030 1.499 0.018 1.751 0.087 0.46 0.087 0.46 0.443-0.553 0.196-0.557 0.684-1.648 1.084-2.424zM20.684 15.28c0.459-1.755 1.085-4.587 1.026-4.645-0.056-0.055-2.716-1.234-2.738-1.214-0.090 0.085-1.178 3.119-1.226 3.419-0.048 0.299 0.024 0.518 0.311 0.947 0.356 0.531 0.52 0.925 0.677 1.63 0.044 0.196 0.326 0.506 0.744 0.817 0.37 0.276 0.673 0.563 0.673 0.638 0 0.328 0.134-0.073 0.532-1.592zM10.504 15.674c0-0.116 0.166-0.558 0.37-0.981 0.37-0.771 0.37-0.771-0.546-0.702-0.503 0.038-0.969 0.101-1.034 0.141-0.187 0.114 0.073 0.703 0.555 1.258 0.464 0.534 0.655 0.617 0.655 0.284zM12.196 13.010c0.56-0.434 1.043-0.678 1.67-0.845 0.371-0.098 0.607-0.279 0.96-0.736 0.466-0.602 1.956-1.806 2.238-1.808 0.21-0.002 0.363 0.328 0.465 1.002 0.050 0.326 0.135 0.536 0.194 0.477 0.108-0.107 0.743-1.864 0.688-1.906-0.084-0.065-2.133-0.797-3.189-1.14-0.989-0.321-1.225-0.362-1.315-0.226-0.483 0.725-1.456 2.512-2.114 3.88-0.791 1.646-0.791 1.646-0.417 1.646 0.227 0 0.55-0.136 0.819-0.345zM17.080 11.376c-0.058-0.525-0.129-0.978-0.158-1.007-0.095-0.094-1.143 0.719-1.515 1.176-0.367 0.45-0.367 0.45 0.266 0.59 0.348 0.077 0.797 0.246 0.998 0.376 0.34 0.22 0.37 0.222 0.44 0.028 0.041-0.114 0.028-0.638-0.031-1.163zM25.435 11.431c0.381-0.134 0.407-0.223 0.164-0.551-0.164-0.221-0.195-0.207-0.672 0.308-0.582 0.628-0.637 0.81-0.164 0.547 0.185-0.103 0.487-0.24 0.672-0.305zM29.244 11.036c-0.142-0.451-0.917-1.923-1.315-2.5-0.206-0.298-0.647-0.827-0.98-1.176-0.573-0.601-0.617-0.623-0.83-0.433-0.305 0.272-0.285 0.351 0.129 0.52 0.195 0.080 0.48 0.276 0.633 0.437 0.278 0.292 0.278 0.293 0.063 0.967-0.119 0.371-0.397 0.87-0.618 1.108-0.402 0.433-0.402 0.433-0.152 0.809s0.251 0.376 1.176 0.325c0.509-0.028 1.118 0.003 1.353 0.070 0.616 0.176 0.636 0.172 0.542-0.127zM24.433 10.935c0.075-0.138 0.118-0.266 0.096-0.283-0.193-0.154-2.021-1.136-3.155-1.696-2.618-1.293-5.458-2.289-8.901-3.122-2.77-0.67-3.223-0.685-2.841-0.089 0.056 0.088 1.416 0.53 3.021 0.982 3.811 1.075 6.116 1.933 9.697 3.611 0.974 0.456 1.81 0.834 1.858 0.839s0.149-0.103 0.224-0.242zM25.905 9.664c0.192-0.22 0.599-1.147 0.599-1.363 0-0.16-3.628-2.069-5.13-2.7-1.73-0.727-4.138-1.531-6.717-2.244-3.734-1.032-3.969-1.082-4.452-0.951-0.718 0.196-1.082 1.062-0.762 1.818 0.169 0.399 0.211 0.419 1.442 0.684 5.298 1.14 8.789 2.422 13.109 4.814 1.089 0.603 1.094 0.604 1.405 0.386 0.172-0.121 0.4-0.32 0.507-0.443zM26.209 5.559c0.2-1.312-0.246-2.599-1.214-3.501-0.576-0.537-0.717-0.605-1.682-0.804-1.692-0.35-2.988-0.018-4.105 1.051-0.453 0.434-0.496 0.518-0.345 0.683 0.095 0.103 0.28 0.432 0.412 0.73 0.234 0.53 0.27 0.554 1.569 1.062 0.731 0.286 2.043 0.89 2.914 1.344 1.584 0.824 1.584 0.824 1.976 0.4 0.264-0.285 0.418-0.6 0.474-0.964zM18.673 3.687c-0.080-0.149-0.205-0.311-0.279-0.36-0.183-0.121-1.417-0.116-1.417 0.005 0 0.094 1.364 0.592 1.684 0.614 0.124 0.009 0.127-0.045 0.013-0.26zM16.611 2.814c0.437-0.095 0.954-0.174 1.151-0.176s0.455-0.092 0.575-0.199c0.209-0.186 0.205-0.22-0.079-0.773-0.243-0.473-0.421-0.637-0.977-0.906-0.827-0.399-1.566-0.367-2.67 0.115-0.622 0.271-0.696 0.338-0.56 0.5 0.087 0.103 0.223 0.439 0.302 0.746 0.122 0.473 0.207 0.581 0.56 0.707 0.543 0.194 0.748 0.192 1.698-0.014zM13.858 2.242c-0.144-0.476-0.417-0.807-0.731-0.885-0.418-0.104-1.037 0.031-1.397 0.304-0.3 0.228-0.3 0.228 0.366 0.413 1.896 0.528 1.87 0.525 1.761 0.167z"></path>
</svg>
