<!-- Generated by IcoMoon.io -->
<svg version="1.1" xmlns="http://www.w3.org/2000/svg" width="32" height="32" viewBox="0 0 32 32">
<title>bubbles2</title>
<path d="M28.87 31.751c-0.172-0.137-1.355-1.103-2.628-2.146-3.049-2.498-3.827-3.115-4.144-3.29-0.604-0.333-0.576-0.332-6.714-0.384-5.408-0.046-5.832-0.058-6.445-0.186-0.624-0.13-0.748-0.193-0.751-0.377-0.001-0.077 2.508-2.184 2.798-2.351 0.103-0.059 1.615-0.075 5.883-0.061l5.744 0.019 0.338 0.195c0.347 0.201 1.080 0.772 2.587 2.017l0.859 0.71 0.034-2.991 2.722-0.037v-13.74l-1.486 0.008c-0.817 0.004-1.669 0.028-1.892 0.052-0.398 0.043-0.409 0.049-0.551 0.333-0.145 0.289-0.145 0.293-0.194 4.089-0.046 3.622-0.056 3.82-0.183 4.246-0.25 0.831-0.818 1.459-1.563 1.728-0.416 0.15-0.469 0.152-6.334 0.205-3.9 0.035-6.042 0.079-6.289 0.13-0.207 0.042-0.53 0.162-0.72 0.265-0.332 0.181-2.26 1.713-5.069 4.027-0.74 0.61-1.521 1.238-1.735 1.397l-0.389 0.289-0.035-5.786-0.173-0.163c-0.095-0.090-0.292-0.197-0.438-0.237-1.018-0.282-1.6-0.842-1.935-1.861l-0.145-0.441-0.018-7.174c-0.010-4.247 0.007-7.365 0.042-7.643 0.111-0.876 0.549-1.658 1.178-2.1 0.716-0.503-0.191-0.463 10.939-0.487 6.764-0.015 10.176 0.001 10.514 0.050 0.822 0.119 1.462 0.556 1.89 1.29 0.393 0.674 0.411 0.781 0.451 2.679 0.036 1.685 0.041 1.738 0.179 1.89 0.141 0.155 0.16 0.157 2.347 0.197 1.98 0.036 2.24 0.054 2.555 0.176 0.945 0.367 1.509 0.993 1.787 1.983 0.109 0.389 0.116 0.81 0.116 7.798v7.387l-0.145 0.441c-0.335 1.019-0.896 1.566-1.983 1.935-0.667 0.226-0.621-0.006-0.657 3.295l-0.031 2.874-0.313-0.249zM8.293 17.59c1.073-0.837 0.357-0.765 7.584-0.765h6.254l0.069-0.216c0.048-0.151 0.069-2.169 0.069-6.696v-6.479l-0.302-0.386h-9.383c-10.253 0-9.64-0.025-9.775 0.398-0.073 0.229-0.096 11.938-0.025 12.854l0.040 0.526h2.798v2.946l1.017-0.842c0.559-0.463 1.304-1.066 1.655-1.34z"></path>
</svg>
