<!-- Generated by IcoMoon.io -->
<svg version="1.1" xmlns="http://www.w3.org/2000/svg" width="32" height="32" viewBox="0 0 32 32">
<title>card</title>
<path d="M5.12 16v-16h21.76v32h-21.76v-16zM26.3 16v-15.487h-20.599v30.974h20.599v-15.487zM14.7 19.597c-0.047-0.050-0.255-0.106-0.462-0.124-0.71-0.064-0.907-0.117-1.104-0.299l-0.196-0.181 0.316-0.147c0.383-0.177 0.783-0.31 0.94-0.311 0.064-0 0.178-0.061 0.253-0.135 0.188-0.184 0.33-0.243 0.745-0.313 0.585-0.098 1.239-0.419 1.738-0.853 0.697-0.605 0.754-0.738 0.724-1.673-0.024-0.733-0.038-0.797-0.242-1.092-0.31-0.449-0.496-0.55-1.089-0.593-0.694-0.050-1.229 0.093-1.667 0.447-0.323 0.261-0.334 0.282-0.374 0.726-0.048 0.524-0.011 0.711 0.184 0.909 0.157 0.16 0.223 0.169 0.48 0.066 0.213-0.086 0.225-0.145 0.077-0.395-0.105-0.178-0.103-0.182 0.162-0.279 0.337-0.124 0.855-0.071 1.073 0.11 0.201 0.167 0.343 0.585 0.333 0.982-0.007 0.281-0.038 0.335-0.317 0.56-0.17 0.137-0.424 0.276-0.563 0.309-0.703 0.168-0.869 0.199-1.083 0.199-0.128 0-0.293-0.029-0.368-0.064-0.244-0.116-1.097-0.919-1.242-1.17-0.078-0.135-0.213-0.309-0.301-0.386-0.139-0.123-0.162-0.225-0.186-0.815-0.015-0.371-0.059-0.709-0.097-0.751-0.049-0.054 0.013-0.125 0.213-0.242 0.155-0.091 0.435-0.322 0.622-0.513 0.405-0.415 1.514-1.089 1.895-1.152 0.209-0.035 0.291-0.021 0.358 0.060 0.073 0.088 0.118 0.093 0.278 0.028 0.163-0.066 0.228-0.057 0.441 0.059 0.161 0.088 0.37 0.136 0.586 0.136 0.185 0 0.336 0.029 0.336 0.064s0.066 0.064 0.147 0.064c0.081 0 0.166 0.044 0.19 0.098 0.032 0.074 0.104 0.087 0.293 0.056 0.218-0.036 0.285-0.013 0.508 0.175 0.142 0.119 0.428 0.418 0.636 0.665 0.293 0.348 0.389 0.521 0.427 0.77 0.027 0.176 0.101 0.46 0.165 0.631 0.17 0.454 0.031 1.426-0.263 1.838-0.113 0.159-0.228 0.433-0.256 0.609s-0.101 0.356-0.163 0.4c-0.062 0.044-0.351 0.282-0.641 0.529s-0.563 0.45-0.606 0.45c-0.043 0-0.207 0.076-0.366 0.169-0.242 0.142-0.344 0.163-0.632 0.134-0.247-0.025-0.415-0.003-0.599 0.080-0.237 0.106-0.898 0.258-1.12 0.258-0.053 0-0.135-0.041-0.181-0.090z"></path>
</svg>
