<!-- Generated by IcoMoon.io -->
<svg version="1.1" xmlns="http://www.w3.org/2000/svg" width="23" height="32" viewBox="0 0 23 32">
<title>dust</title>
<path d="M5.564 31.189c-3.638-1.277-5.373-2.555-5.536-4.079-0.195-1.826 0.682-15.813 1.091-17.389 0.195-0.753 0.915-1.943 1.6-2.643s1.565-1.793 1.955-2.427c0.39-0.635 1.104-1.3 1.585-1.479 0.583-0.217 0.914-0.652 0.991-1.304 0.162-1.365 1.401-1.866 4.62-1.867 5.524-0.002 9.413 1.812 8.289 3.865-0.306 0.559-0.225 0.915 0.394 1.734 0.536 0.709 0.709 1.302 0.555 1.903-0.152 0.591-0.056 0.935 0.295 1.067 0.286 0.107 0.786 0.699 1.111 1.314 0.931 1.76 0.793 2.438-3.155 15.479-1.544 5.102-1.549 5.111-2.987 5.814-1.074 0.526-2.309 0.729-4.863 0.801-2.907 0.082-3.804-0.037-5.946-0.789zM14.788 27.977c0.334-0.094 0.83-1.009 1.181-2.181 1.745-5.824 3.789-13.276 3.672-13.39-0.073-0.072-1.13 0.061-2.349 0.296-3.82 0.735-8.115 0.034-10.868-1.774-0.869-0.571-1.68-0.926-1.802-0.79-0.769 0.858-1.131 3.423-1.304 9.248l-0.194 6.533 2.481 1.108c1.365 0.609 2.967 1.18 3.562 1.269 1.114 0.166 4.601-0.032 5.621-0.318zM8.232 26.795c-0.713-0.136-1.848-0.563-2.523-0.948l-1.227-0.701v-7.263l2.703-1.048c1.486-0.577 2.899-1.208 3.14-1.403 0.313-0.254 1.259 0.267 3.333 1.837 1.593 1.205 2.896 2.256 2.896 2.336 0 1.048-1.726 6.388-2.221 6.872-0.702 0.686-3.431 0.829-6.101 0.318zM18.717 8.535c0.783-0.383 1.305-0.917 1.376-1.409 0.143-0.986-0.24-0.994-2.106-0.042-2.784 1.419-8.127 0.365-10.009-1.974-0.394-0.49-0.843-0.891-0.997-0.891-0.476 0-1.598 1.141-1.598 1.625 0 0.517 2.633 2.12 4.629 2.817 2.003 0.7 7.168 0.625 8.705-0.126zM17.804 3.103c0.502-0.224 0.913-0.548 0.913-0.72 0-0.702-2.867-1.444-6.216-1.609-3.843-0.189-4.27 0.052-2.4 1.353 2.349 1.635 5.365 2.018 7.704 0.976z"></path>
</svg>
