<!-- Generated by IcoMoon.io -->
<svg version="1.1" xmlns="http://www.w3.org/2000/svg" width="32" height="32" viewBox="0 0 32 32">
<title>expansions</title>
<path d="M3.41 31.905c-1.962-0.418-3.405-2.208-3.41-4.229-0.005-2.033 1.472-3.847 3.467-4.26 0.243-0.050 0.51-0.091 0.593-0.091h0.151v-14.726l-0.439-0.066c-1.070-0.159-2.096-0.736-2.74-1.539-0.315-0.393-0.745-1.261-0.862-1.738-0.103-0.419-0.103-1.539-0.001-1.962 0.112-0.463 0.547-1.336 0.866-1.738 0.149-0.188 0.424-0.463 0.611-0.613 0.401-0.319 1.273-0.755 1.735-0.867 0.422-0.102 1.539-0.102 1.958 0.001 0.476 0.117 1.343 0.548 1.735 0.864 0.818 0.658 1.386 1.705 1.56 2.874l0.038 0.253h14.753l0.041-0.342c0.056-0.464 0.323-1.246 0.567-1.662 0.258-0.439 1.055-1.238 1.493-1.496 0.188-0.111 0.574-0.283 0.859-0.382 0.478-0.167 0.579-0.181 1.319-0.181s0.841 0.014 1.319 0.181c0.72 0.251 1.123 0.506 1.676 1.059 0.556 0.555 0.862 1.051 1.084 1.753 0.138 0.436 0.159 0.607 0.159 1.248s-0.022 0.812-0.159 1.248c-0.088 0.278-0.26 0.679-0.384 0.892-0.288 0.496-1.064 1.274-1.559 1.562-0.415 0.242-1.144 0.485-1.646 0.549l-0.311 0.040v14.834l0.439 0.066c1.079 0.161 2.098 0.734 2.737 1.539 0.319 0.402 0.754 1.275 0.866 1.738 0.102 0.423 0.102 1.542-0.001 1.962-0.117 0.477-0.547 1.345-0.862 1.738-0.381 0.475-0.863 0.846-1.489 1.144-0.704 0.336-1.054 0.415-1.839 0.415-0.791 0-1.142-0.080-1.839-0.417-0.974-0.472-1.561-1.059-2.016-2.018-0.266-0.562-0.351-0.847-0.419-1.412l-0.041-0.342h-14.758v0.151c0 0.374-0.202 1.107-0.442 1.602-0.468 0.968-1.054 1.555-2.020 2.024-0.875 0.425-1.847 0.545-2.788 0.345zM4.686 31.764c1.141-0.148 2.138-0.692 2.815-1.536 0.638-0.796 0.888-1.529 0.882-2.593-0.003-0.612-0.026-0.781-0.164-1.188-0.254-0.753-0.492-1.145-1.011-1.667-0.814-0.817-1.699-1.179-2.878-1.179s-2.063 0.362-2.879 1.179-1.177 1.703-1.177 2.884c0 1.022 0.255 1.77 0.864 2.54 0.782 0.988 1.802 1.533 3.013 1.611 0.049 0.003 0.289-0.020 0.534-0.052zM3.766 30.236c-0.276-0.040-0.323-0.11-0.288-0.421l0.032-0.278-0.569-0.339-0.256 0.125c-0.141 0.069-0.282 0.125-0.313 0.125-0.068 0-0.593-0.772-0.593-0.872 0-0.039 0.107-0.146 0.238-0.238l0.238-0.167-0.038-0.327c-0.021-0.18-0.049-0.346-0.062-0.37s-0.133-0.076-0.266-0.115-0.253-0.103-0.267-0.141c-0.032-0.083 0.238-0.905 0.325-0.992 0.043-0.043 0.148-0.040 0.343 0.009l0.281 0.071 0.468-0.469-0.079-0.308c-0.067-0.263-0.066-0.315 0.006-0.36 0.17-0.105 0.888-0.31 0.973-0.277 0.048 0.018 0.119 0.14 0.158 0.27 0.070 0.234 0.074 0.236 0.431 0.278 0.335 0.039 0.367 0.032 0.452-0.096 0.27-0.408 0.238-0.403 0.707-0.119 0.233 0.141 0.44 0.283 0.46 0.315s-0.023 0.184-0.095 0.339l-0.131 0.281 0.154 0.227c0.084 0.125 0.154 0.248 0.154 0.275s0.151 0.043 0.336 0.036c0.323-0.012 0.337-0.005 0.383 0.16 0.026 0.094 0.055 0.348 0.065 0.564l0.018 0.393-0.303 0.052c-0.303 0.052-0.303 0.052-0.404 0.373l-0.101 0.321 0.181 0.22c0.1 0.121 0.181 0.249 0.181 0.283 0 0.079-0.665 0.742-0.745 0.742-0.032 0-0.158-0.082-0.28-0.183l-0.221-0.183-0.312 0.116c-0.306 0.114-0.313 0.121-0.364 0.42l-0.053 0.304-0.333-0.009c-0.183-0.004-0.413-0.020-0.511-0.035zM5.071 29.182c0.36-0.163 0.693-0.49 0.874-0.858 0.186-0.377 0.189-1.102 0.006-1.501-0.161-0.352-0.512-0.703-0.885-0.887-0.434-0.214-1.059-0.204-1.522 0.023-0.621 0.305-0.948 0.819-0.985 1.545-0.021 0.425-0.008 0.496 0.164 0.845 0.441 0.897 1.431 1.248 2.347 0.833zM3.759 29.114c-0.538-0.191-1.001-0.789-1.071-1.385-0.106-0.899 0.681-1.786 1.587-1.788 1.441-0.003 2.204 1.618 1.278 2.715-0.088 0.104-0.323 0.272-0.523 0.372-0.413 0.207-0.848 0.236-1.27 0.086zM4.734 28.198c0.196-0.119 0.367-0.422 0.367-0.648 0-0.205-0.184-0.517-0.371-0.627-0.378-0.224-0.893-0.077-1.076 0.307-0.118 0.248-0.12 0.38-0.010 0.644 0.104 0.249 0.405 0.445 0.686 0.445 0.114 0 0.296-0.054 0.404-0.12zM28.919 31.587c0.652-0.203 1.137-0.505 1.666-1.035 0.537-0.538 0.832-1.018 1.043-1.699 0.115-0.37 0.138-0.572 0.135-1.189-0.003-0.653-0.023-0.8-0.168-1.219-0.242-0.699-0.477-1.073-1.012-1.61s-1.015-0.833-1.695-1.045c-0.369-0.115-0.571-0.138-1.186-0.136-0.652 0.003-0.799 0.023-1.216 0.168-0.647 0.225-1.042 0.462-1.519 0.913-0.702 0.663-1.085 1.391-1.259 2.393-0.076 0.435-0.077 0.58-0.008 1.040 0.149 0.989 0.447 1.623 1.079 2.295 0.603 0.64 1.268 1.022 2.122 1.218 0.507 0.116 1.488 0.070 2.017-0.095zM26.885 30.090c-0.106-0.107-0.087-0.19 0.080-0.347s0.172-0.337 0.013-0.437c-0.082-0.051-0.176-0.025-0.452 0.128-0.582 0.321-1.030 0.241-1.404-0.251-0.428-0.563-0.113-1.576 0.491-1.577 0.073-0 0.133-0.035 0.133-0.079 0-0.215 0.203-0.719 0.363-0.902 0.143-0.163 0.254-0.221 0.534-0.279 0.306-0.063 0.371-0.101 0.483-0.284 0.335-0.545 0.871-0.758 1.318-0.523 0.142 0.074 0.189 0.064 0.545-0.115 0.446-0.225 0.681-0.245 0.951-0.080 0.245 0.149 0.55 0.68 0.55 0.953-0.001 0.345-0.221 0.661-0.592 0.849-0.179 0.091-0.335 0.19-0.345 0.219s0.026 0.122 0.081 0.206c0.105 0.16 0.257 0.192 0.441 0.093 0.155-0.083 0.297-0.013 0.297 0.148 0 0.175-0.431 0.761-0.797 1.084-0.578 0.509-2.083 1.262-2.528 1.264-0.051 0-0.124-0.032-0.163-0.071zM26.223 29.165c0.379-0.339 0.251-0.915-0.258-1.165-0.191-0.094-0.25-0.099-0.402-0.036-0.221 0.092-0.351 0.332-0.351 0.651 0 0.589 0.602 0.917 1.011 0.551zM28.337 29.082c0.394-0.148 0.877-0.599 0.938-0.877 0.037-0.168-0.167-0.781-0.258-0.777-0.020 0.001-0.144 0.068-0.274 0.148-0.179 0.11-0.32 0.146-0.574 0.147-0.282 0-0.343 0.019-0.374 0.117-0.039 0.123-0.599 0.657-0.689 0.657-0.107 0-0.048 0.234 0.105 0.417 0.276 0.328 0.579 0.374 1.128 0.168zM27.139 28.081c0.204-0.078 0.35-0.424 0.297-0.705-0.055-0.292-0.43-0.662-0.672-0.662-0.462 0-0.709 0.635-0.414 1.069 0.219 0.323 0.472 0.419 0.789 0.298zM28.465 27.343c0.218-0.113 0.337-0.355 0.33-0.671s-0.156-0.54-0.457-0.691c-0.181-0.090-0.252-0.097-0.419-0.042-0.286 0.095-0.406 0.256-0.438 0.588-0.063 0.655 0.46 1.088 0.984 0.816zM29.916 26.772c0.322-0.254 0.334-0.77 0.025-1.053-0.199-0.183-0.371-0.213-0.597-0.105-0.236 0.112-0.336 0.301-0.336 0.634 0 0.195 0.039 0.28 0.202 0.443 0.236 0.237 0.474 0.265 0.706 0.082zM23.483 27.105c0.081-0.542 0.198-0.901 0.459-1.402 0.449-0.861 1.044-1.431 1.952-1.869 0.557-0.269 0.837-0.353 1.409-0.422l0.341-0.041v-14.831l-0.371-0.040c-0.534-0.058-1.26-0.293-1.706-0.553-0.474-0.276-1.265-1.059-1.536-1.52-0.262-0.445-0.517-1.217-0.571-1.721l-0.043-0.401h-14.743l-0.041 0.372c-0.064 0.581-0.147 0.865-0.42 1.441-0.456 0.962-1.056 1.563-2.016 2.020-0.561 0.267-0.846 0.352-1.409 0.42l-0.341 0.041v14.727h0.151c0.325 0 1.087 0.199 1.507 0.393 0.937 0.433 1.648 1.132 2.11 2.073 0.244 0.497 0.444 1.219 0.444 1.602v0.151h14.757l0.065-0.44zM13.434 24.267c-0.219-0.193-0.242-0.199-0.883-0.231-0.504-0.025-0.72-0.063-0.925-0.162-0.19-0.092-0.38-0.129-0.658-0.13l-0.391-0.001-0.365-0.381c-0.234-0.244-0.353-0.413-0.331-0.471 0.031-0.080 0.365-0.277 0.47-0.277 0.023 0 0.192-0.093 0.377-0.206 0.39-0.24 1.090-0.498 1.54-0.568 0.368-0.057 0.473-0.12 0.872-0.518 0.321-0.321 0.411-0.359 1.305-0.55 0.635-0.136 0.768-0.178 1.275-0.405 1.378-0.617 1.249-0.526 2.386-1.672 1.397-1.408 1.413-1.44 1.492-2.968 0.077-1.493 0.003-2.472-0.22-2.919-0.347-0.697-0.672-1.258-0.841-1.455-0.189-0.219-0.638-0.447-0.88-0.447-0.081 0-0.316-0.044-0.523-0.097-0.517-0.133-1.559-0.085-1.967 0.092-0.158 0.068-0.358 0.124-0.445 0.124-0.292 0-0.878 0.335-1.344 0.768-0.249 0.231-0.474 0.421-0.499 0.421-0.071 0-0.184 0.284-0.184 0.463-0 0.088-0.053 0.335-0.118 0.547-0.084 0.277-0.118 0.558-0.118 0.993-0.001 0.802 0.131 1.172 0.571 1.607 0.174 0.172 0.346 0.312 0.384 0.312s0.226-0.080 0.418-0.178c0.193-0.098 0.387-0.178 0.432-0.178s0.094-0.033 0.108-0.074c0.030-0.087-0.212-0.759-0.348-0.966-0.051-0.079-0.077-0.169-0.058-0.201s0.248-0.14 0.507-0.24c0.531-0.205 0.892-0.23 1.341-0.094 0.16 0.049 0.377 0.089 0.482 0.089 0.136 0 0.211 0.039 0.261 0.132 0.039 0.072 0.145 0.211 0.236 0.309 0.19 0.203 0.248 0.316 0.355 0.689 0.042 0.147 0.101 0.3 0.131 0.34s0.037 0.174 0.016 0.298c-0.024 0.144-0.007 0.301 0.049 0.434 0.074 0.178 0.075 0.229 0.005 0.356-0.045 0.081-0.083 0.29-0.084 0.465-0.002 0.266-0.026 0.337-0.156 0.446-0.085 0.071-0.316 0.284-0.514 0.474s-0.469 0.408-0.603 0.486c-0.331 0.192-0.955 0.388-1.233 0.388-0.126 0-0.395 0.058-0.598 0.13-0.275 0.097-0.498 0.129-0.878 0.125-0.628-0.005-0.872-0.116-1.315-0.594-0.389-0.42-0.869-0.9-1.325-1.327-0.27-0.252-0.42-0.464-0.648-0.918-0.183-0.363-0.42-0.724-0.618-0.939-0.407-0.442-0.426-0.534-0.473-2.223-0.033-1.194-0.047-1.328-0.152-1.445-0.162-0.179-0.099-0.258 0.579-0.716 0.472-0.319 0.636-0.474 0.944-0.889 0.205-0.277 0.547-0.645 0.759-0.82 1.701-1.398 2.995-2.155 3.684-2.155 0.223 0 0.356 0.085 0.472 0.302 0.081 0.152 0.216 0.144 0.502-0.033 0.346-0.213 0.542-0.195 0.828 0.078 0.314 0.299 0.624 0.382 1.332 0.357l0.567-0.020 0.078 0.163c0.084 0.175 0.1 0.181 0.444 0.165 0.201-0.010 0.231 0.009 0.288 0.174 0.097 0.279 0.23 0.321 0.63 0.203 0.188-0.056 0.388-0.098 0.445-0.095 0.242 0.015 1.839 1.788 2.146 2.383 0.055 0.106 0.205 0.295 0.334 0.42 0.213 0.207 0.234 0.255 0.234 0.535 0 0.169 0.025 0.42 0.055 0.557s0.086 0.41 0.124 0.606c0.038 0.196 0.15 0.595 0.248 0.887 0.169 0.499 0.177 0.567 0.144 1.159-0.019 0.346-0.063 0.856-0.096 1.134s-0.080 0.695-0.104 0.927c-0.040 0.386-0.074 0.467-0.4 0.945-0.561 0.824-0.552 0.798-0.68 1.861-0.056 0.461-0.109 0.564-0.38 0.729-0.094 0.057-0.615 0.543-1.158 1.080-0.8 0.791-1.044 0.997-1.283 1.086-0.163 0.061-0.451 0.214-0.64 0.341s-0.456 0.282-0.593 0.344c-0.289 0.132-0.854 0.152-1.25 0.046-0.25-0.067-0.283-0.060-0.757 0.171-0.65 0.316-1.467 0.53-2.283 0.597-0.277 0.023-0.324 0.008-0.529-0.173zM5.546 8.168c0.652-0.203 1.137-0.505 1.666-1.035 0.537-0.538 0.832-1.018 1.043-1.699 0.115-0.37 0.138-0.572 0.135-1.189-0.003-0.653-0.023-0.8-0.168-1.218-0.242-0.699-0.477-1.073-1.012-1.61s-1.015-0.833-1.695-1.045c-0.369-0.115-0.571-0.138-1.186-0.136-0.652 0.003-0.799 0.023-1.216 0.168-0.698 0.243-1.071 0.478-1.606 1.014s-0.77 0.909-1.012 1.609c-0.145 0.418-0.165 0.565-0.167 1.218-0.003 0.617 0.020 0.819 0.135 1.189 0.193 0.621 0.49 1.129 0.94 1.607 0.607 0.644 1.27 1.026 2.125 1.222 0.507 0.116 1.488 0.070 2.017-0.095zM4.123 7.258c-1.461-0.882-2.216-1.867-2.538-3.31-0.092-0.414-0.123-1.607-0.045-1.753 0.054-0.101 0.166-0.14 0.58-0.204 0.282-0.043 0.581-0.099 0.664-0.124s0.31-0.078 0.506-0.117c0.196-0.040 0.412-0.098 0.48-0.13 0.152-0.071 0.978-0.031 1.3 0.063 0.268 0.079 0.525 0.131 1.335 0.271 0.951 0.164 0.846 0.069 0.81 0.734-0.115 2.134-0.707 3.224-2.36 4.343-0.475 0.322-0.543 0.343-0.733 0.228zM4.852 6.268c0.551-0.4 1.212-1.411 1.41-2.157 0.045-0.171 0.083-0.479 0.083-0.685 0.001-0.485-0.107-0.597-0.774-0.804-0.755-0.234-1.109-0.296-1.506-0.261-0.476 0.042-1.367 0.327-1.549 0.496-0.13 0.121-0.145 0.182-0.144 0.598 0.002 0.806 0.393 1.637 1.125 2.394 0.613 0.634 0.925 0.73 1.354 0.419zM4.35 6.133c-0.025-0.041-0.057-0.482-0.070-0.981l-0.024-0.907h0.84c0.689 0 0.846 0.016 0.873 0.088 0.095 0.249-1.216 1.873-1.513 1.873-0.033 0-0.080-0.033-0.106-0.074zM2.89 4.145c-0.247-0.065-0.429-0.795-0.261-1.051 0.102-0.156 0.643-0.366 1.108-0.429 0.227-0.031 0.285-0.017 0.385 0.094 0.099 0.109 0.121 0.235 0.14 0.779l0.022 0.648-0.644-0.008c-0.354-0.004-0.691-0.019-0.749-0.034zM28.475 8.197c1.239-0.235 2.29-1.047 2.847-2.199 0.972-2.010 0.141-4.403-1.868-5.379-2.006-0.974-4.394-0.141-5.368 1.872-0.814 1.682-0.374 3.679 1.076 4.884 0.438 0.364 1.169 0.707 1.742 0.817 0.823 0.158 0.763 0.158 1.572 0.004zM25.458 6.187c-0.251-0.183-0.68-0.872-0.543-0.872 0.033 0 0.060 0.022 0.060 0.048 0 0.157 0.788 0.727 0.879 0.636 0.012-0.012-0.063-0.145-0.166-0.296-0.932-1.357-0.535-3.063 0.875-3.761 0.416-0.206 0.492-0.224 0.959-0.224 0.353-0 0.6 0.034 0.811 0.113 0.634 0.236 1.204 0.804 1.45 1.447 0.138 0.36 0.189 1.13 0.098 1.461-0.040 0.143-0.033 0.16 0.048 0.115 0.052-0.029 0.173-0.171 0.269-0.316s0.174-0.223 0.174-0.174c-0 0.228-0.144 0.564-0.33 0.769-0.112 0.124-0.204 0.245-0.204 0.268 0 0.053 0.371-0.17 0.667-0.399 0.122-0.095 0.222-0.155 0.222-0.134 0 0.080-0.139 0.304-0.289 0.466l-0.156 0.168 0.178-0.040c0.177-0.040 0.176-0.039-0.051 0.129-0.219 0.162-0.223 0.17-0.091 0.202 0.13 0.031 0.127 0.037-0.062 0.116-0.173 0.072-0.185 0.089-0.087 0.127 0.076 0.030 0.084 0.045 0.024 0.048-0.138 0.005-0.263-0.091-0.183-0.14 0.037-0.023 0.052-0.065 0.034-0.094s0.021-0.081 0.086-0.116c0.065-0.035 0.104-0.1 0.087-0.145s0.057-0.184 0.165-0.308 0.157-0.202 0.108-0.173c-0.049 0.029-0.248 0.154-0.443 0.276s-0.364 0.213-0.377 0.2c-0.027-0.027 0.187-0.349 0.376-0.565 0.072-0.082 0.149-0.202 0.172-0.267 0.032-0.092-0.003-0.077-0.154 0.066-0.108 0.102-0.362 0.296-0.564 0.431s-0.408 0.304-0.458 0.376c-0.138 0.197-0.176 0.091-0.112-0.307 0.032-0.197 0.038-0.358 0.014-0.358s-0.126 0.147-0.228 0.327c-0.21 0.372-0.301 0.413-0.303 0.134-0.001-0.232-0.057-0.461-0.113-0.461-0.022 0-0.072 0.087-0.111 0.193s-0.124 0.28-0.189 0.387l-0.119 0.194-0.215-0.238c-0.249-0.276-0.315-0.297-0.275-0.089 0.016 0.082-0.002 0.186-0.040 0.231-0.088 0.106-0.605 0.095-0.738-0.016-0.077-0.064-0.098-0.065-0.098-0.005 0 0.051-0.039 0.041-0.119-0.032-0.099-0.089-0.119-0.092-0.119-0.017 0 0.050 0.053 0.158 0.119 0.241s0.119 0.181 0.119 0.218c0 0.101-0.351-0.095-0.614-0.344l-0.229-0.216 0.156 0.312c0.139 0.279 0.145 0.312 0.051 0.311-0.058-0.001-0.245-0.078-0.416-0.173-0.358-0.198-0.411-0.146-0.098 0.097 0.416 0.323 0.468 0.37 0.409 0.367-0.033-0.001-0.176-0.088-0.318-0.191zM28.035 5.157c0.199-0.846 0.020-1.58-0.578-2.383-0.128-0.172-0.254-0.312-0.281-0.312-0.073 0-0.245 0.852-0.245 1.214 0 0.391 0.203 1.076 0.359 1.21 0.063 0.054 0.115 0.133 0.115 0.175 0 0.128 0.427 0.563 0.49 0.5 0.031-0.031 0.093-0.213 0.138-0.404zM29.113 5.479c0.033-0.041 0.080-0.141 0.105-0.223 0.043-0.139 0.035-0.136-0.111 0.038-0.086 0.103-0.157 0.203-0.157 0.223 0 0.063 0.102 0.039 0.163-0.038zM28.623 5.315c0.051-0.098 0.069-0.178 0.041-0.178-0.044 0-0.189 0.253-0.189 0.33 0 0.075 0.066 0.008 0.148-0.151zM30.314 6.296c0.090-0.108 0.040-0.115-0.119-0.016-0.097 0.060-0.134 0.055-0.218-0.028-0.056-0.056-0.083-0.12-0.060-0.143s0.076 0.005 0.119 0.064c0.073 0.099 0.087 0.097 0.252-0.040 0.187-0.155 0.442-0.247 0.442-0.158 0 0.030-0.041 0.054-0.092 0.054s-0.137 0.080-0.193 0.178c-0.056 0.098-0.124 0.178-0.153 0.178s-0.019-0.040 0.022-0.089z"></path>
</svg>
