<!-- Generated by IcoMoon.io -->
<svg version="1.1" xmlns="http://www.w3.org/2000/svg" width="36" height="36" viewBox="0 0 36 36">
<title>eye</title>
<path d="M18 6.75c-7.851 0-14.656 4.572-18 11.25 3.344 6.678 10.149 11.25 18 11.25s14.656-4.572 18-11.25c-3.344-6.678-10.149-11.25-18-11.25zM26.875 12.716c2.115 1.349 3.907 3.156 5.254 5.284-1.346 2.128-3.139 3.935-5.254 5.284-2.658 1.695-5.727 2.591-8.875 2.591s-6.218-0.896-8.875-2.591c-2.115-1.349-3.907-3.156-5.253-5.284 1.346-2.128 3.139-3.935 5.254-5.284 0.138-0.088 0.277-0.173 0.417-0.257-0.35 0.961-0.542 1.998-0.542 3.080 0 4.97 4.029 9 9 9s9-4.030 9-9c0-1.082-0.192-2.119-0.542-3.080 0.14 0.084 0.279 0.169 0.417 0.257v0zM18 14.625c0 1.864-1.511 3.375-3.375 3.375s-3.375-1.511-3.375-3.375 1.511-3.375 3.375-3.375 3.375 1.511 3.375 3.375z"></path>
</svg>
