<!-- Generated by IcoMoon.io -->
<svg version="1.1" xmlns="http://www.w3.org/2000/svg" width="36" height="36" viewBox="0 0 36 36">
<title>fire</title>
<path d="M11.285 36c-2.399-4.992-1.122-7.853 0.722-10.548 2.019-2.952 2.54-5.873 2.54-5.873s1.587 2.064 0.952 5.291c2.804-3.122 3.334-8.096 2.91-10.001 6.339 4.43 9.048 14.022 5.397 21.131 19.419-10.987 4.83-27.428 2.291-29.28 0.847 1.852 1.007 4.987-0.703 6.508-2.895-10.978-10.054-13.228-10.054-13.228 0.847 5.662-3.069 11.853-6.845 16.479-0.133-2.258-0.274-3.815-1.461-5.976-0.266 4.101-3.401 7.444-4.249 11.553-1.15 5.565 0.861 9.639 8.499 13.944z"></path>
</svg>
