<!-- Generated by IcoMoon.io -->
<svg version="1.1" xmlns="http://www.w3.org/2000/svg" width="32" height="32" viewBox="0 0 32 32">
<title>grimy-goons</title>
<path d="M4.917 30.127c-2.21-2.096-2.723-2.987-2.137-3.715 0.763-0.949 1.755-0.552 3.863 1.547 2.134 2.125 2.53 3.137 1.46 3.728-0.914 0.504-1.109 0.409-3.185-1.56zM25.77 31.636c-0.509-0.525-0.431-1.478 0.202-2.468 0.659-1.031 3.051-3.119 3.887-3.392 0.698-0.229 1.729 0.596 1.729 1.383 0 0.676-4.247 4.84-4.937 4.84-0.29 0-0.687-0.164-0.881-0.364zM8.007 27.064c-0.769-0.702-1.397-1.388-1.396-1.524 0.005-0.523 4.821-5.926 5.121-5.746 0.174 0.105 1.092 0.8 2.039 1.545l1.723 1.354-2.898 2.82c-1.594 1.551-2.964 2.821-3.045 2.823s-0.776-0.571-1.545-1.273zM15.869 21.347l-8.814-6.956-3.039 3.51-0.202-0.83c-0.113-0.464 0.005-1.775 0.268-2.976 0.556-2.539 0.327-3.308-0.985-3.308-0.469 0-1.214 0.142-1.656 0.315-2.143 0.84-1.815-0.711 0.454-2.151 1.009-0.641 1.463-1.146 1.583-1.762 0.398-2.055 2.876-3.68 4.909-3.219 0.703 0.159 1.156-0.058 2.753-1.32 1.932-1.527 3.003-2.080 3.347-1.726 0.103 0.107 0.025 0.426-0.175 0.71-0.676 0.961-1.245 2.493-1.403 3.78l-0.158 1.282 7.363 9.229c4.049 5.076 7.363 9.308 7.363 9.406s-0.628 0.806-1.396 1.575l-1.396 1.398-8.814-6.956zM20.452 14.157l-2.354-2.998 1.022-1.474c1.209-1.743 1.192-2.437-0.081-3.319-0.519-0.36-0.86-0.739-0.759-0.844 0.287-0.296 1.668-0.224 2.683 0.141 0.834 0.3 1.034 0.239 2.101-0.632 1.010-0.825 1.179-1.13 1.179-2.13 0-0.642-0.127-1.512-0.283-1.934-0.715-1.94 1.242-0.717 2.362 1.477 0.467 0.915 0.964 1.458 1.446 1.582 2.041 0.524 2.938 1.939 2.938 4.636 0 1.41 0.148 2.052 0.628 2.721 0.576 0.804 0.889 3.091 0.48 3.513-0.081 0.084-0.615-0.329-1.186-0.918-1.189-1.227-1.943-1.344-2.741-0.428-0.558 0.641-3.211 2.586-4.437 3.252-0.597 0.325-0.819 0.129-2.999-2.647z"></path>
</svg>
