<!-- Generated by IcoMoon.io -->
<svg version="1.1" xmlns="http://www.w3.org/2000/svg" width="36" height="36" viewBox="0 0 36 36">
<title>hall-of-fame</title>
<path d="M15.756 32.552c-1.625-2.802-2.333-3.714-3.264-4.202-1.172-0.615-1.221-0.614-3.394 0.037-1.213 0.364-2.278 0.587-2.368 0.497s0.147-1.175 0.526-2.411c0.988-3.217 0.679-3.739-3.774-6.392l-3.482-2.074 3.526-2.091c4.481-2.657 4.672-2.978 3.704-6.257-0.396-1.342-0.648-2.513-0.56-2.602s1.248 0.157 2.578 0.546c2.367 0.692 2.439 0.694 3.465 0.101 0.723-0.418 1.69-1.707 3.117-4.155l2.069-3.549 2.1 3.535c1.359 2.288 2.452 3.742 3.098 4.122 0.966 0.568 1.062 0.565 3.031-0.104 1.118-0.38 2.104-0.619 2.192-0.531s-0.086 1.141-0.386 2.341c-0.544 2.179-0.543 2.183 0.231 3.33 0.511 0.756 1.981 1.859 4.305 3.23l3.53 2.082-3.694 2.212c-3.030 1.814-3.804 2.439-4.304 3.473-0.599 1.239-0.598 1.295 0.061 3.26 0.369 1.099 0.6 1.999 0.514 1.999s-1.1-0.238-2.252-0.53c-1.997-0.505-2.146-0.5-3.158 0.094-0.711 0.418-1.724 1.736-3.067 3.988-1.103 1.851-2.065 3.424-2.138 3.497s-1.065-1.478-2.207-3.446zM17.817 24.688c0.551-0.174 1.41-0.4 1.909-0.501 1.107-0.225 3.501-2.338 3.501-3.089 0-0.3 0.24-0.891 0.534-1.313 0.878-1.261 0.42-5.058-0.793-6.578-1.201-1.504-2.827-2.285-5.204-2.497-2.079-0.186-2.524 0.014-4.942 2.221-1.098 1.002-1.349 1.448-1.349 2.398 0 2.456 2.308 5.407 4.227 5.405 1.75-0.002 3.282-1.072 3.282-2.294 0-1.038-0.972-2.305-1.769-2.305-0.952 0-1.422 0.377-1.258 1.007 0.196 0.754-0.317 0.839-0.887 0.147-0.252-0.305-0.325-0.91-0.195-1.609 0.159-0.851 0.474-1.247 1.311-1.646 2.718-1.298 4.431-0.155 4.431 2.957 0 1.484-0.152 1.926-0.996 2.893-0.548 0.628-1.539 1.317-2.204 1.532s-1.575 0.581-2.024 0.812c-0.449 0.232-1.299 0.603-1.89 0.824-1.396 0.524-1.189 1.041 0.608 1.518 1.844 0.491 2.472 0.511 3.707 0.12z"></path>
</svg>
