<!-- Generated by IcoMoon.io -->
<svg version="1.1" xmlns="http://www.w3.org/2000/svg" width="31" height="36" viewBox="0 0 31 36">
<title>hl-logo</title>
<path d="M7.734 31.54l-7.734-4.487 0.040-18.145 4.827-2.764c2.655-1.52 6.137-3.524 7.739-4.454l2.911-1.69 2.911 1.69c1.601 0.93 5.084 2.934 7.739 4.454l4.827 2.764 0.040 18.145-7.695 4.46c-4.232 2.453-7.735 4.472-7.784 4.487s-3.569-1.992-7.823-4.46zM22.396 29.891l6.807-3.959 0.051-15.876-5.251-3.004c-2.888-1.652-5.96-3.42-6.828-3.929s-1.613-0.925-1.658-0.925c-0.045 0-0.791 0.416-1.658 0.925s-3.94 2.277-6.828 3.929l-5.251 3.004 0.051 15.876 6.768 3.949c3.723 2.172 6.818 3.953 6.879 3.959s3.174-1.772 6.918-3.949zM9.077 29.052l-6.391-3.686-0.004-7.299-0.004-7.299 6.353-3.689c3.494-2.029 6.413-3.689 6.486-3.689s2.992 1.66 6.486 3.689l6.353 3.689-0.004 7.299-0.004 7.299-6.381 3.671c-3.51 2.019-6.408 3.678-6.441 3.686s-2.935-1.644-6.45-3.671zM15.521 30.476h0.195v1.767l0.523-0.267c0.287-0.147 3.064-1.733 6.171-3.524l5.649-3.257v-14.061l-0.523 0.305c-0.287 0.168-0.668 0.393-0.846 0.502l-0.324 0.197 0.001-0.363 1.592-0.912-6.176-3.587c-3.397-1.973-6.217-3.587-6.267-3.587s-2.87 1.614-6.266 3.587l-6.176 3.587 1.592 0.912 0.001 0.363-0.323-0.197c-0.178-0.108-0.559-0.334-0.846-0.502l-0.523-0.305v14.061l5.649 3.257c3.107 1.792 5.872 3.371 6.146 3.51l0.498 0.252 0.057-1.738h0.195zM15.368 19.143v-1.015l-1.641-0.996-0.001-0.343 1.792 1.083 1.792-1.083-0.001 0.343-1.641 0.996v2.030h-0.299v-1.015z"></path>
</svg>
