<!-- Generated by IcoMoon.io -->
<svg version="1.1" xmlns="http://www.w3.org/2000/svg" width="36" height="36" viewBox="0 0 36 36">
<title>image</title>
<path d="M33.746 4.5c0.001 0.001 0.003 0.003 0.004 0.004v26.992c-0.001 0.001-0.003 0.003-0.004 0.004h-31.492c-0.001-0.001-0.003-0.003-0.004-0.004v-26.992c0.001-0.001 0.003-0.003 0.004-0.004h31.492zM33.75 2.25h-31.5c-1.238 0-2.25 1.012-2.25 2.25v27c0 1.238 1.012 2.25 2.25 2.25h31.5c1.238 0 2.25-1.012 2.25-2.25v-27c0-1.238-1.012-2.25-2.25-2.25v0z"></path>
<path d="M29.25 10.125c0 1.864-1.511 3.375-3.375 3.375s-3.375-1.511-3.375-3.375 1.511-3.375 3.375-3.375 3.375 1.511 3.375 3.375z"></path>
<path d="M31.5 29.25h-27v-4.5l7.875-13.5 9 11.25h2.25l7.875-6.75z"></path>
</svg>
