<!-- Generated by IcoMoon.io -->
<svg version="1.1" xmlns="http://www.w3.org/2000/svg" width="32" height="32" viewBox="0 0 32 32">
<title>jade-lotus</title>
<path d="M13.123 27.921c-0.643-0.558-1.713-1.050-2.942-1.353-3.718-0.917-6.152-2.922-6.951-5.725-0.202-0.71-0.388-2.859-0.413-4.777-0.052-4.050-0.478-5.524-2.025-7.008-0.943-0.904-0.967-0.974-0.473-1.368 0.762-0.609 3.651-0.518 5.012 0.158 1.548 0.768 3.095 2.313 3.776 3.771 0.459 0.982 0.528 1.489 0.356 2.605-0.117 0.763-0.217 2.205-0.22 3.205-0.009 2.364 0.629 3.678 3.018 6.214 1.826 1.939 2.628 3.323 2.628 4.537 0 0.855-0.579 0.77-1.767-0.261zM17.225 27.509c0.156-1.081 0.536-1.678 2.366-3.713 1.199-1.334 2.404-2.903 2.677-3.486 0.529-1.13 0.643-3.623 0.276-6.063-0.146-0.97-0.083-1.678 0.218-2.45 0.516-1.326 2.336-3.171 3.886-3.939 1.381-0.685 4.264-0.781 5.032-0.167 0.494 0.394 0.47 0.464-0.473 1.368-1.561 1.497-1.97 2.945-2.022 7.159-0.037 3.034-0.147 3.889-0.662 5.153-1.14 2.799-3.081 4.303-6.705 5.197-1.229 0.303-2.299 0.795-2.942 1.353-1.475 1.28-1.881 1.178-1.652-0.412zM15.674 24.258c-0.38-0.421-1.214-1.218-1.852-1.772-1.631-1.413-2.35-3.079-2.379-5.511-0.021-1.787 0.122-2.308 1.54-5.608 0.86-2.001 1.844-4.593 2.188-5.76s0.69-2.245 0.769-2.394c0.079-0.15 0.601 1.010 1.16 2.577s1.679 4.243 2.489 5.947c1.687 3.547 1.946 5.011 1.31 7.401-0.369 1.385-0.762 1.98-2.486 3.766l-2.048 2.12-0.691-0.766zM10.253 10.587c-0.489-0.345-0.951-0.856-1.027-1.136-0.118-0.438-0.258-3.437-0.189-4.056 0.054-0.484 1.674 0.472 2.651 1.565 1.181 1.321 1.198 2.093 0.077 3.482l-0.623 0.771-0.89-0.626zM20.18 10.411c-1.061-1.473-1.035-2.145 0.132-3.451 0.977-1.093 2.598-2.050 2.65-1.565 0.097 0.903-0.112 3.919-0.298 4.293-0.127 0.256-0.607 0.706-1.066 0.999-0.828 0.529-0.84 0.526-1.419-0.277z"></path>
</svg>
