<!-- Generated by IcoMoon.io -->
<svg version="1.1" xmlns="http://www.w3.org/2000/svg" width="32" height="32" viewBox="0 0 32 32">
<title>kabal</title>
<path d="M12.99 31.525c-1.002-0.296-2.654-1.033-3.67-1.638-5.622-3.345-7.833-9.98-5.253-15.761l0.86-1.927-0.877-0.934c-0.707-0.753-1.083-0.918-1.945-0.851-0.808 0.062-1.195-0.080-1.591-0.586-0.685-0.876-0.659-1.472 0.1-2.337 0.61-0.695 0.61-0.723 0.007-1.426-0.338-0.394-0.618-0.867-0.622-1.051-0.015-0.696 2.963-3.253 4.822-4.142 2.33-1.113 2.658-1.133 3.62-0.214 0.65 0.62 0.946 0.691 2.287 0.549 1.324-0.141 1.64-0.069 2.242 0.511 0.77 0.74 0.861 1.21 0.39 1.999-0.23 0.386-0.115 0.776 0.447 1.511 0.752 0.984 0.773 0.99 2.998 0.9 4.242-0.171 7.967 1.103 10.895 3.727 7.097 6.358 5.132 16.981-3.878 20.973-2.258 1.001-2.679 1.086-5.724 1.159-2.503 0.060-3.721-0.050-5.109-0.46zM26.908 23.954c0.786-0.571 1.422-1.565 1.422-2.222 0-0.391-0.13-0.394-1.13-0.019-0.621 0.233-1.721 0.423-2.443 0.423-1.237 0-1.313 0.050-1.313 0.861 0 1.417 2.050 1.983 3.463 0.957zM26.61 19.609c0.733-0.321 1.487-0.967 1.862-1.595 0.618-1.034 0.618-1.086 0.027-2.482-0.744-1.756-4.23-4.975-6.396-5.904-0.827-0.355-2.309-0.797-3.294-0.982-3.723-0.7-8.44 1.155-10.823 4.257-1.604 2.088-1.82 3.407-0.718 4.395 0.517 0.464 1.202 0.751 1.788 0.751 0.848 0 0.994-0.141 1.36-1.314 0.226-0.723 0.455-1.314 0.509-1.314s0.815 0.624 1.69 1.387c1.844 1.607 4.353 2.907 6.342 3.285 2.119 0.402 6.223 0.143 7.654-0.483zM7.825 9.165c0.679-0.55 1.831-1.305 2.561-1.679 1.49-0.763 1.568-0.972 0.728-1.951l-0.59-0.688-1.438 0.655c-1.755 0.799-2.732 1.467-3.614 2.472l-0.671 0.764 0.747 0.713c0.411 0.392 0.814 0.713 0.895 0.713s0.703-0.45 1.382-0.999z"></path>
</svg>
