<!-- Generated by IcoMoon.io -->
<svg version="1.1" xmlns="http://www.w3.org/2000/svg" width="23" height="36" viewBox="0 0 23 36">
<title>knights-of-the-frozen-throne</title>
<path d="M2.947 34.998c-1.995-0.836-2.341-1.019-2.338-1.237 0.001-0.164 0.309-0.519 0.851-0.986 0.466-0.401 0.848-0.799 0.848-0.884 0-0.287-0.575-1.783-1.249-3.251-0.854-1.859-1.062-2.573-1.059-3.64 0.003-0.923 0.193-1.477 0.866-2.528l0.368-0.574-0.454-1.615c-0.25-0.888-0.452-1.877-0.45-2.196 0.004-0.691 0.242-1.088 1.502-2.516 0.862-0.976 0.868-0.989 0.643-1.238-0.125-0.139-0.542-0.411-0.927-0.605-0.416-0.21-0.699-0.433-0.699-0.549 0-0.108 0.6-0.767 1.334-1.465s1.612-1.635 1.951-2.082c0.799-1.052 1.584-2.675 2.071-4.279 0.213-0.702 0.503-1.523 0.644-1.824 0.243-0.521 0.258-0.531 0.298-0.213 0.023 0.184-0.042 1.005-0.146 1.824-0.599 4.758-0.587 6.661 0.047 7.689 0.132 0.214 0.542 0.675 0.911 1.023 0.571 0.54 0.705 0.614 0.91 0.504 0.577-0.309 0.553-2.174-0.045-3.481-0.583-1.274-0.85-2.747-0.856-4.731-0.006-2.053 0.074-2.437 0.998-4.773 0.403-1.017 0.596-1.368 0.755-1.368 0.191 0 0.22 0.196 0.28 1.915 0.081 2.325 0.267 3.010 1.026 3.77 0.284 0.284 0.574 0.517 0.644 0.517s0.36-0.233 0.644-0.517c0.759-0.76 0.945-1.445 1.026-3.77 0.060-1.72 0.088-1.915 0.28-1.915 0.159 0 0.352 0.351 0.755 1.368 0.924 2.336 1.005 2.721 0.998 4.773-0.006 1.984-0.272 3.458-0.856 4.731-0.598 1.306-0.622 3.172-0.045 3.481 0.205 0.11 0.339 0.036 0.91-0.504 0.368-0.348 0.778-0.809 0.911-1.023 0.635-1.027 0.647-2.93 0.047-7.689-0.103-0.82-0.169-1.641-0.146-1.824 0.040-0.318 0.055-0.307 0.298 0.213 0.141 0.301 0.43 1.122 0.644 1.824 0.487 1.604 1.273 3.227 2.071 4.279 0.34 0.447 1.218 1.384 1.951 2.082s1.334 1.357 1.334 1.465c0 0.117-0.283 0.339-0.699 0.549-0.385 0.194-0.802 0.467-0.927 0.605-0.225 0.25-0.219 0.262 0.643 1.238 1.26 1.428 1.497 1.825 1.502 2.516 0.003 0.319-0.2 1.308-0.45 2.196l-0.454 1.615 0.368 0.574c0.673 1.051 0.863 1.605 0.866 2.528 0.003 1.067-0.205 1.781-1.059 3.64-0.674 1.468-1.25 2.964-1.249 3.251 0 0.085 0.382 0.483 0.848 0.884 1.274 1.096 1.301 1.058-1.548 2.235-1.321 0.546-2.522 0.991-2.67 0.99-0.343-0.003-3.091-2.633-3.526-3.375-0.275-0.47-0.306-0.631-0.254-1.358 0.047-0.661 0.159-1.014 0.561-1.782l0.502-0.958-0.281-0.308c-0.155-0.17-0.875-0.965-1.6-1.768s-1.354-1.459-1.398-1.459c-0.043 0-0.672 0.657-1.398 1.459s-1.445 1.598-1.6 1.768l-0.281 0.308 0.502 0.958c0.402 0.768 0.514 1.121 0.561 1.782 0.052 0.727 0.022 0.888-0.254 1.358-0.172 0.293-0.975 1.172-1.785 1.953-1.164 1.122-1.541 1.418-1.801 1.411-0.181-0.004-1.382-0.451-2.67-0.991zM7.515 24.942c0.112-0.061 0.411-0.274 0.664-0.475l0.459-0.365-2.283-1.774c-2.584-2.008-2.598-2.010-2.054-0.266 0.312 1 1.005 2.213 1.547 2.71 0.556 0.509 0.961 0.55 1.667 0.171zM17.497 24.771c0.542-0.494 1.235-1.709 1.547-2.709 0.544-1.744 0.53-1.742-2.054 0.266l-2.283 1.774 0.459 0.37c1.046 0.842 1.651 0.92 2.331 0.3z"></path>
</svg>
