<!-- Generated by IcoMoon.io -->
<svg version="1.1" xmlns="http://www.w3.org/2000/svg" width="32" height="32" viewBox="0 0 32 32">
<title>kraken</title>
<path d="M10.451 31.336c-0.266-0.452-0.255-1.209 0.023-1.683 0.365-0.619 0.66-0.603 1.050 0.059 0.352 0.598 1.1-0.070 2.133-1.908 1.756-3.123 2.509-3.028 4.266 0.538 0.821 1.666 1.358 2.101 1.757 1.424 0.44-0.748 0.702-0.758 1.122-0.046 0.756 1.284-0.738 2.664-2.232 2.063-0.675-0.272-1.592-1.507-2.037-2.744l-0.81-2.25-1.165 2.444c-1.197 2.51-3.249 3.56-4.107 2.103zM3.122 27.535c-2.223-2.577-1.18-7.138 1.632-7.138 0.891 0 0.865 0.249-0.148 1.423-1.45 1.681-1.571 3.353-0.338 4.648 1.482 1.555 2.508 1.055 2.477-1.206-0.024-1.753 0.295-2.14 1.764-2.14 0.986 0 1.944 0.475 2.128 1.055 0.249 0.784-0.116 0.911-1.422 0.496-1.35-0.429-1.562-0.342-0.915 0.373 1.369 1.516 4.318 0.654 4.588-1.34 0.189-1.395-0.122-1.751-1.529-1.751-0.971 0-2.53-0.746-3.463-1.659-1.486-1.452-1.641-2.155-1.247-5.643 0.505-4.47-0.377-6.943-1.905-5.34-0.699 0.734-0.707 0.966-0.031 0.966 0.49 0 0.89 0.35 0.89 0.778 0 1.233-2.226 0.904-2.703-0.399-0.547-1.496 1.001-3.493 2.708-3.493 2.345 0 3.7 3.304 3.194 7.789-0.431 3.821 0.17 5.382 2.092 5.431 0.983 0.025 1.107-3.796 0.18-5.549-0.533-1.008-0.981-3.335-0.995-5.171-0.022-2.808 0.42-3.84 2.786-6.501l2.812-3.163 2.752 3.196c2.267 2.633 2.751 3.777 2.747 6.501-0.003 1.818-0.424 4.181-0.937 5.251-0.931 1.943-0.889 5.459 0.066 5.436 1.957-0.046 2.561-1.588 2.127-5.431-0.506-4.485 0.848-7.789 3.194-7.789 1.707 0 3.255 1.997 2.708 3.493-0.477 1.303-2.703 1.632-2.703 0.399 0-0.428 0.401-0.778 0.89-0.778 0.676 0 0.668-0.233-0.031-0.966-1.51-1.584-2.432 0.859-1.914 5.073 0.593 4.822-0.934 7.568-4.207 7.568-1.919 0-2.224 0.264-2.023 1.751 0.173 1.275 0.816 1.821 2.367 2.007 1.172 0.14 2.507-0.162 2.967-0.671 0.64-0.709 0.424-0.796-0.92-0.368-1.305 0.415-1.672 0.287-1.426-0.496 0.182-0.58 1.058-1.167 1.946-1.304 1.945-0.3 2.905 1.723 1.6 3.372-0.756 0.956-0.668 1.158 0.51 1.158 3.035 0 4.13-3.088 1.979-5.582-1.013-1.174-1.039-1.423-0.148-1.423 3.074 0 3.953 5.335 1.211 7.35-1.845 1.356-5.028 1.63-5.028 0.433 0-0.428-0.988-0.778-2.195-0.778-1.417 0-2.836-0.725-4.002-2.044l-1.806-2.044-1.276 2.044c-0.962 1.54-1.895 2.044-3.787 2.044-1.381 0-2.511 0.35-2.511 0.778 0 1.324-3.411 0.857-4.707-0.645zM13.9 18.671c-0.532-0.558-0.878-0.604-0.878-0.117 0 0.442 0.223 1.038 0.495 1.323s0.667 0.338 0.878 0.117c0.211-0.221-0.011-0.817-0.495-1.323zM18.215 18.748c0-0.428-0.334-0.562-0.742-0.297s-0.742 0.831-0.742 1.259c0 0.428 0.334 0.562 0.742 0.297s0.742-0.831 0.742-1.259z"></path>
</svg>
