<!-- Generated by IcoMoon.io -->
<svg version="1.1" xmlns="http://www.w3.org/2000/svg" width="36" height="36" viewBox="0 0 36 36">
<title>link</title>
<path d="M15.477 22.351c-0.468 0-0.936-0.178-1.293-0.535-3.345-3.345-3.345-8.787 0-12.131l6.75-6.75c1.62-1.62 3.774-2.512 6.066-2.512s4.445 0.892 6.066 2.512c3.344 3.345 3.344 8.787 0 12.131l-3.086 3.086c-0.714 0.714-1.871 0.714-2.585 0s-0.714-1.871 0-2.585l3.086-3.086c1.919-1.919 1.919-5.042 0-6.961-0.93-0.93-2.166-1.442-3.48-1.442s-2.551 0.512-3.48 1.442l-6.75 6.75c-1.919 1.919-1.919 5.042 0 6.961 0.714 0.714 0.714 1.871 0 2.585-0.357 0.357-0.825 0.535-1.293 0.535z"></path>
<path d="M9 35.578c-2.291 0-4.446-0.892-6.066-2.512-3.345-3.345-3.345-8.787 0-12.131l3.085-3.085c0.714-0.714 1.872-0.714 2.585 0s0.714 1.871 0 2.585l-3.085 3.085c-1.919 1.919-1.919 5.042 0 6.961 0.93 0.93 2.166 1.441 3.48 1.441s2.551-0.512 3.48-1.442l6.75-6.75c1.919-1.919 1.919-5.042 0-6.961-0.714-0.714-0.714-1.871 0-2.585s1.871-0.714 2.585 0c3.344 3.345 3.344 8.787 0 12.131l-6.75 6.75c-1.62 1.62-3.775 2.512-6.066 2.512z"></path>
</svg>
