<!-- Generated by IcoMoon.io -->
<svg version="1.1" xmlns="http://www.w3.org/2000/svg" width="32" height="32" viewBox="0 0 32 32">
<title>login</title>
<path d="M0.699 31.915c-0.327-0.151-0.628-0.544-0.692-0.903-0.064-0.365 0.336-2.399 0.699-3.551 0.325-1.032 0.946-2.497 1.367-3.224 0.131-0.227 0.737-1.207 0.914-1.48 0.079-0.121 0.347-0.479 0.807-1.079 0.533-0.695 1.881-2.022 2.614-2.575 0.167-0.126 0.315-0.244 0.329-0.264s0.187-0.143 0.384-0.274 0.472-0.318 0.612-0.415c0.139-0.097 0.373-0.243 0.52-0.325l0.266-0.148 0.376 0.355c1.030 0.973 2.221 1.755 3.319 2.179 1.838 0.71 3.62 0.904 5.451 0.594 0.633-0.107 1.67-0.387 1.911-0.516 0.075-0.040 0.203-0.090 0.284-0.111 0.173-0.044 1.232-0.596 1.567-0.816 0.637-0.419 1.126-0.806 1.679-1.328l0.374-0.353 0.215 0.119c0.723 0.4 1.761 1.154 2.59 1.881 0.512 0.449 1.634 1.61 1.915 1.982 0.090 0.119 0.29 0.383 0.446 0.587 0.318 0.418 0.309 0.405 0.77 1.141 0.996 1.589 1.716 3.279 2.166 5.078 0.211 0.846 0.45 2.288 0.417 2.518-0.054 0.376-0.358 0.779-0.705 0.933-0.17 0.075-1.774 0.084-15.302 0.082-13.383-0.001-15.133-0.012-15.291-0.084zM15.464 19.403c-1.955-0.119-3.781-0.893-5.328-2.26-0.385-0.34-1.055-1.059-1.297-1.393-0.274-0.378-0.514-0.74-0.514-0.777 0-0.022-0.032-0.074-0.070-0.115-0.123-0.13-0.577-1.083-0.771-1.617-0.437-1.202-0.615-2.267-0.605-3.619 0.016-2.178 0.593-4.003 1.821-5.765 0.324-0.464 1.426-1.664 1.729-1.881 1.274-0.915 2.017-1.302 3.176-1.652 1.391-0.421 3.383-0.431 4.726-0.024 1.178 0.357 1.915 0.736 3.193 1.642 0.117 0.083 0.469 0.414 0.782 0.734 1.491 1.529 2.422 3.418 2.737 5.554 0.096 0.648 0.108 2.092 0.023 2.779-0.287 2.34-1.442 4.568-3.162 6.099-1.114 0.991-2.262 1.626-3.624 2.004-0.833 0.231-1.934 0.345-2.815 0.292z"></path>
</svg>
