<!-- Generated by IcoMoon.io -->
<svg version="1.1" xmlns="http://www.w3.org/2000/svg" width="32" height="32" viewBox="0 0 32 32">
<title>mammoth</title>
<path d="M11.11 31.612c-1.397-0.498-1.852-0.96-2.118-2.154-0.28-1.254 0.006-2.226 1.043-3.546 1.128-1.435 1.293-2.114 0.8-3.293-0.757-1.813-2.703-2.408-3.16-0.967-0.132 0.415-0.029 0.716 0.332 0.98 0.455 0.333 0.581 0.303 0.983-0.231 0.651-0.863 1.103-0.433 1.103 1.050 0 2.502-2.386 3.537-4.271 1.852-0.749-0.669-0.915-1.049-1.022-2.341-0.114-1.376-0.042-1.643 0.665-2.484 1.571-1.867 4.276-2.304 5.665-0.914 1.511 1.512 2.453 3.659 2.62 5.974 0.117 1.625 0.251 2.116 0.576 2.116 0.317 0 0.444-0.406 0.508-1.622 0.090-1.728 0.254-1.876 1.31-1.184 1.259 0.825 1.042-0.103-0.228-0.977-2.156-1.483-4.125-4.319-4.4-6.336-0.174-1.277-0.858-1.777-0.858-0.627 0 0.613-0.128 0.729-0.804 0.729-1.224 0-2.556 0.532-4.342 1.733-1.864 1.254-2.492 1.339-3.343 0.454-2.438-2.534-2.911-8.79-0.955-12.626 0.867-1.701 2.393-3.428 3.604-4.081 0.939-0.505 1.029-0.508 1.723-0.054 0.582 0.381 0.732 0.707 0.732 1.585 0 1.226-0.424 1.744-0.704 0.861-0.267-0.84-0.843-0.695-1.787 0.449-1.069 1.297-1.6 3.148-1.57 5.472 0.032 2.447 0.543 4.144 1.552 5.153 0.77 0.77 0.878 0.801 1.458 0.417 0.515-0.34 0.652-0.754 0.768-2.311 0.122-1.641 0.249-1.989 0.937-2.581 0.743-0.638 0.783-0.783 0.611-2.164-0.151-1.212-0.087-1.607 0.354-2.183 0.297-0.387 0.762-1.275 1.035-1.973 0.534-1.368 1.709-3.087 2.392-3.501 0.233-0.141 0.979-0.769 1.658-1.395 0.998-0.92 1.285-1.060 1.493-0.731 0.142 0.224 0.26 0.491 0.262 0.592s0.671 0.267 1.486 0.368c2.836 0.349 3.073 0.436 2.991 1.096-0.041 0.335 0.255 1.18 0.659 1.878s0.83 1.585 0.945 1.971c0.116 0.386 0.519 1.167 0.895 1.736 0.631 0.953 0.657 1.126 0.336 2.197-0.329 1.098-0.308 1.205 0.386 1.932 0.974 1.021 1.385 2.185 1.173 3.317-0.134 0.715-0.040 1.060 0.413 1.513 0.826 0.826 1.813 0.318 2.634-1.353 0.525-1.068 0.637-1.769 0.639-3.977 0.003-2.373-0.089-2.867-0.795-4.304-0.991-2.018-1.768-2.53-2.489-1.64l-0.503 0.621-0.182-0.724c-0.447-1.78 0.666-3.026 2.151-2.411 1.201 0.497 3.309 2.895 4.138 4.704 1.050 2.293 1.226 6.052 0.41 8.738-0.642 2.113-2.046 4.032-3.499 4.784-0.47 0.243-1.778 0.53-2.905 0.638l-2.050 0.196-0.34-2.127c-0.346-2.16-1.011-4.172-1.288-3.895-0.084 0.084 0.059 1.196 0.318 2.472 0.681 3.361 0.475 5.125-0.932 7.957-1.234 2.484-2.897 4.411-4.441 5.143-1.144 0.543-3.293 0.555-4.773 0.028zM15.736 12.419c1.057 0 1.53 0.155 2.093 0.684 0.602 0.565 0.728 0.601 0.728 0.207 0-0.814-1.67-1.644-3.029-1.506-1.392 0.141-2.614 0.851-2.614 1.517 0 0.377 0.139 0.335 0.728-0.218 0.563-0.529 1.037-0.684 2.093-0.684zM12.633 11.657c0-0.446-1.707-2.2-2.141-2.2-0.471 0-0.629 0.547-0.47 1.622 0.13 0.875 0.193 0.917 1.373 0.917 0.776 0 1.238-0.127 1.238-0.339zM21.484 11.361c0.309-1.152 0.201-1.905-0.274-1.905-0.508 0-2.37 1.751-2.37 2.229 0 0.179 0.525 0.31 1.237 0.31 1.044 0 1.263-0.099 1.407-0.635zM17.147 10.578c0-0.538-1.396-0.869-2.064-0.489-0.575 0.327-0.53 0.362 0.653 0.522 0.698 0.094 1.301 0.19 1.34 0.213s0.070-0.088 0.070-0.247z"></path>
</svg>
