<!-- Generated by IcoMoon.io -->
<svg version="1.1" xmlns="http://www.w3.org/2000/svg" width="37" height="32" viewBox="0 0 37 32">
<title>mana-4</title>
<path d="M4.621 23.996l-4.621-8.004 0.356-0.616c0.196-0.339 2.274-3.937 4.617-7.996l4.261-7.38 18.562 0.041 4.59 7.949c2.524 4.372 4.59 7.973 4.59 8.003s-2.068 3.634-4.595 8.010l-4.595 7.956-18.546 0.041-4.621-8.004zM23.696 24.12v-0.76h-1.6v-3.435l2.040-0.045 0.335-0.96c0.184-0.528 0.337-1.002 0.34-1.054 0.004-0.070-0.34-0.082-1.355-0.048l-1.36 0.046v-4.394c0-3.887 0.032-4.846 0.2-6.050l0.042-0.3-3.322 0.001-9.040 10.656-0.044 2.182 7.607-0.050-0.043 3.41-2.44 0.044v1.516h8.64v-0.76zM13.15 17.407c1.452-1.816 4.278-5.24 4.326-5.243 0.033-0.002 0.060 1.274 0.060 2.836v2.84h-4.733l0.346-0.433z"></path>
</svg>
