<!-- Generated by IcoMoon.io -->
<svg version="1.1" xmlns="http://www.w3.org/2000/svg" width="37" height="32" viewBox="0 0 37 32">
<title>mana-2</title>
<path d="M4.621 23.996l-4.621-8.004 0.356-0.616c0.196-0.339 2.274-3.937 4.617-7.996l4.261-7.38 18.562 0.041 4.59 7.949c2.524 4.372 4.59 7.973 4.59 8.003s-2.068 3.634-4.595 8.010l-4.595 7.956-18.546 0.041-4.621-8.004zM24.34 25.42c0.002-0.011 0.211-1.235 0.464-2.72l0.46-2.7h-1.63l-0.054 0.215c-0.134 0.534-0.669 0.972-1.463 1.197-0.658 0.187-5.084 0.263-4.9 0.084 0.066-0.064 0.75-0.595 1.52-1.18 2.054-1.561 2.978-2.331 3.929-3.274 2.004-1.988 2.793-3.698 2.556-5.545-0.239-1.868-1.185-3.193-2.971-4.164-1.935-1.052-5.273-0.998-7.354 0.118-1.243 0.667-2.144 1.551-2.638 2.588-0.39 0.818-0.503 1.322-0.499 2.23 0.004 1.177 0.398 2.091 1.321 3.067 0.461 0.487 1.541 1.329 1.655 1.289 0.107-0.038 3.202-2.95 3.202-3.013-0-0.029-0.155-0.151-0.345-0.27-0.563-0.356-1.388-1.27-1.655-1.834-0.197-0.416-0.24-0.61-0.239-1.068 0.003-0.97 0.39-1.517 1.251-1.767 2.124-0.617 4.264 2.273 3.431 4.633-0.443 1.256-1.372 2.508-3.28 4.422-1.479 1.483-2.736 2.575-4.183 3.633-0.451 0.33-0.817 0.653-0.813 0.719s0.211 0.678 0.461 1.36l0.454 1.24 9.839 0.041-0.057 0.719h0.768c0.422 0 0.77-0.009 0.772-0.020z"></path>
</svg>
