<!-- Generated by IcoMoon.io -->
<svg version="1.1" xmlns="http://www.w3.org/2000/svg" width="37" height="32" viewBox="0 0 37 32">
<title>mana-0</title>
<path d="M4.596 24.017c-2.528-4.391-4.596-8.008-4.596-8.037s2.068-3.637 4.596-8.016l4.596-7.963 18.59 0.001 4.596 7.956c2.528 4.376 4.596 7.989 4.596 8.029s-2.068 3.66-4.596 8.043l-4.596 7.97-18.59 0.001-4.596-7.984zM20.177 24.55c1.488-0.506 2.677-1.702 3.659-3.68 0.827-1.667 0.861-1.811 0.947-4.067 0.1-2.599-0.147-4.261-0.875-5.906-0.587-1.324-1.763-2.645-2.846-3.197-1.149-0.585-3.070-0.709-4.361-0.281-2.642 0.876-4.546 4.557-4.546 8.789 0 6.040 3.644 9.83 8.022 8.341zM18.546 21.727c-1.952-1.639-4.011-8.783-3.138-10.886 0.312-0.751 1.408-1.332 2.158-1.144 0.776 0.194 1.847 1.573 2.571 3.309 0.889 2.131 1.621 5.146 1.621 6.675 0 1.083-0.082 1.381-0.529 1.911-0.686 0.814-1.807 0.87-2.682 0.134z"></path>
</svg>
