<!-- Generated by IcoMoon.io -->
<svg version="1.1" xmlns="http://www.w3.org/2000/svg" width="37" height="32" viewBox="0 0 37 32">
<title>mana-9-plus</title>
<path d="M8.808 31.311c-4.388-7.547-8.81-15.259-8.808-15.36 0.001-0.072 2.064-3.69 4.582-8.040l4.58-7.91h18.687l4.583 7.91c2.918 5.037 4.569 7.985 4.544 8.115-0.021 0.112-2.087 3.741-4.591 8.064l-4.553 7.859-18.623 0.052-0.401-0.689zM15.539 24.5c2.387-0.64 4.373-2.689 5.246-5.413 0.456-1.424 0.529-1.948 0.521-3.777-0.006-1.534-0.038-1.85-0.273-2.726-0.891-3.315-3.224-5.38-6.087-5.387-3.082-0.007-5.364 1.866-5.994 4.919-0.408 1.98 0.033 3.691 1.303 5.049 0.999 1.069 2.25 1.544 3.76 1.428 0.82-0.063 2.095-0.469 2.923-0.931 0.255-0.142 0.504-0.233 0.554-0.202 0.135 0.084 0.104 1.414-0.055 2.301-0.178 0.994-0.446 1.593-0.929 2.076-0.519 0.518-0.983 0.696-1.842 0.706-1.032 0.012-1.691-0.331-2.782-1.446l-0.842-0.861-0.896 0.819c-0.493 0.45-1.026 0.956-1.185 1.123l-0.289 0.304 0.584 0.475c1.144 0.93 2.259 1.473 3.478 1.693 0.653 0.118 2.089 0.041 2.804-0.151zM14.194 15.972c-1.196-0.631-2.094-2.657-2.012-4.536 0.069-1.568 0.601-2.303 1.726-2.384 0.947-0.068 1.641 0.424 2.228 1.581 0.593 1.168 0.992 3.478 0.736 4.254-0.164 0.498-0.58 0.979-0.994 1.152-0.472 0.197-1.243 0.166-1.685-0.066zM27.501 18.526v-1.735h3.374v-1.633h-3.374v-3.47h-1.636v3.47h-3.374v1.633h3.374v3.47h1.636v-1.735z"></path>
</svg>
