<!-- Generated by IcoMoon.io -->
<svg version="1.1" xmlns="http://www.w3.org/2000/svg" width="37" height="32" viewBox="0 0 37 32">
<title>mana-6</title>
<path d="M8.956 31.532c-0.978-1.658-8.956-15.495-8.956-15.534 0-0.027 2.071-3.629 4.601-8.006l4.601-7.957 18.524-0.035 9.25 15.998-9.252 16.002h-18.492l-0.276-0.468zM19.892 25.173c2.655-0.394 4.51-1.835 5.352-4.159 0.786-2.169 0.413-4.588-0.931-6.037-1.051-1.133-2.508-1.758-4.128-1.768-1.282-0.008-2.398 0.341-3.791 1.186-0.375 0.228-0.705 0.394-0.731 0.369s-0.085-0.341-0.13-0.703c-0.087-0.701-0.050-1.809 0.080-2.432 0.277-1.328 1.347-2.35 2.673-2.555 1.273-0.197 2.551 0.362 3.896 1.705l0.651 0.65 0.195-0.156c0.107-0.086 0.714-0.608 1.348-1.16l1.154-1.004-0.297-0.27c-1.166-1.060-2.482-1.748-3.805-1.989-0.757-0.138-2.525-0.12-3.241 0.034-3.669 0.786-6.16 3.758-6.776 8.083-0.132 0.927-0.132 2.665 0 3.596 0.646 4.554 4.114 7.258 8.48 6.61zM19.142 23.351c-1.052-0.222-1.994-1.378-2.553-3.133-0.241-0.757-0.373-1.644-0.315-2.125 0.164-1.362 0.944-2.162 2.109-2.162 1.379 0 2.456 1.081 3.105 3.117 0.528 1.655 0.436 2.773-0.294 3.584-0.519 0.576-1.35 0.868-2.052 0.72z"></path>
</svg>
