<!-- Generated by IcoMoon.io -->
<svg version="1.1" xmlns="http://www.w3.org/2000/svg" width="32" height="32" viewBox="0 0 32 32">
<title>minions</title>
<path d="M16.052 31.91c-0.048-0.050-1.051-0.138-2.228-0.195-1.914-0.094-2.306-0.19-3.721-0.914-1.946-0.995-2.937-2.113-3.899-4.398-0.396-0.939-0.811-1.883-0.922-2.098s-0.203-2.143-0.203-4.284v-3.894l-0.687-0.545c-0.378-0.3-0.742-0.527-0.81-0.504s-0.778-0.662-1.58-1.52c-0.801-0.858-1.571-1.561-1.71-1.561-0.326 0-0.413-8.656-0.090-8.869 0.116-0.076 1.395 0.826 2.842 2.005s2.719 2.144 2.827 2.144c0.108 0 0.701-0.99 1.318-2.2l1.121-2.2 3.434-1.53c3.204-1.428 3.468-1.508 3.933-1.2 0.274 0.181 1.566 0.772 2.871 1.313l2.373 0.984 0.956 1.798c0.526 0.989 0.99 1.899 1.031 2.023s0.265 0.045 0.498-0.174c0.382-0.36 0.45-0.365 0.698-0.048 0.226 0.289 0.215 0.577-0.061 1.63l-0.335 1.279 1.042 1.172c1.284 1.444 1.342 2.048 0.303 3.154-0.407 0.432-0.697 0.859-0.645 0.948 0.158 0.271 4.356 3.228 4.446 3.132 0.047-0.050 0.466-0.973 0.933-2.051 0.84-1.942 0.971-2.109 1.411-1.789 0.49 0.356 1.084 7.299 0.654 7.644-0.136 0.109-1.28 0.595-2.541 1.079-2.092 0.803-2.329 0.952-2.684 1.693-0.242 0.505-0.441 1.568-0.526 2.81-0.129 1.88-0.176 2.035-0.803 2.618-0.367 0.341-1.508 1.074-2.537 1.63l-1.871 1.009h-2.374c-1.306 0-2.414-0.041-2.462-0.090zM11.701 22.718c0.273-0.19 0.893-0.46 1.376-0.598l0.879-0.252-0.017-1.958c-0.017-1.892-0.027-1.933-0.318-1.228-0.301 0.731-0.44 0.812-1.273 0.744-0.312-0.026-0.524 0.165-0.707 0.636-0.326 0.837-2.023 2.273-2.686 2.273-0.272 0-0.494-0.036-0.494-0.080s0.464-0.575 1.030-1.18c0.883-0.943 1.11-1.381 1.593-3.069 0.309-1.083 0.62-2.145 0.691-2.36s-0.349 0.099-0.934 0.698c-0.655 0.671-1.117 0.995-1.205 0.843-0.239-0.411-0.844-0.277-1.168 0.259-0.168 0.278-0.804 1.568-1.413 2.866l-1.107 2.36 1.626 0.225c2.17 0.3 3.525 0.241 4.128-0.179zM28.67 21.644c1.265-0.504 2.385-1.003 2.488-1.109 0.16-0.166-0.386-4.892-0.591-5.11-0.038-0.040-0.284 0.488-0.546 1.175-0.623 1.634-0.933 1.805-2.028 1.126l-0.864-0.536-0.746 0.654c-0.411 0.36-0.807 0.59-0.88 0.512s-0.133 0.128-0.133 0.457c0 0.535-0.192 0.709-0.687 0.626-0.087-0.015-0.159 0.226-0.159 0.535 0 0.412 0.113 0.562 0.423 0.562 0.246 0 0.423 0.15 0.423 0.359 0 0.405 0.652 1.664 0.862 1.664 0.075 0 1.172-0.412 2.438-0.916zM15.933 21.005c0.549-0.328 0.993-0.406 1.856-0.325 1.57 0.147 1.864 0.139 2.792-0.071l0.812-0.184-0.936-1.264-0.497 0.496c-0.384 0.384-0.562 0.438-0.787 0.24-0.159-0.141-0.359-0.182-0.443-0.093s-0.324-0.077-0.533-0.371c-0.37-0.521-0.859-0.494-0.861 0.049-0.001 0.154-0.361 0.289-0.845 0.319-0.741 0.045-0.847-0.010-0.865-0.45-0.016-0.389-0.093-0.313-0.346 0.342-0.179 0.464-0.407 0.843-0.508 0.843s-0.183 0.202-0.183 0.45c0 0.565 0.418 0.571 1.343 0.019zM22.834 20.34c0-0.109-0.136-0.317-0.302-0.464-0.242-0.213-0.349-0.174-0.536 0.197-0.207 0.412-0.174 0.464 0.302 0.464 0.295 0 0.536-0.089 0.536-0.197zM22.079 7.348c0.094-0.262-0.019-0.522-0.345-0.789-0.703-0.577-1.098-0.672-1.732-0.415-0.717 0.29-0.916 0.841-0.474 1.311 0.199 0.211 0.346 0.258 0.346 0.111 0-0.141 0.149-0.416 0.332-0.61 0.483-0.514 1.225-0.060 1.094 0.668-0.081 0.448-0.038 0.499 0.271 0.324 0.202-0.115 0.43-0.384 0.508-0.599zM14.693 7.502c0.331-0.134 0.68-0.547 0.87-1.033 0.285-0.726 0.284-0.865-0.015-1.35-0.23-0.374-0.53-0.541-0.973-0.541-1.197 0-2.716 1.151-2.728 2.066-0.011 0.882 1.591 1.364 2.845 0.857zM13.365 7.231c-0.531-0.565-0.136-1.528 0.627-1.528 0.586 0 0.851 0.738 0.472 1.314-0.358 0.544-0.722 0.615-1.098 0.215z"></path>
</svg>
