<!-- Generated by IcoMoon.io -->
<svg version="1.1" xmlns="http://www.w3.org/2000/svg" width="32" height="32" viewBox="0 0 32 32">
<title>naxxramas</title>
<path d="M4.289 28.509c-1.412-1.312-2.504-2.106-2.901-2.109l-0.637-0.004 0.004-1.203c0.005-1.4 0.208-1.805 0.98-1.951l0.56-0.106 0.796-4.14-1.157-1.182c-1.291-1.319-2.145-3.071-1.89-3.876l0.168-0.53 1.325 0.705c0.729 0.387 1.639 0.667 2.022 0.621l0.697-0.083 1.628-6.509 1.158-1.557c0.637-0.856 1.204-1.613 1.262-1.682s0.921 0.684 1.919 1.673l1.815 1.799 0.186-0.824c0.506-2.244 0.744-2.743 2.132-4.476 0.823-1.027 1.578-1.867 1.678-1.867s0.855 0.84 1.678 1.867c1.389 1.733 1.626 2.232 2.132 4.476l0.186 0.824 1.815-1.799c0.998-0.989 1.862-1.742 1.919-1.673 2.125 2.572 2.505 3.426 3.867 8.687l0.311 1.203 0.484-0.003c0.266-0.002 1.147-0.311 1.957-0.688l1.473-0.686 0.167 0.526c0.249 0.785-0.514 2.352-1.852 3.804l-1.188 1.289 0.789 4.101 0.56 0.106c0.772 0.146 0.975 0.551 0.98 1.951l0.004 1.203-0.637 0.004c-0.395 0.003-1.525 0.819-2.974 2.149l-2.337 2.144-1.655-1.434c-0.91-0.789-1.817-1.628-2.014-1.866l-0.358-0.432h-10.443l-1.973 1.769c-1.085 0.973-2.063 1.794-2.173 1.826s-1.219-0.89-2.465-2.048zM16.6 25.016c0-0.292 0.191-0.69 0.425-0.884l0.425-0.352 0.425 0.352c0.233 0.194 0.425 0.591 0.425 0.884v0.531h1.493l-0.373-3.178 1.394 0.35 0.871-1.244-0.837-0.925 0.699-0.657c0.95-0.893 1.386-2.353 1.171-3.925-0.248-1.806-1.28-3.24-2.913-4.043l-1.363-0.671-4.528 0.015-1.132 0.602c-2.149 1.142-2.972 2.508-2.972 4.934 0 1.494 0.549 2.884 1.306 3.308l0.457 0.256-0.67 1.251 0.337 0.406c0.186 0.224 0.717 0.406 1.182 0.406h0.845l-0.172 0.449c-0.095 0.247-0.252 0.948-0.349 1.557l-0.177 1.107h4.035v-0.531zM15.468 21.616c0-0.45 0.228-1.1 0.507-1.444l0.507-0.626 0.316 0.383c0.174 0.211 0.406 0.86 0.515 1.444l0.198 1.061h-2.044v-0.818zM12.779 19.838c-0.311-0.18-0.66-0.466-0.774-0.635-0.318-0.469-0.256-2.713 0.075-2.713 0.16 0 1.060 0.388 2 0.863l1.709 0.863-0.571 0.906c-0.619 0.982-1.521 1.247-2.439 0.716zM17.63 19.483c-0.719-1.098-0.577-1.37 1.219-2.337l1.674-0.902 0.249 0.336c0.137 0.185 0.229 0.527 0.204 0.76s-0.067 0.616-0.095 0.849c-0.093 0.797-1.052 1.729-1.921 1.866l-0.867 0.137-0.464-0.708z"></path>
</svg>
