<!-- Generated by IcoMoon.io -->
<svg version="1.1" xmlns="http://www.w3.org/2000/svg" width="36" height="36" viewBox="0 0 36 36">
<title>paypal</title>
<path d="M32.695 10.849c-1.68 7.46-6.87 11.398-15.047 11.398h-2.721l-1.891 12.009h-2.278l-0.12 0.773c-0.077 0.513 0.316 0.97 0.83 0.97h5.822c0.689 0 1.273-0.499 1.385-1.181l0.056-0.295 1.097-6.954 0.070-0.38c0.105-0.682 0.696-1.181 1.385-1.181h0.865c5.639 0 10.055-2.292 11.348-8.916 0.485-2.517 0.302-4.655-0.802-6.244z"></path>
<path d="M29.215 2.714c-1.666-1.898-4.683-2.714-8.536-2.714h-11.187c-0.787 0-1.463 0.57-1.582 1.35l-4.662 29.545c-0.091 0.584 0.359 1.111 0.949 1.111h6.912l1.737-11.004-0.056 0.345c0.12-0.78 0.787-1.35 1.575-1.35h3.284c6.448 0 11.496-2.616 12.973-10.195 0.042-0.225 0.084-0.443 0.113-0.654 0.436-2.798 0-4.711-1.519-6.434z"></path>
</svg>
