<!-- Generated by IcoMoon.io -->
<svg version="1.1" xmlns="http://www.w3.org/2000/svg" width="104" height="36" viewBox="0 0 104 36">
<title>prestige-8</title>
<path d="M87.411 32.079v-3.921l1.099-1.33c0.605-0.732 1.099-1.431 1.099-1.554 0-0.263-1.825-1.856-3.285-2.869-2.121-1.47-2.832-0.179-2.985 5.419l-0.11 4.053h-10.658v-1.354c0-1.16 0.113-1.445 0.79-1.992 0.435-0.351 0.934-0.916 1.109-1.257 0.295-0.572 0.505-0.618 2.791-0.618 2.679 0 2.956-0.16 2.617-1.512-0.168-0.668-0.238-0.686-2.64-0.686h-2.468v-0.824c0-0.779-0.061-0.824-1.099-0.824s-1.099-0.045-1.099-0.827v-0.827l-30.082 0.142-0.291 2.198c-0.314 2.376-0.672 3.264-1.493 3.704-0.289 0.155-2.079 0.281-3.978 0.281h-3.453v-0.824c0-0.453-0.104-0.824-0.232-0.824s-1.024 0.514-1.992 1.141c-6.215 4.030-12.201 7.657-12.455 7.547-0.164-0.071-3.513-2.038-7.443-4.371l-7.145-4.242-0.152-7.964-1.092-0.878c-1.297-1.042-1.532-2.321-0.478-2.597 0.586-0.153 0.564-0.209-0.493-1.224-1.644-1.58-2.397-4.613-1.221-4.92 0.646-0.169 0.657-0.269 0.137-1.179-0.486-0.851-0.545-4.154-0.082-4.617 0.478-0.478 0.575-0.441 2.045 0.776 1.728 1.431 3.571 2.338 4.022 1.979 0.493-0.393 2.747-0.651 3.191-0.366 0.444 0.286 1.927-0.532 5.733-3.162 1.398-0.966 2.664-1.756 2.813-1.756s1.866 0.97 3.816 2.156c3.362 2.045 3.649 2.165 5.565 2.325 1.953 0.164 2.472 0.422 2.795 1.39 0.101 0.302 3.479-2.021 5.030-3.459 0.787-0.73 0.878-0.754 1.237-0.321 0.265 0.319 0.38 1.14 0.363 2.593l-0.024 2.126 1.27 0.169c2.111 0.28 2.794 1.051 4.155 4.687l0.57 1.524h56.723l3.805 3.834-1.91 2.034c-1.683 1.793-2.032 2.038-2.94 2.068-0.988 0.033-1.031 0.074-1.031 0.996 0 0.957-0.006 0.962-1.237 0.962h-1.237v2.425c0 2.165 0.066 2.486 0.618 2.989 0.824 0.751 1.694 1.181 2.387 1.181 0.523 0 0.568 0.161 0.568 2.061v2.061h-2.844c-3.421 0-4.432 0.293-4.816 1.394-0.272 0.779-0.337 0.804-2.081 0.804h-1.801v-3.921zM23.889 24.595l4.985-3.023 0.003-3.067-1.855 0.413c-2.125 0.474-12.154 0.612-15.939 0.22l-2.267-0.235v3.226l1.577 0.957c2.674 1.623 8.169 4.642 8.345 4.584 0.091-0.030 2.409-1.415 5.151-3.077zM35.349 20.042c0.544-0.741 1.35-1.604 1.793-1.919s0.804-0.686 0.804-0.825c0-0.139-0.509-0.589-1.131-1.001l-1.131-0.749-2.118 2.451 0.011 2.748c0.011 2.683 0.020 2.723 0.398 1.694 0.213-0.58 0.831-1.66 1.375-2.4zM26.129 17.454c1.285-0.23 2.707-0.519 3.16-0.642l0.824-0.224 0.137-2.744c0.099-1.97 0.273-2.95 0.618-3.475 0.265-0.402 0.481-0.86 0.481-1.016 0-0.472-0.707-0.32-1.237 0.265-0.976 1.078-2.099 0.318-1.645-1.112 0.229-0.722-0.302-1.361-1.132-1.361-0.463 0-0.698 0.197-0.822 0.691-0.232 0.924-1.372 1.782-2.368 1.782-1.031 0-2.415-1.326-2.415-2.315 0-0.808 0.866-1.803 1.58-1.816 0.435-0.008 0.43-0.047-0.053-0.412-0.293-0.222-0.751-0.403-1.017-0.403s-0.872-0.564-1.346-1.253c-0.901-1.309-1.847-1.872-2.666-1.585-0.786 0.276-2.27 1.807-2.27 2.342 0 0.353-0.218 0.501-0.756 0.515-0.416 0.011-1.002 0.116-1.304 0.233-0.5 0.195-0.471 0.254 0.34 0.673 2.115 1.093 1.043 4.021-1.472 4.021-0.754 0-1.775-0.455-2.095-0.934-0.111-0.166-0.204-0.581-0.206-0.921-0.003-0.502-0.158-0.618-0.823-0.618-0.64 0-0.856 0.147-0.988 0.671-0.093 0.369-0.095 0.791-0.004 0.937 0.559 0.905-1.059 1.573-1.761 0.727-0.306-0.369-1.374-0.595-1.374-0.291 0 0.067 0.278 0.593 0.618 1.168 0.524 0.886 0.622 1.467 0.645 3.794l0.026 2.748 2.035 0.345c5.444 0.922 12.814 1.011 17.287 0.209z"></path>
</svg>
