<!-- Generated by IcoMoon.io -->
<svg version="1.1" xmlns="http://www.w3.org/2000/svg" width="103" height="36" viewBox="0 0 103 36">
<title>prestige-1</title>
<path d="M9.664 32.577c-3.271-1.878-6.783-3.9-7.806-4.491l-1.858-1.076v-17.978l15.782-9.031 3.334 1.893c1.834 1.041 5.238 3 7.565 4.353 3.791 2.204 4.278 2.413 4.685 2.007 0.627-0.627 4.717-1.494 6.050-1.282 1.595 0.253 2.727 1.667 4.032 5.035l1.12 2.891h60.614v2.974c0 2.974 0 2.974-0.743 2.974-0.538 0-0.743 0.16-0.743 0.578 0 0.467-0.242 0.595-1.264 0.669l-1.264 0.091v1.635c0 1.628 0.004 1.636 0.966 1.729l0.966 0.093v5.612h-11.002v-1.502c0-1.743 0.464-2.78 1.76-3.933 1.16-1.032 0.996-1.416-1.487-3.482l-1.791-1.491h-45.713l-0.962 2.899c-1.294 3.901-2.218 4.832-4.798 4.832-2.132 0-5.656-0.589-5.93-0.992-0.106-0.156-3.596 1.676-7.756 4.071s-7.619 4.351-7.687 4.346c-0.068-0.004-2.8-1.545-6.071-3.423zM21.737 26.369c0.065-0.15-0.254-0.397-0.709-0.548-1.070-0.357-1.911 0.194-2.837 1.856l-0.691 1.239 2.059-1.137c1.133-0.625 2.112-1.26 2.177-1.41zM13.381 27.237c-0.948-1.533-1.845-2.044-3.16-1.797-0.607 0.114-0.966 0.314-0.819 0.457 0.424 0.412 4.415 2.624 4.533 2.513 0.060-0.056-0.19-0.584-0.554-1.173zM19.031 24.982c1.797-0.813 2.907-1.906 3.752-3.693 1.736-3.672 0.203-7.934-3.52-9.79-6.223-3.101-12.974 3.65-9.873 9.873 1.811 3.635 6.066 5.228 9.641 3.61zM26.167 22v-2.102l-0.966 0.774c-0.532 0.426-1.147 0.924-1.367 1.106-0.259 0.214-0.338 0.648-0.223 1.222 0.098 0.49 0.178 1.211 0.178 1.602v0.712l2.379-1.214v-2.102zM8.124 22.776c0.201-1.309 0.077-1.605-0.909-2.156-1.126-0.629-1.268-0.456-1.268 1.552 0 1.796 0.054 1.952 0.818 2.353 0.937 0.493 1.033 0.369 1.359-1.749zM33.6 21.211c0.585-0.775 1.691-1.875 2.459-2.445 1.275-0.946 1.343-1.056 0.776-1.266-1.863-0.689-3.505-2.547-4.596-5.2l-0.706-1.716 0.015 7.285c0.014 7.073 0.029 7.248 0.502 6.018 0.268-0.697 0.965-1.901 1.55-2.676zM7.36 15.494c0.849-0.518 0.966-0.744 0.962-1.857-0.007-1.861-0.296-2.179-1.443-1.586-0.886 0.458-0.932 0.568-0.932 2.258 0 0.977 0.1 1.776 0.223 1.775s0.658-0.266 1.189-0.59zM26.167 14.307c0-1.765-0.008-1.782-1.151-2.365l-1.151-0.587-0.181 1.317c-0.099 0.725-0.114 1.488-0.033 1.696 0.114 0.291 2.034 1.632 2.441 1.704 0.041 0.007 0.074-0.787 0.074-1.765zM12.9 9.712c0.428-0.561 0.779-1.105 0.779-1.207s-0.809 0.245-1.797 0.772c-1.243 0.663-1.679 1.033-1.412 1.202 0.804 0.51 1.664 0.239 2.431-0.768zM21.172 9.811c-0.114-0.098-0.988-0.616-1.942-1.151l-1.734-0.972 0.597 1.17c0.711 1.393 1.64 1.909 2.613 1.45 0.371-0.175 0.581-0.399 0.467-0.497z"></path>
</svg>
