<!-- Generated by IcoMoon.io -->
<svg version="1.1" xmlns="http://www.w3.org/2000/svg" width="36" height="36" viewBox="0 0 36 36">
<title>quote</title>
<path d="M7.91 15.75c4.349 0 7.875 3.526 7.875 7.875s-3.526 7.875-7.875 7.875-7.875-3.526-7.875-7.875l-0.035-1.125c0-8.698 7.051-15.75 15.75-15.75v4.5c-3.005 0-5.83 1.17-7.955 3.295-0.409 0.409-0.782 0.844-1.119 1.301 0.402-0.063 0.814-0.097 1.234-0.097zM28.16 15.75c4.349 0 7.875 3.526 7.875 7.875s-3.526 7.875-7.875 7.875-7.875-3.526-7.875-7.875l-0.035-1.125c0-8.698 7.052-15.75 15.75-15.75v4.5c-3.005 0-5.83 1.17-7.955 3.295-0.409 0.409-0.782 0.844-1.119 1.301 0.402-0.063 0.814-0.097 1.234-0.097z"></path>
</svg>
