<!-- Generated by IcoMoon.io -->
<svg version="1.1" xmlns="http://www.w3.org/2000/svg" width="32" height="32" viewBox="0 0 32 32">
<title>reward</title>
<path d="M24.844 31.655c-0.144-0.201-0.514-0.801-0.821-1.333l-0.559-0.966-0.756 0.969-2.15-0.54c-1.903-0.478-2.172-0.527-2.342-0.422-0.106 0.065-0.208 0.189-0.228 0.275-0.043 0.188-0.038 0.187-0.51 0.022-0.208-0.072-0.485-0.139-0.617-0.148s-0.326-0.064-0.433-0.122c-0.106-0.059-0.384-0.156-0.617-0.217s-1.743-0.484-3.355-0.941c-1.612-0.457-3.070-0.859-3.24-0.895s-0.423-0.179-0.562-0.319-0.323-0.255-0.408-0.255c-0.085 0-0.231-0.058-0.325-0.128-0.148-0.112-1.891-0.727-2.678-0.946-0.148-0.041-0.582-0.182-0.964-0.312s-0.873-0.294-1.092-0.365l-0.398-0.128 0.304-1.311c0.541-2.337 0.555-2.648 0.177-3.96l-0.209-0.726-0.147 0.36c-0.208 0.51-0.434 0.631-0.896 0.48-0.432-0.142-0.556-0.157-1.385-0.172-0.612-0.012-0.636-0.020-0.636-0.219 0-0.25 0.57-1.577 0.878-2.044 0.121-0.183 0.181-0.334 0.134-0.334s-0.086-0.070-0.087-0.156c-0.001-0.252-0.434-1.579-0.638-1.952-0.373-0.684-0.368-0.696 0.348-0.871 0.351-0.086 0.719-0.175 0.819-0.197 0.169-0.038 0.179-0.074 0.149-0.527-0.018-0.268-0.008-0.486 0.022-0.486s0.251-0.612 0.492-1.359c0.241-0.748 0.476-1.462 0.523-1.588 0.050-0.134 0.279-0.355 0.553-0.535 0.609-0.399 1.354-1.27 1.96-2.293 0.636-1.074 0.923-1.801 1.069-2.708 0.194-1.206 0.321-1.428 1.137-1.982 0.386-0.262 0.91-0.594 1.164-0.738l0.463-0.262 1.234 0.075c1.234 0.075 1.234 0.075 1.45 0.34 0.119 0.146 0.244 0.265 0.278 0.265 0.096 0 0.496-0.353 1.034-0.912 0.637-0.663 1.205-0.963 1.936-1.024l0.564-0.047 0.206 0.313c0.449 0.68 1.325 1.106 2.053 0.999 0.447-0.066 1.473-0.384 1.584-0.49 0.052-0.050 0.257-0.050 0.523 0 0.241 0.045 0.672 0.089 0.958 0.097 0.584 0.017 0.867 0.168 0.87 0.464 0.003 0.372 0.285 0.938 0.551 1.106 0.228 0.144 0.423 0.159 1.722 0.134 0.806-0.015 1.969-0.035 2.584-0.044l1.118-0.016 0.104 0.223c0.093 0.201 0.946 2.786 1.228 3.721l0.114 0.378-0.317 0.585c-0.175 0.322-0.317 0.635-0.317 0.697s0.195 0.63 0.434 1.265c0.239 0.635 0.568 1.529 0.731 1.988l0.297 0.834 0.009 1.714c0.005 0.943 0.032 1.751 0.060 1.797s0.291 0.192 0.584 0.324c0.293 0.132 0.71 0.364 0.926 0.516l0.393 0.275 0.021 1.265c0.012 0.696 0.041 1.415 0.065 1.599 0.043 0.325 0.037 0.334-0.193 0.334-0.182 0-0.311-0.093-0.556-0.401-0.176-0.22-0.434-0.483-0.575-0.583-0.259-0.185-1.581-0.735-1.63-0.678-0.015 0.017-0.165 0.622-0.334 1.345s-0.325 1.347-0.346 1.388c-0.022 0.040 0.018 0.375 0.088 0.743l0.127 0.669-0.233 0.34c-0.128 0.187-0.361 0.501-0.517 0.697s-0.576 0.818-0.934 1.382-0.758 1.191-0.89 1.394l-0.239 0.369 0.156 0.408c0.181 0.472 0.553 1.116 0.906 1.569 0.41 0.526 0.365 0.668-0.646 2.044-0.49 0.667-0.928 1.223-0.974 1.235s-0.201-0.143-0.345-0.344zM26.21 30.15l0.622-0.847-0.213-0.267c-0.654-0.821-1.060-1.67-1.428-2.978-0.224-0.796-0.255-0.856-0.461-0.884-0.53-0.070-0.751 0.16-0.938 0.978-0.059 0.258-0.182 0.587-0.274 0.73-0.403 0.63 0.112 2.284 1.275 4.099l0.381 0.595 0.207-0.289c0.114-0.159 0.487-0.671 0.829-1.136zM24.683 28.927c0-0.038 0.070-0.19 0.154-0.337 0.25-0.436 0.166-0.847-0.172-0.847-0.166 0-0.252 0.203-0.178 0.423 0.049 0.147 0.056 0.147 0.13-0.005 0.115-0.237 0.327-0.026 0.216 0.215-0.176 0.379-0.706 0.041-0.633-0.403 0.084-0.507 0.664-0.67 0.94-0.263 0.284 0.418 0.168 0.904-0.284 1.18-0.096 0.059-0.173 0.075-0.173 0.036zM22.728 27.869c-0.008-0.005-0.292-0.076-0.633-0.16s-0.692-0.173-0.78-0.2c-0.149-0.045-0.169 0.016-0.289 0.907-0.071 0.525-0.108 0.98-0.082 1.010s0.382 0.138 0.793 0.239l0.746 0.184 0.129-0.986c0.071-0.542 0.123-0.99 0.116-0.995zM20.636 28.853c0.029-0.272 0.041-0.507 0.025-0.523s-0.462-0.15-0.993-0.297l-0.964-0.267-0.023 0.534c-0.013 0.294-0.010 0.549 0.005 0.567 0.030 0.035 1.653 0.461 1.806 0.474 0.054 0.004 0.113-0.194 0.144-0.487zM23.208 28.403c-0.1-0.518-0.102-0.52-0.154-0.212-0.029 0.171-0.076 0.511-0.105 0.756l-0.053 0.446 0.206-0.234c0.204-0.231 0.205-0.239 0.105-0.756zM17.678 28.255c0.013-0.552 0.006-1.030-0.014-1.063s-0.316-0.125-0.656-0.204c-0.56-0.13-0.669-0.131-1.181-0.006-0.835 0.203-1.968 0.265-2.635 0.145-1.165-0.211-1.941-0.648-2.889-1.629-0.341-0.353-0.555-0.499-0.843-0.576-0.445-0.118-0.622-0.074-0.545 0.136 0.029 0.079 0.074 0.505 0.101 0.947l0.048 0.802 4.204 1.218c2.312 0.67 4.245 1.221 4.295 1.226 0.064 0.005 0.099-0.29 0.116-0.995zM18.188 28.878c0.080-0.111 0.167-1.94 0.092-1.935-0.021 0.001-0.091 0.052-0.154 0.112-0.086 0.081-0.121 0.342-0.138 1.022-0.021 0.879 0.021 1.050 0.2 0.801zM22.948 26.131c0.107-0.755 0.263-2.035 0.348-2.844s0.206-1.786 0.269-2.171c0.063-0.385 0.114-0.735 0.114-0.777 0-0.075-0.533-0.528-0.621-0.528-0.025 0-0.126 0.225-0.225 0.5-0.172 0.478-0.175 0.534-0.084 1.27 0.053 0.423 0.109 0.822 0.126 0.885 0.017 0.067-0.11 0.184-0.306 0.282-0.248 0.123-0.351 0.232-0.393 0.42-0.241 1.074-0.687 3.949-0.623 4.022 0.040 0.046 1.148 0.357 1.181 0.331 0.010-0.009 0.107-0.633 0.213-1.389zM17.692 22.907c0.054-4.432 0.054-4.415-0.179-5.394-0.282-1.184-0.342-1.042-0.294 0.7 0.048 1.748 0.041 1.774-0.478 1.774h-0.312l-0.010 0.379c-0.005 0.208-0.032 1.649-0.058 3.201l-0.048 2.822 0.617 0.178c0.339 0.098 0.639 0.182 0.666 0.187s0.070-1.726 0.096-3.846zM18.323 26.342c-0.023-0.070 0.004-0.18 0.059-0.244 0.075-0.087 0.126-0.846 0.197-2.937l0.095-2.82-0.509-1.198-0.048 0.846c-0.027 0.465-0.075 2.185-0.107 3.82l-0.059 2.974 0.207-0.157c0.123-0.093 0.19-0.209 0.165-0.284zM8.71 25.702c-0.008-0.436-0.038-0.839-0.068-0.895s-0.178-0.124-0.329-0.153l-0.275-0.052-0.004 0.716c-0.004 0.764 0.029 0.843 0.443 1.057 0.11 0.058 0.211 0.107 0.224 0.111s0.017-0.35 0.009-0.786zM25.993 25.637c0.191-0.323 0.438-0.694 0.549-0.823s0.324-0.422 0.472-0.651c0.149-0.229 0.415-0.584 0.592-0.791s0.412-0.512 0.522-0.679c0.172-0.261 0.188-0.336 0.114-0.526-0.077-0.195-0.106-0.208-0.243-0.109-0.085 0.062-0.155 0.154-0.155 0.204s-0.1 0.218-0.221 0.372c-0.122 0.154-0.441 0.594-0.709 0.978-0.494 0.707-0.84 1.126-1.291 1.562-0.246 0.238-0.247 0.244-0.154 0.646 0.052 0.223 0.113 0.405 0.136 0.405s0.198-0.266 0.389-0.589zM7.742 25.274c0.008-0.553-0.017-0.726-0.125-0.851-0.074-0.086-0.18-0.156-0.235-0.156s-0.136-0.041-0.179-0.091c-0.092-0.106-1.661-0.638-1.711-0.58-0.064 0.073-0.244 1.073-0.245 1.358-0.001 0.255 0.030 0.296 0.288 0.379 0.159 0.051 0.706 0.227 1.215 0.392s0.938 0.287 0.954 0.272c0.016-0.016 0.033-0.341 0.039-0.723zM4.945 25.063c0.097-0.060 0.137-0.151 0.11-0.25-0.023-0.085 0.027-0.531 0.112-0.991s0.155-0.879 0.155-0.932c0-0.093-1.536-0.574-1.618-0.507-0.080 0.065-0.535 2.194-0.481 2.249 0.030 0.031 0.298 0.128 0.595 0.216s0.592 0.192 0.656 0.232c0.159 0.099 0.291 0.095 0.472-0.017zM10.104 23.595v-1.117l-0.203 0.123c-0.154 0.093-0.246 0.099-0.382 0.025-0.147-0.080-0.194-0.208-0.264-0.722-0.047-0.343-0.094-0.684-0.106-0.758-0.030-0.193-0.131 1.417-0.149 2.377-0.008 0.449 0.010 0.846 0.041 0.881 0.054 0.062 0.77 0.284 0.966 0.3 0.072 0.005 0.096-0.271 0.096-1.109zM8.621 24.066c0.044-0.062 0.104-0.958 0.135-2.015l0.057-1.904-0.184 0.065c-0.101 0.036-0.191 0.071-0.199 0.079-0.013 0.012-0.039 3.635-0.028 3.819 0.006 0.104 0.131 0.079 0.218-0.044zM20.955 23.024c0.729-0.29 1.393-0.569 1.475-0.62 0.148-0.092 0.148-0.107-0.035-1.098-0.274-1.489-0.463-2.151-0.85-2.979-0.192-0.41-0.36-0.745-0.374-0.745s0.053 0.234 0.15 0.52c0.266 0.785 0.265 0.787-1.367 0.865-0.815 0.039-1.366 0.101-1.366 0.154 0 0.049 0.12 0.434 0.266 0.857 0.16 0.462 0.345 1.266 0.465 2.017 0.184 1.155 0.261 1.561 0.297 1.559 0.008-0 0.61-0.238 1.339-0.528zM20.137 20.734c-0.224-0.33-0.205-0.69 0.051-0.965 0.314-0.337 0.456-0.296 0.258 0.074-0.181 0.339-0.204 0.594-0.068 0.752 0.226 0.261 0.527 0.029 0.412-0.316-0.049-0.147-0.056-0.147-0.13 0.005-0.115 0.237-0.327 0.026-0.216-0.215 0.176-0.379 0.706-0.041 0.633 0.403-0.084 0.507-0.664 0.669-0.94 0.263zM5.171 20.813c-0.188-1.709-0.31-2.323-0.621-3.115-0.18-0.46-0.254-0.562-0.403-0.562-0.213 0-0.367 0.152-0.367 0.362 0 0.082-0.078 0.262-0.174 0.401-0.357 0.52-0.362 0.632-0.072 1.554 0.227 0.72 0.269 0.974 0.281 1.694l0.013 0.846 0.728 0.231c0.4 0.127 0.739 0.198 0.753 0.157s-0.048-0.746-0.138-1.568zM11.255 21.501c0.376-0.146 0.809-0.265 0.962-0.265 0.318 0 0.321-0.012 0.194-0.854-0.073-0.483-0.109-0.564-0.278-0.613-0.177-0.051-0.189-0.085-0.141-0.385 0.034-0.206 0.001-0.599-0.085-1.057-0.116-0.611-0.172-0.752-0.347-0.871-0.231-0.157-0.532-0.189-0.532-0.057 0 0.15-1.219 1.933-1.503 2.199l-0.274 0.256 0.158 1.025c0.087 0.564 0.175 1.115 0.196 1.226l0.038 0.201 0.463-0.27c0.255-0.149 0.771-0.39 1.148-0.535zM10.312 20.48c-0.484-0.409-0.186-1.383 0.423-1.383h0.224l-0.319 0.35c-0.258 0.284-0.308 0.39-0.265 0.557 0.085 0.324 0.167 0.382 0.382 0.269 0.198-0.104 0.258-0.318 0.118-0.418-0.043-0.030-0.077-0.013-0.077 0.039 0 0.141-0.208 0.114-0.257-0.033-0.063-0.189 0.148-0.347 0.375-0.281 0.262 0.076 0.358 0.382 0.218 0.698-0.060 0.135-0.151 0.251-0.203 0.259-0.343 0.051-0.51 0.035-0.619-0.057zM26.244 20.905c0.286-0.124 0.521-0.264 0.521-0.313 0-0.126-0.616-0.96-0.709-0.96-0.043 0-0.343-0.247-0.668-0.549-0.695-0.646-0.836-0.722-1.733-0.927l-0.68-0.156-0.457 0.253c-0.252 0.139-0.457 0.287-0.457 0.33s0.051 0.191 0.113 0.33c0.082 0.184 0.192 0.27 0.405 0.316 0.75 0.162 1.601 0.926 2.149 1.93l0.187 0.343 0.405-0.186c0.223-0.102 0.639-0.287 0.925-0.41zM24.174 19.498c-0.154-0.272-0.094-0.624 0.13-0.763 0.217-0.134 0.279-0.035 0.111 0.179-0.173 0.221-0.105 0.655 0.095 0.611 0.072-0.016 0.142-0.096 0.156-0.177 0.019-0.112-0.015-0.136-0.142-0.098-0.131 0.039-0.161 0.015-0.139-0.111 0.039-0.232 0.17-0.252 0.378-0.057 0.176 0.165 0.177 0.177 0.049 0.404-0.173 0.305-0.468 0.311-0.637 0.012zM9.073 19.528c0.351-0.268 0.608-0.569 0.932-1.090 0.246-0.396 0.55-0.855 0.675-1.021l0.228-0.302-0.277-0.279c-0.152-0.154-0.42-0.412-0.594-0.574-0.37-0.343-0.403-0.568-0.108-0.723 0.264-0.139 0.148-0.227-0.406-0.308-0.375-0.055-0.393-0.047-0.532 0.225-0.214 0.419-1.949 2.398-2.414 2.753-0.222 0.169-0.404 0.328-0.405 0.353-0.003 0.075 1.62 1.186 1.661 1.138 0.021-0.025 0.168 0.008 0.325 0.073 0.395 0.163 0.372 0.169 0.913-0.245zM8.189 18.266c-0.093-0.114-0.145-0.234-0.116-0.267s0.016-0.060-0.027-0.060c-0.13 0-0.021-0.418 0.162-0.616 0.093-0.101 0.279-0.209 0.413-0.24 0.205-0.047 0.283-0.012 0.488 0.226 0.256 0.296 0.263 0.441 0.014 0.286-0.4-0.247-0.868-0.114-0.868 0.247 0 0.212 0.302 0.409 0.414 0.271 0.065-0.080 0.063-0.118-0.009-0.148-0.156-0.066-0.116-0.383 0.048-0.383 0.296 0 0.387 0.447 0.157 0.767-0.138 0.192-0.486 0.149-0.675-0.083zM31.636 18.406c-0.015-0.708-0.062-1.276-0.111-1.344-0.121-0.171-0.868-0.591-1.382-0.777l-0.44-0.16-1.233 0.658c-0.678 0.362-1.223 0.671-1.209 0.686s0.377 0.127 0.808 0.247c1.036 0.29 2.36 0.804 2.756 1.071 0.175 0.118 0.418 0.353 0.54 0.522s0.239 0.311 0.26 0.315c0.021 0.004 0.026-0.545 0.012-1.219zM29.848 17.787c-0.105-0.083-0.216-0.193-0.247-0.245-0.096-0.16-0.065-0.631 0.054-0.813 0.107-0.163 0.113-0.154 0.116 0.141 0.004 0.436 0.194 0.728 0.453 0.693 0.16-0.022 0.205-0.075 0.205-0.249 0-0.135-0.050-0.233-0.127-0.25-0.083-0.019-0.123 0.028-0.116 0.132 0.019 0.262-0.217 0.188-0.244-0.076-0.018-0.182 0.018-0.254 0.154-0.307 0.512-0.2 0.796 0.37 0.442 0.889-0.184 0.271-0.419 0.299-0.691 0.084zM16.939 19.47c-0.021-0.040-0.045-0.693-0.053-1.452l-0.015-1.38-1.629-0.337c-0.896-0.186-1.703-0.354-1.794-0.375-0.228-0.052-0.364 0.227-0.481 0.986-0.053 0.343-0.216 1.022-0.361 1.509s-0.265 0.917-0.265 0.956c0 0.039 0.495 0.084 1.099 0.098 2.563 0.064 3.536 0.062 3.499-0.005zM14.552 18.004c-0.22-0.186-0.247-0.695-0.053-0.98 0.135-0.198 0.229-0.245 0.489-0.244l0.322 0.001-0.27 0.196c-0.326 0.236-0.383 0.322-0.384 0.578-0.001 0.299 0.254 0.419 0.425 0.201 0.076-0.096 0.106-0.18 0.068-0.186s-0.121-0.015-0.184-0.023c-0.185-0.020-0.184-0.302 0.001-0.369 0.182-0.067 0.46 0.2 0.46 0.442 0 0.403-0.56 0.648-0.874 0.383zM2.738 18.908c0.127-0.275 0.269-0.556 0.316-0.624s0.22-0.424 0.386-0.792c0.166-0.368 0.464-0.906 0.664-1.197s0.342-0.566 0.317-0.613c-0.025-0.047-0.278-0.065-0.572-0.041-0.442 0.036-0.671 0.125-1.416 0.547-0.489 0.277-0.889 0.542-0.889 0.59s-0.169 0.358-0.375 0.69c-0.206 0.332-0.493 0.856-0.636 1.164-0.218 0.467-0.243 0.574-0.149 0.64 0.062 0.044 0.137 0.062 0.167 0.040 0.118-0.084 1.298-0.049 1.431 0.042 0.301 0.207 0.514 0.081 0.758-0.447zM1.823 18.199c-0.445-0.405-0.101-1.324 0.505-1.348 0.284-0.012 0.68 0.209 0.68 0.378 0 0.055-0.135 0.068-0.35 0.035-0.428-0.067-0.73 0.119-0.73 0.45 0 0.274 0.266 0.465 0.429 0.308 0.061-0.059 0.108-0.172 0.105-0.251-0.004-0.084-0.022-0.1-0.044-0.038-0.047 0.134-0.259 0.048-0.259-0.105 0-0.062 0.050-0.161 0.111-0.219 0.169-0.162 0.405 0.029 0.447 0.363 0.070 0.554-0.471 0.813-0.894 0.428zM28.63 18.855c0.071-0.28 0.116-0.534 0.099-0.566s-0.485-0.17-1.039-0.307l-1.009-0.249-0.384 0.208c-0.211 0.115-0.357 0.234-0.324 0.267s0.286 0.127 0.562 0.211c0.277 0.084 0.797 0.327 1.157 0.541s0.689 0.392 0.731 0.397c0.042 0.005 0.135-0.221 0.207-0.5zM21.050 18.508c0.043-0.047-0.154-0.726-0.258-0.886-0.109-0.169-3.052-0.86-3.052-0.717 0 0.086 0.221 1.072 0.358 1.601 0.041 0.158 0.118 0.163 1.481 0.102 0.791-0.035 1.452-0.080 1.47-0.099zM22.204 17.993l0.183-0.117-0.25-0.058c-0.424-0.098-0.479-0.081-0.385 0.121 0.096 0.206 0.198 0.218 0.453 0.055zM12.453 16.519c0.235-0.364 0.417-0.674 0.404-0.689s-0.497-0.114-1.074-0.219l-1.050-0.191-0.562 0.401 0.29 0.343c0.266 0.314 1.384 1.080 1.511 1.035 0.030-0.010 0.247-0.317 0.482-0.681zM27.69 15.994l1.967-1.043 0.021-1.27c0.012-0.698 0.001-1.27-0.023-1.27s-0.225 0.157-0.446 0.348-0.627 0.482-0.903 0.646c-0.455 0.271-0.558 0.297-1.118 0.284-0.37-0.008-0.733-0.071-0.906-0.157-0.347-0.172-0.365-0.341-0.134-1.21 0.297-1.113 0.393-1.751 0.54-3.565 0.125-1.543 0.177-1.898 0.338-2.283 0.238-0.569 0.43-0.648 0.754-0.313 0.157 0.162 0.292 0.447 0.408 0.859l0.173 0.616 0.204-0.374c0.112-0.205 0.204-0.396 0.204-0.424 0-0.040-0.532-1.728-0.941-2.983l-0.072-0.222-0.152 0.222c-0.301 0.439-0.901 1.49-0.946 1.657-0.087 0.319-0.272 1.684-0.469 3.468-0.164 1.486-0.459 3.217-0.72 4.227-0.087 0.337 0.097 3.845 0.201 3.835 0.028-0.003 0.937-0.474 2.019-1.048zM25.186 15.197c-0.031-0.968-0.064-1.77-0.073-1.781-0.028-0.034-2.461-0.467-2.63-0.468-0.151-0.001-0.154 0.044-0.128 1.626 0.015 0.895 0.057 1.663 0.094 1.708 0.049 0.060 2.163 0.576 2.725 0.666 0.039 0.006 0.044-0.741 0.012-1.75zM6.941 16.557c0.099-0.122 0.466-0.444 0.815-0.715s0.676-0.551 0.727-0.621c0.115-0.159 0.069-0.172-1.284-0.364l-1.015-0.143-0.412 0.31c-0.402 0.303-0.96 0.886-1.402 1.466l-0.221 0.29h1.306c1.291 0 1.308-0.003 1.486-0.222zM6.281 15.882c-0.132-0.168-0.134-0.205-0.029-0.423 0.137-0.282 0.36-0.343 0.574-0.156 0.146 0.127 0.14 0.134-0.127 0.137-0.297 0.003-0.47 0.234-0.281 0.373 0.209 0.153 0.297 0.028 0.122-0.174-0.072-0.083-0.056-0.107 0.071-0.107 0.192 0 0.261 0.16 0.163 0.379-0.093 0.21-0.317 0.197-0.493-0.029zM2.022 16.020c0.974-0.588 1.416-0.754 2.008-0.755 0.685-0.001 0.564-0.302-0.366-0.905-0.444-0.287-0.494-0.299-1.234-0.29-0.646 0.008-1.843 0.218-1.95 0.342-0.017 0.020 0.072 0.289 0.198 0.599s0.292 0.775 0.369 1.032c0.078 0.257 0.146 0.468 0.151 0.468s0.377-0.221 0.825-0.492zM1.828 15.42c-0.071-0.061-0.151-0.237-0.177-0.389-0.037-0.219-0.009-0.319 0.129-0.468 0.338-0.364 0.902-0.169 1.020 0.353 0.051 0.224 0.005 0.215-0.27-0.053-0.261-0.253-0.361-0.272-0.559-0.105-0.179 0.151-0.098 0.506 0.116 0.506 0.166 0 0.202-0.141 0.053-0.204-0.074-0.031-0.076-0.066-0.005-0.153 0.124-0.152 0.333-0.045 0.333 0.17 0 0.373-0.373 0.573-0.64 0.344zM22.004 13.649c-0.065-0.074-3.026-0.558-3.075-0.502-0.016 0.019-0.080 0.342-0.142 0.718s-0.185 0.872-0.273 1.102c-0.088 0.23-0.133 0.448-0.1 0.486s0.285 0.112 0.561 0.165c0.276 0.053 1.074 0.209 1.774 0.348l1.273 0.251 0.021-1.249c0.012-0.687-0.005-1.28-0.039-1.318zM18.114 15.052c0.195-0.51 0.501-2.069 0.45-2.294-0.023-0.099 0.087-0.493 0.253-0.907 0.779-1.95 1.331-4.504 1.513-7.005 0.046-0.635 0.086-0.788 0.265-1.025 0.116-0.153 0.402-0.555 0.636-0.894 0.421-0.609 0.425-0.618 0.319-0.911-0.059-0.163-0.107-0.377-0.107-0.477s-0.020-0.181-0.044-0.181c-0.041 0-0.313 0.335-1.060 1.302-0.279 0.362-0.284 0.381-0.439 1.778-0.265 2.388-0.711 4.102-1.676 6.451-0.338 0.821-0.422 1.114-0.412 1.433 0.013 0.437-0.175 1.996-0.301 2.495-0.118 0.466-0.101 0.521 0.172 0.56 0.138 0.020 0.258 0.042 0.266 0.051s0.083-0.161 0.165-0.376zM17.16 15.063c0.022-0.11 0.092-0.461 0.154-0.78s0.137-0.945 0.165-1.392l0.050-0.812-0.608-0.101c-0.335-0.056-0.768-0.126-0.963-0.156l-0.355-0.055-0.137 0.835c-0.076 0.459-0.222 1.149-0.325 1.534s-0.177 0.71-0.163 0.722c0.022 0.021 1.815 0.366 2.048 0.394 0.052 0.006 0.113-0.078 0.135-0.189zM14.961 13.615c0.075-0.343 0.159-0.77 0.187-0.948 0.049-0.313 0.042-0.326-0.202-0.368-0.139-0.025-1.076-0.189-2.083-0.367s-1.917-0.323-2.024-0.323c-0.173 0-0.245 0.124-0.658 1.129-0.255 0.621-0.443 1.152-0.419 1.181s1.127 0.233 2.449 0.455l2.404 0.402 0.104-0.268c0.057-0.148 0.166-0.549 0.241-0.892zM9.907 12.498c0.363-0.892 0.531-1.399 0.476-1.434-0.183-0.118-2.129-0.381-2.198-0.298-0.155 0.191-1.073 2.761-0.998 2.792 0.112 0.045 2.015 0.347 2.095 0.331 0.035-0.006 0.317-0.633 0.625-1.392zM6.865 13.394c0-0.048 0.189-0.579 0.42-1.181l0.42-1.094-0.246-0.062c-0.136-0.034-0.56-0.089-0.943-0.123l-0.697-0.061-0.451 1.172c-0.248 0.645-0.438 1.185-0.422 1.201 0.044 0.042 1.213 0.204 1.592 0.22 0.18 0.008 0.328-0.026 0.328-0.073zM5.047 11.944c0.267-0.65 0.509-1.27 0.539-1.379 0.066-0.241 0.074-0.238-1.461-0.508l-1.131-0.2-0.105 0.275c-0.257 0.672-0.895 2.652-0.866 2.686 0.052 0.060 1.674 0.286 2.129 0.297l0.41 0.010 0.485-1.181zM25.318 12.459c0.215-0.819 0.42-2.088 0.597-3.702 0.296-2.693 0.447-3.559 0.686-3.915 0.574-0.856 1.013-1.683 0.967-1.821-0.043-0.128-0.211-0.147-1.318-0.147-0.774 0-1.251 0.033-1.224 0.084 0.025 0.046-0.173 0.377-0.44 0.735s-0.529 0.717-0.582 0.797c-0.059 0.088-0.142 0.766-0.208 1.694-0.189 2.654-0.482 4.332-0.997 5.711l-0.257 0.687 0.395 0.087c0.956 0.21 1.801 0.352 2.012 0.338 0.209-0.014 0.241-0.061 0.368-0.547zM18.001 10.563c0.928-2.315 1.256-3.559 1.55-5.861 0.217-1.699 0.316-1.98 0.994-2.804 0.464-0.564 0.469-0.576 0.28-0.637-0.106-0.034-0.422-0.067-0.702-0.072-0.446-0.008-0.547 0.023-0.819 0.251-0.571 0.478-0.877 1.184-1.181 2.727-0.794 4.023-1.134 5.199-1.961 6.774l-0.281 0.535 0.524 0.101c0.288 0.056 0.663 0.105 0.833 0.11l0.309 0.009 0.454-1.133zM10.994 9.851c0.59-1.029 1.158-2.287 1.581-3.5 0.179-0.515 0.55-1.476 0.824-2.135 0.44-1.058 0.563-1.273 1.051-1.831 0.336-0.385 0.733-0.735 1.015-0.896 0.255-0.145 0.476-0.273 0.493-0.284s-0.012-0.078-0.062-0.149c-0.137-0.191-0.759 0.080-1.475 0.645-0.533 0.42-0.593 0.5-0.825 1.103-1.731 4.503-2.446 6.181-3.144 7.38-0.149 0.255-0.27 0.483-0.27 0.506s0.077 0.029 0.17 0.013c0.117-0.020 0.318-0.286 0.642-0.851zM10.465 9.401c0.755-1.464 1.034-2.105 2.082-4.789 0.44-1.128 0.913-2.241 1.050-2.475 0.274-0.469 1.028-1.101 1.618-1.357 0.294-0.127 0.35-0.183 0.28-0.28-0.117-0.163-0.786-0.157-1.277 0.012-0.293 0.1-0.577 0.325-1.159 0.914-0.424 0.429-0.824 0.821-0.889 0.87s-0.336 0.711-0.601 1.471c-0.921 2.638-1.572 4.026-2.703 5.768l-0.533 0.821 0.25 0.046c0.137 0.026 0.441 0.083 0.674 0.127s0.459 0.085 0.501 0.089c0.042 0.004 0.361-0.542 0.708-1.215zM6.471 9.119c0.618-0.896 1.121-1.699 1.064-1.699-0.017 0-0.2 0.251-0.408 0.557s-0.63 0.888-0.94 1.292c-0.336 0.439-0.516 0.735-0.445 0.735 0.065 0 0.393-0.398 0.729-0.886zM5.476 9.661c1.712-2.278 2.633-3.752 3.211-5.138 0.184-0.441 0.43-0.925 0.548-1.076s0.609-0.592 1.093-0.98l0.88-0.707-2.206-0.129-1.049 0.673c-1.117 0.716-1.319 0.908-1.319 1.252 0 0.438-0.25 1.598-0.46 2.132-0.491 1.251-1.76 3.097-2.584 3.758l-0.229 0.183 0.589 0.064c0.324 0.035 0.705 0.095 0.846 0.134 0.422 0.116 0.48 0.101 0.681-0.166z"></path>
</svg>
