<!-- Generated by IcoMoon.io -->
<svg version="1.1" xmlns="http://www.w3.org/2000/svg" width="32" height="32" viewBox="0 0 32 32">
<title>shaman</title>
<path d="M10.637 29.325c-0.268-1.471-0.717-3.886-0.999-5.365l-0.512-2.69-0.262 0.142c-0.144 0.078-1.215 0.576-2.379 1.107l-2.118 0.965-0.621-0.713 2.429-4.957-5.676-0.697-0.317-6.1c-0.175-3.355-0.234-6.196-0.132-6.313s4.168-1.223 9.035-2.458l8.85-2.245 0.55 0.347c0.303 0.191 3.467 3.664 7.033 7.719l6.483 7.372-0.467 0.764c-0.257 0.42-1.287 2.427-2.289 4.459s-1.886 3.695-1.963 3.695c-0.077 0-1.862-1.051-3.966-2.335l-3.825-2.335v3.354c0 1.845-0.107 3.354-0.238 3.354s-0.706-0.352-1.279-0.783l-1.041-0.783-4.633 7.171h-1.175l-0.487-2.675zM14.169 26.693l1.816-2.759 1.396-0.615 1.156 1.101-0.158-6.434 1.801 0.203 1.209-2.193c0.665-1.206 1.209-2.329 1.209-2.494s-1.131 0.145-2.512 0.69c-1.382 0.545-2.681 0.992-2.887 0.992h-0.375l-0.007-1.147c-0.004-0.631-0.175-1.45-0.38-1.821l-0.373-0.675-2.729 4.883c-1.501 2.686-2.729 5.082-2.729 5.326 0 0.795 1.424 7.703 1.588 7.703 0.088 0 0.977-1.242 1.975-2.759zM28.741 18.632l1.629-3.404-1.985-2.321c-1.092-1.277-2.133-2.261-2.314-2.188s-1.397 1.998-2.703 4.277l-2.374 4.144 2.689 1.556c1.479 0.856 2.855 1.507 3.058 1.447s1.102-1.64 1.999-3.512zM8.671 19.897l1.648-0.892 9.232-16.2-1.172-1.324-4.26 1.054-2.382 4.13 1.979 1.507v2.233l-2.648 2.911-2.231-1.166-1.767 3.973 1.094 0.462-1.925 4.203h0.392c0.216 0 1.134-0.401 2.040-0.892zM6.923 13.618l0.981-2.56-1.295-0.57v-1.292l2.95-3.695h1.389l1.51-2.644-0.815 0.276c-0.448 0.152-1.552 0.425-2.452 0.608l-1.637 0.333-2.916 5.367c-1.604 2.952-2.916 5.552-2.916 5.778v0.41l1.444 0.206c0.794 0.113 1.743 0.237 2.11 0.275l0.666 0.070 0.981-2.56zM19.489 12.126v-1.019h0.444c0.244 0 0.444 0.229 0.444 0.51v0.51h1.836l-0.307-1.147c-0.169-0.631-0.369-1.227-0.444-1.325-0.216-0.281-3.268 0.969-3.523 1.443l-0.23 0.426 0.542 1.621h1.237v-1.019zM24.185 10.848l0.839-1.787-4.548-5.218-1.592 2.712c-0.875 1.491-1.528 2.785-1.45 2.874s0.886-0.195 1.797-0.631l1.655-0.794 1.709 0.622 0.542 2.478-0.512 1.531h0.36c0.198 0 0.738-0.804 1.199-1.787zM4.468 7.022l1.19-2.379-4.379 0.994v1.398c0 0.769 0.133 2.159 0.295 3.090l0.295 1.692 0.704-1.207c0.387-0.664 1.24-2.278 1.895-3.587zM11.755 10.548l0.842-1.068-1.045-0.971c-1.306-1.214-1.508-1.21-2.503 0.052l-0.806 1.022 0.5 0.574 1.823-1.306 0.647 0.743-0.526 0.603c-0.289 0.332-0.526 0.786-0.526 1.011 0 0.733 0.734 0.429 1.593-0.66z"></path>
</svg>
