<!-- Generated by IcoMoon.io -->
<svg version="1.1" xmlns="http://www.w3.org/2000/svg" width="32" height="32" viewBox="0 0 32 32">
<title>the-league-of-explorers</title>
<path d="M2.882 31.422c-2.676-1.063-3.509-3.152-2.414-6.060 0.67-1.781 3.203-4.65 4.943-5.599l1.258-0.686-0.034-5.184c-0.023-3.426-0.145-5.404-0.362-5.834-0.18-0.357-0.253-0.97-0.162-1.362 0.138-0.592 0.411-0.666 1.603-0.436 1.251 0.242 1.717 0.089 3.616-1.187 2.835-1.904 3.718-2.356 6.475-3.311 2.057-0.713 2.165-0.796 1.066-0.823-1.39-0.035-3.671 1.037-7.412 3.482-2.086 1.363-2.776 1.632-3.622 1.41-1.647-0.433-1.177-1.461 0.667-1.461 0.483 0 2.275-0.897 3.982-1.993 3.663-2.352 6.67-3.016 7.861-1.734 0.368 0.396 0.669 1.078 0.669 1.517s0.545 2.686 1.211 4.995c0.666 2.309 1.17 4.248 1.119 4.309s-0.842 0.55-1.758 1.087c-1.526 0.894-1.706 0.918-2.128 0.291-0.641-0.953-0.739-0.866-0.613 0.543 0.101 1.125-0.007 1.31-1.283 2.212l-1.393 0.984-0.451-0.914c-0.628-1.274-0.841-1.142-0.701 0.435 0.11 1.23 0.025 1.42-0.958 2.153-1.454 1.084-1.955 1.026-2.315-0.27-0.341-1.228-0.728-0.709-0.735 0.986-0.002 0.535-0.167 0.973-0.366 0.973s-0.731 0.121-1.182 0.269c-0.696 0.229-0.856 0.114-1.060-0.757-0.2-0.854-0.27-0.907-0.416-0.317-0.111 0.448-0.366 0.627-0.693 0.487-0.476-0.204-0.503-0.067-0.338 1.67 0.099 1.041 0.31 2.036 0.469 2.21 0.512 0.562 3.18 0.352 4.653-0.366 2.005-0.978 4.723-3.295 7.432-6.337 2.026-2.275 2.517-2.633 3.951-2.881 0.992-0.172 2.554-0.933 3.963-1.931 1.79-1.267 2.527-1.585 3.2-1.378 1.284 0.396 1.598 1.211 1.234 3.206-0.577 3.165-1.941 4.278-5.7 4.657l-2.377 0.239 0.658-0.897c1.216-1.656 4.089-4.344 4.942-4.624 0.725-0.238 0.879-0.131 1.086 0.749 0.211 0.9 0.263 0.933 0.427 0.269 0.603-2.451-1.026-2.699-3.519-0.535-1.813 1.574-3.119 3.118-8.126 9.608-3.311 4.291-6.316 7.111-8.637 8.103-1.873 0.801-5.756 0.818-7.73 0.034z"></path>
</svg>
