<!-- Generated by IcoMoon.io -->
<svg version="1.1" xmlns="http://www.w3.org/2000/svg" width="32" height="32" viewBox="0 0 32 32">
<title>the-grand-tournament</title>
<path d="M13.845 31.032c-2.827-1.364-7.569-5.736-9.391-8.659-2.84-4.556-4.026-8.831-4.279-15.429l-0.175-4.564h2.23c1.691 0 3.071-0.259 5.709-1.073 5.867-1.81 10.809-1.747 16.826 0.215 1.945 0.634 3.233 0.858 4.934 0.858h2.301l-0.175 4.564c-0.253 6.598-1.439 10.873-4.279 15.429-1.854 2.973-6.574 7.309-9.438 8.668-1.119 0.531-2.089 0.963-2.155 0.958s-1.014-0.44-2.108-0.968zM18.224 26.063c5.422-3.869 8.463-9.487 8.932-16.5l0.19-2.843-4.264-1.197c-3.721-1.045-4.644-1.193-7.247-1.167-2.535 0.025-3.581 0.208-6.961 1.218l-3.978 1.189 0.090 2.725c0.174 5.25 2.423 10.616 5.905 14.090 1.768 1.763 4.502 3.641 5.302 3.641 0.226 0 1.14-0.52 2.031-1.157zM16 20.946v-5.696h4.475c3.268 0 4.475 0.097 4.475 0.36 0 0.198-0.659 1.578-1.464 3.067-1.048 1.937-2.142 3.368-3.845 5.032-3.848 3.757-3.64 3.915-3.64-2.763zM6.421 13.192c-0.211-0.967-0.473-2.622-0.582-3.676l-0.198-1.918 3.936-1.12c2.165-0.616 4.346-1.116 4.848-1.112l0.912 0.008v9.576h-8.532l-0.383-1.759z"></path>
</svg>
