<!-- Generated by IcoMoon.io -->
<svg version="1.1" xmlns="http://www.w3.org/2000/svg" width="36" height="36" viewBox="0 0 36 36">
<title>twitter</title>
<path d="M36 7.959c-1.322 0.591-2.749 0.984-4.24 1.16 1.526-0.914 2.693-2.362 3.248-4.085-1.427 0.844-3.009 1.462-4.69 1.793-1.35-1.434-3.27-2.327-5.393-2.327-4.078 0-7.383 3.305-7.383 7.383 0 0.577 0.063 1.139 0.19 1.68-6.138-0.309-11.58-3.248-15.223-7.72-0.633 1.090-0.998 2.363-0.998 3.713 0 2.559 1.301 4.823 3.284 6.145-1.209-0.035-2.348-0.373-3.347-0.921 0 0.028 0 0.063 0 0.091 0 3.579 2.545 6.567 5.927 7.242-0.619 0.169-1.273 0.26-1.948 0.26-0.478 0-0.935-0.049-1.392-0.134 0.942 2.932 3.67 5.070 6.898 5.133-2.531 1.983-5.709 3.164-9.176 3.164-0.598 0-1.181-0.035-1.765-0.105 3.277 2.102 7.158 3.319 11.327 3.319 13.584 0 21.016-11.257 21.016-21.016 0-0.323-0.007-0.64-0.021-0.956 1.441-1.034 2.693-2.334 3.684-3.818z"></path>
</svg>
