<!-- Generated by IcoMoon.io -->
<svg version="1.1" xmlns="http://www.w3.org/2000/svg" width="32" height="32" viewBox="0 0 32 32">
<title>warlock</title>
<path d="M22.435 31.625c-0.253-0.209-1.267-1.826-2.253-3.595s-2.208-3.483-2.713-3.81c-0.807-0.521-1.067-0.38-2.117 1.15-0.659 0.959-1.203 1.939-1.209 2.177s-0.736 0.285-1.622 0.104c-1.415-0.289-1.762-0.138-2.859 1.246-1.665 2.099-2.371 2.030-2.371-0.233v-1.808h-2.351c-2.176 0-2.351-0.089-2.351-1.202 0-0.82 1.053-2.438 3.313-5.092 3.093-3.632 3.286-3.984 2.898-5.296-0.352-1.19-0.598-1.361-1.603-1.118-1.978 0.478-3.763-0.256-5.512-2.266-1.899-2.182-2.213-4.406-0.834-5.914 0.725-0.792 1.032-0.825 2.458-0.262 0.897 0.354 2.301 1.074 3.12 1.6 1.805 1.159 6.617 1.302 8.686 0.259 0.761-0.384 1.907-1.528 2.548-2.542 1.344-2.129 5.275-5.023 6.822-5.023 0.582 0 1.394 0.449 1.805 0.998 1.497 1.998-0.225 5.883-4.011 9.052-0.946 0.792-1.628 1.619-1.516 1.838s1.655-0.158 3.429-0.839c5.554-2.131 8.571-1.441 7.643 1.747-0.722 2.482-2.876 3.729-6.437 3.729-1.755 0-3.143 0.222-3.143 0.503 0 0.7 1.954 1.812 4.489 2.554 2.218 0.649 4.062 1.814 4.062 2.566 0 0.902-2.294 3.157-3.211 3.157-0.526 0-1.781-0.351-2.787-0.78s-1.907-0.688-2-0.576c-0.093 0.112 0.418 1.322 1.136 2.689s1.304 2.858 1.304 3.313c0 1.644-1.654 2.628-2.811 1.673zM23.963 29.736c0-0.404-0.492-1.442-1.094-2.306-1.224-1.758-2.040-4.539-1.459-4.973 0.404-0.302 1.837-0.013 4.309 0.867 1.121 0.399 1.792 0.387 2.458-0.044 1.483-0.959 1.088-1.427-1.969-2.335-3.754-1.114-4.928-2.192-4.997-4.587-0.032-1.13-0.422-2.323-1.002-3.069-1.253-1.611-1.198-2.191 0.334-3.559 0.705-0.63 1.28-1.276 1.277-1.436s-0.689-0.825-1.524-1.479l-1.519-1.189-0.832 1.277c-1.424 2.186-4.154 3.092-8.364 2.775-2.026-0.153-3.81-0.525-3.965-0.827-0.296-0.579-3.119-2.139-3.871-2.139-0.837 0-0.457 2.901 0.521 3.977 1.952 2.148 2.693 2.338 6.668 1.714 6.253-0.982 9.57 0.398 10.072 4.19 0.16 1.212 0.499 2.506 0.753 2.876 0.331 0.481 0.328 0.671-0.008 0.671-0.54 0-1.773-2.667-1.773-3.835 0-1.645-4.437-3.175-7.154-2.466l-1.382 0.361 1.57 2.718c1.201 2.080 1.948 2.841 3.18 3.242 0.885 0.288 1.859 0.816 2.163 1.173s1.155 1.16 1.891 1.784c0.735 0.624 2.082 2.532 2.993 4.239 1.58 2.962 2.724 3.961 2.724 2.378zM11.955 25.995c1.081 0.261 1.446 0.056 2.329-1.308 1.252-1.932 1.087-2.773-0.626-3.187-0.7-0.169-1.842-1.060-2.538-1.981l-1.265-1.673-6.018 7.203 2.261 0.258c1.972 0.225 2.279 0.413 2.403 1.47l0.142 1.212 1.015-1.152c0.769-0.873 1.326-1.077 2.297-0.842zM27.811 14.743c0-0.796-1.075-2.865-1.489-2.865-1.24 0-4.497 1.718-4.497 2.373 0 0.555 0.706 0.726 2.993 0.726 1.646 0 2.993-0.105 2.993-0.234zM30.804 12.057c0-0.451-0.53-0.695-1.507-0.695h-1.507l0.683 1.596c0.657 1.535 0.714 1.562 1.507 0.695 0.453-0.496 0.824-1.214 0.824-1.596zM24.285 6.068c1.281-1.658 1.678-3.901 0.766-4.324-0.737-0.342-5.629 2.238-5.208 2.746 0.454 0.548 3.055 2.689 3.298 2.714 0.135 0.014 0.65-0.498 1.144-1.137z"></path>
</svg>
