<!-- Generated by IcoMoon.io -->
<svg version="1.1" xmlns="http://www.w3.org/2000/svg" width="32" height="32" viewBox="0 0 32 32">
<title>warrior</title>
<path d="M7.379 30.956c-1.22-0.569-2.518-1.491-2.884-2.048-0.616-0.937-0.573-1.205 0.571-3.574l1.237-2.56-6.303-5.395v-2.702c0-2.207 0.141-2.748 0.769-2.953 0.538-0.175 1.033 0.069 1.646 0.813 0.482 0.585 2.167 2.174 3.744 3.531l2.867 2.467 2.883-2.657c2.448-2.256 9.171-10.392 11.972-14.489 0.454-0.663 1.177-1.285 1.609-1.381 0.851-0.189 6.131 2.554 6.503 3.379 0.125 0.276-1.418 2.826-3.429 5.667-3.637 5.14-8.126 12.714-8.713 14.704-0.29 0.981-0.155 1.102 2.238 2.002 1.4 0.527 3.404 1.153 4.453 1.391 2.535 0.576 3.312 1.585 1.848 2.4-2.103 1.171-3.842 1.097-8.323-0.355l-4.221-1.368-2.241 2.091c-1.295 1.208-2.614 2.087-3.125 2.082-0.486-0.005-1.881-0.475-3.101-1.044zM12.241 28.904c1.606-1.596 1.938-2.209 1.196-2.209-0.221 0-1.446-0.598-2.723-1.328s-2.478-1.328-2.668-1.328c-0.191 0-0.785 0.867-1.321 1.926-0.788 1.558-0.869 2.034-0.422 2.493 0.529 0.542 3.414 1.981 4.041 2.016 0.165 0.009 1.019-0.697 1.897-1.57zM25.89 28.843c0-0.071-1.394-0.595-3.097-1.163s-3.911-1.535-4.906-2.147c-1.398-0.861-2.291-1.114-3.933-1.114l-2.124 0 2.902 1.184c5.206 2.124 11.16 3.853 11.16 3.24zM21.854 16.069c1.051-1.774 3.333-5.253 5.071-7.73 3.498-4.987 3.489-4.684 0.19-6.162l-1.23-0.551-2.514 3.331c-4.955 6.566-6.589 8.518-9.627 11.502-1.695 1.665-2.959 3.198-2.808 3.406s0.953 0.378 1.782 0.378c1.389 0 1.676-0.225 3.656-2.861 1.182-1.573 2.79-3.665 3.572-4.649s2.279-2.984 3.326-4.445c2.133-2.979 3.956-5.007 3.956-4.401 0 0.221-0.676 1.301-1.502 2.401-2.64 3.516-9.212 14.555-9.212 15.475 0 0.488 0.329 1.196 0.731 1.574 0.691 0.65 0.785 0.558 1.713-1.678 0.54-1.301 1.842-3.817 2.893-5.591zM10.713 22.382c0-1.084-0.288-1.439-1.897-2.34-1.043-0.584-3.052-2.063-4.464-3.286-2.383-2.064-2.567-2.153-2.567-1.243 0 1.264 2.152 3.534 5.788 6.105 1.588 1.123 2.944 2.042 3.013 2.042s0.126-0.575 0.126-1.278zM15.177 22.331c0-0.831-0.193-0.949-1.562-0.949s-1.562 0.117-1.562 0.949c0 0.831 0.193 0.949 1.562 0.949s1.562-0.117 1.562-0.949z"></path>
</svg>
