<!-- Generated by IcoMoon.io -->
<svg version="1.1" xmlns="http://www.w3.org/2000/svg" width="36" height="36" viewBox="0 0 36 36">
<title>youtube</title>
<path d="M35.641 10.8c0 0-0.352-2.482-1.434-3.572-1.371-1.434-2.904-1.441-3.607-1.526-5.034-0.366-12.593-0.366-12.593-0.366h-0.014c0 0-7.559 0-12.593 0.366-0.703 0.084-2.236 0.091-3.607 1.526-1.083 1.090-1.427 3.572-1.427 3.572s-0.359 2.911-0.359 5.829v2.728c0 2.911 0.359 5.829 0.359 5.829s0.352 2.482 1.427 3.572c1.371 1.434 3.171 1.385 3.973 1.54 2.883 0.274 12.241 0.359 12.241 0.359s7.566-0.014 12.6-0.373c0.703-0.084 2.236-0.091 3.607-1.526 1.083-1.090 1.434-3.572 1.434-3.572s0.359-2.911 0.359-5.829v-2.728c-0.007-2.911-0.366-5.829-0.366-5.829zM14.28 22.669v-10.118l9.724 5.077-9.724 5.041z"></path>
</svg>
