<!-- Generated by IcoMoon.io -->
<svg version="1.1" xmlns="http://www.w3.org/2000/svg" width="36" height="32" viewBox="0 0 36 32">
<title>mana-10</title>
<path d="M9.007 31.862c-0.221-0.353-9.007-15.825-9.007-15.862 0-0.023 2.040-3.625 4.533-8.005l4.533-7.964 18.19-0.032 9.107 16-9.089 15.968-18.182 0.032-0.086-0.137zM26.042 24.212c1.324-0.231 2.214-0.705 3.070-1.635 1.048-1.138 1.865-2.88 2.168-4.623 0.158-0.906 0.16-3.446 0-4.458-0.356-2.317-1.028-3.915-2.119-5.042-1.076-1.11-2.368-1.616-4.116-1.613-2.238 0.004-3.78 1.046-4.891 3.305-0.743 1.51-1.172 3.245-1.237 4.999-0.131 3.541 0.999 6.659 2.96 8.163 1.109 0.851 2.602 1.175 4.162 0.904zM26.005 21.297c-0.369-0.186-1.007-0.837-1.354-1.381-0.935-1.465-2.007-4.619-2.38-6.999-0.244-1.554 0.147-2.577 1.167-3.059 0.576-0.272 0.922-0.155 1.583 0.536 1.331 1.391 2.794 5.385 3.062 8.354 0.039 0.436-0.077 1.224-0.238 1.604-0.151 0.358-0.511 0.718-0.907 0.909-0.434 0.209-0.578 0.214-0.933 0.035zM14.687 22.901v-0.916h-1.449l0.035-14.595h-2.091l-0.352 0.331c-0.932 0.876-2.473 1.814-3.381 2.060l-0.286 0.077v0.934c0 0.707 0.019 0.934 0.076 0.933 0.041-0 0.414-0.11 0.828-0.243s0.786-0.243 0.828-0.243c0.060-0.001 0.076 1.114 0.076 5.373v5.374h-1.505v1.832h7.224v-0.916z"></path>
</svg>
