<!-- Generated by IcoMoon.io -->
<svg version="1.1" xmlns="http://www.w3.org/2000/svg" width="37" height="32" viewBox="0 0 37 32">
<title>mana-3</title>
<path d="M4.621 23.996l-4.621-8.004 0.356-0.616c0.196-0.339 2.274-3.937 4.617-7.996l4.261-7.38 18.562 0.041 4.59 7.949c2.524 4.372 4.59 7.973 4.59 8.003s-2.068 3.634-4.595 8.010l-4.595 7.956-18.546 0.041-4.621-8.004zM18.417 25.437c1.696-0.178 3.308-0.816 4.603-1.819 1.237-0.959 2.010-2.052 2.446-3.46 0.242-0.781 0.259-2.055 0.037-2.718-0.718-2.139-2.059-3.245-4.758-3.924l-0.352-0.088 0.232-0.225c0.743-0.72 3.332-3.033 3.656-3.267 0.267-0.193 0.37-0.315 0.336-0.403-0.027-0.069-0.338-0.586-0.691-1.149l-0.643-1.023h-7.239l0.006-0.18c0.006-0.156-0.089-0.213-0.72-0.432l-0.727-0.252-1.017 2.405c-0.582 1.377-0.983 2.426-0.938 2.453 0.043 0.027 0.384 0.154 0.757 0.284l0.678 0.235 0.359-0.331c0.408-0.376 0.782-0.583 1.415-0.784 0.624-0.198 4.411-0.284 4.256-0.097-0.055 0.066-1.197 1.123-2.538 2.349s-2.422 2.273-2.402 2.326c0.020 0.053 0.224 0.346 0.453 0.652l0.416 0.556 0.328-0.119c0.528-0.191 1.45-0.225 2.048-0.075 1.531 0.383 2.95 1.611 3.466 2.999 0.24 0.645 0.241 1.763 0.001 2.211-0.234 0.436-0.706 0.893-1.187 1.148-0.359 0.19-0.483 0.212-1.2 0.207-0.636-0.004-0.896-0.043-1.268-0.189-0.765-0.3-1.866-1.097-2.843-2.059l-0.911-0.896-1.549 1.447c-0.852 0.796-1.549 1.476-1.549 1.511 0 0.094 0.996 0.878 1.64 1.291 1.461 0.937 2.951 1.45 4.32 1.488 0.176 0.005 0.662-0.027 1.080-0.071z"></path>
</svg>
