<!-- Generated by IcoMoon.io -->
<svg version="1.1" xmlns="http://www.w3.org/2000/svg" width="37" height="32" viewBox="0 0 37 32">
<title>mana-8</title>
<path d="M8.956 31.532c-0.978-1.658-8.956-15.495-8.956-15.534 0-0.027 2.071-3.629 4.601-8.006l4.601-7.957 18.524-0.035 9.25 15.998-9.252 16.002h-18.492l-0.276-0.468zM20.144 25.168c1.275-0.241 2.298-0.764 3.218-1.646 0.912-0.874 1.475-1.762 1.828-2.884 0.132-0.419 0.162-0.666 0.16-1.313-0.003-0.929-0.141-1.422-0.596-2.124-0.286-0.441-1.305-1.468-1.879-1.894-0.18-0.133-0.328-0.258-0.328-0.277s0.22-0.222 0.491-0.45c1.261-1.066 1.848-2.269 1.774-3.636-0.045-0.828-0.232-1.38-0.704-2.073-0.72-1.058-1.889-1.732-3.571-2.061-0.867-0.169-2.294-0.155-3.058 0.031-2.551 0.622-4.012 1.79-4.658 3.727-0.211 0.632-0.225 1.742-0.030 2.314 0.278 0.814 0.664 1.427 1.361 2.157l0.288 0.302-0.301 0.242c-1.869 1.503-2.623 2.89-2.54 4.666 0.039 0.834 0.26 1.477 0.77 2.242 1.051 1.579 2.766 2.53 5.029 2.788 0.678 0.077 2.037 0.022 2.746-0.113zM19.284 22.479c-1.297-0.278-2.525-0.95-3.485-1.908-0.72-0.718-0.989-1.265-0.989-2.008 0-0.612 0.128-0.92 0.647-1.558 0.527-0.648 0.585-0.663 1.312-0.346 1.29 0.564 3.824 1.824 4.363 2.169 0.986 0.632 1.479 1.294 1.479 1.986 0 0.647-0.446 1.259-1.142 1.567-0.438 0.194-1.513 0.242-2.185 0.098zM19.696 13.601c-2.608-1.346-3.698-2.367-3.581-3.354 0.054-0.452 0.205-0.721 0.547-0.968 0.826-0.597 2.125-0.536 3.558 0.169 1.051 0.517 1.763 1.276 2.013 2.145 0.134 0.467 0.102 0.813-0.114 1.237-0.157 0.307-0.643 0.854-1.034 1.163l-0.248 0.196-1.141-0.589z"></path>
</svg>
