<!-- Generated by IcoMoon.io -->
<svg version="1.1" xmlns="http://www.w3.org/2000/svg" width="37" height="32" viewBox="0 0 37 32">
<title>mana-7-plus</title>
<path d="M4.577 23.992c-2.568-4.404-4.627-8.108-4.576-8.23s2.136-3.719 4.634-7.992l4.541-7.77h18.642l4.533 7.77c2.493 4.273 4.575 7.871 4.626 7.994s-2.007 3.827-4.574 8.23l-4.668 8.006h-18.49l-4.669-8.008zM14.418 23.566c0.219-4.050 1.36-7.399 3.739-10.97l1.475-2.214-1.202-2.714h-3.786c-3.228 0-3.786-0.045-3.786-0.307 0-0.219-0.224-0.307-0.78-0.307h-0.78l-0.556 2.798c-0.306 1.539-0.523 2.831-0.483 2.871s0.387 0.123 0.769 0.184c0.614 0.098 0.74 0.036 1.071-0.525 0.666-1.127 1.181-1.312 3.918-1.409l2.487-0.088-0.631 0.793c-1.212 1.524-3.358 4.932-4.181 6.639-0.997 2.067-1.659 4.521-1.659 6.149v1.194h4.272l0.113-2.096zM26.532 20.447v-2.147h4.537v-2.249h-4.537v-4.52l-2.166 0.124-0.117 4.396h-4.317v2.249h4.331v4.294h2.269v-2.147z"></path>
</svg>
