<!-- Generated by IcoMoon.io -->
<svg version="1.1" xmlns="http://www.w3.org/2000/svg" width="36" height="32" viewBox="0 0 36 32">
<title>mana-11</title>
<path d="M9.007 31.862c-0.221-0.353-9.007-15.826-9.007-15.862 0-0.023 2.040-3.625 4.533-8.005l4.533-7.964 18.19-0.031 9.107 16.001-9.089 15.969-18.182 0.031-0.086-0.138zM14.869 23.328v-0.916h-1.449l0.034-14.595h-2.091l-0.352 0.331c-0.933 0.876-2.473 1.814-3.381 2.060l-0.286 0.077v0.934c0 0.707 0.018 0.934 0.075 0.933 0.041-0 0.414-0.11 0.828-0.243s0.786-0.243 0.828-0.243c0.060-0.001 0.075 1.114 0.075 5.373v5.374h-1.505v1.832h7.224v-0.916zM29.015 23.328v-0.916h-1.445l-0.015-4.901c-0.020-6.405-0.009-9.154 0.038-9.452l0.038-0.242h-2.122l-0.331 0.307c-0.964 0.893-2.516 1.844-3.403 2.084l-0.286 0.077v0.934c0 0.514 0.024 0.934 0.053 0.934s0.405-0.11 0.835-0.244c0.43-0.134 0.812-0.244 0.85-0.244 0.050 0 0.068 1.425 0.068 5.374v5.374h-1.565v1.832h7.284v-0.916z"></path>
</svg>
