<!-- Generated by IcoMoon.io -->
<svg version="1.1" xmlns="http://www.w3.org/2000/svg" width="37" height="32" viewBox="0 0 37 32">
<title>mana-1</title>
<path d="M4.621 23.996l-4.621-8.004 0.356-0.616c0.196-0.339 2.274-3.937 4.617-7.996l4.261-7.38 18.562 0.041 4.59 7.949c2.524 4.372 4.59 7.973 4.59 8.003s-2.068 3.634-4.595 8.010l-4.595 7.956-18.546 0.041-4.621-8.004zM22.817 24.040v-0.76h-1.766l0.046-16.159-1.965 0-0.53 0.45c-0.995 0.844-2.437 1.662-3.724 2.112l-0.661 0.231-0.023 0.764c-0.013 0.42-0.001 0.764 0.026 0.764s0.496-0.126 1.042-0.28c0.546-0.154 1.030-0.28 1.074-0.28 0.053 0 0.080 2.099 0.080 6.197v6.197l-1.88 0.045-0.046 1.48h8.326v-0.76z"></path>
</svg>
