<!-- Generated by IcoMoon.io -->
<svg version="1.1" xmlns="http://www.w3.org/2000/svg" width="37" height="32" viewBox="0 0 37 32">
<title>mana-5</title>
<path d="M8.956 31.532c-0.978-1.658-8.956-15.495-8.956-15.534 0-0.027 2.071-3.629 4.601-8.006l4.601-7.957 18.524-0.035 9.25 15.998-9.252 16.002h-18.492l-0.276-0.468zM19.399 25.419c0.976-0.158 2.303-0.633 3.13-1.119 0.564-0.331 1.6-1.379 1.946-1.967 0.687-1.167 0.996-2.284 0.995-3.597-0.003-2.879-1.558-4.889-4.349-5.618-0.99-0.258-2.609-0.307-3.606-0.108-0.381 0.076-0.748 0.16-0.815 0.186s-0.12 0.021-0.119-0.011c0.001-0.033 0.136-0.667 0.299-1.41l0.297-1.351h2.944c1.619 0 3.143 0.016 3.387 0.035l0.443 0.035 0.405-1.835c0.223-1.010 0.422-1.906 0.443-1.991 0.037-0.155 0.032-0.156-0.751-0.156h-0.789l-0.195 0.727-7.831 0.069-0.985 4.537c-0.542 2.495-0.965 4.557-0.94 4.581s0.446 0.127 0.936 0.229c0.648 0.134 0.915 0.164 0.981 0.11 0.2-0.166 1.251-0.489 1.788-0.549 1.349-0.152 2.647 0.215 3.788 1.071 1.504 1.129 2.053 3.218 1.218 4.64-0.642 1.094-2.305 1.551-3.879 1.066-1.049-0.323-1.735-0.786-2.987-2.017l-0.906-0.89-2.794 2.946 0.187 0.154c1.265 1.044 3.208 1.911 4.939 2.203 0.638 0.108 2.241 0.126 2.821 0.032z"></path>
</svg>
