<!-- Generated by IcoMoon.io -->
<svg version="1.1" xmlns="http://www.w3.org/2000/svg" width="36" height="32" viewBox="0 0 36 32">
<title>mana-12</title>
<path d="M9.007 31.862c-0.221-0.353-9.007-15.826-9.007-15.862 0-0.023 2.040-3.625 4.533-8.005l4.533-7.964 18.19-0.031 9.107 16.001-9.089 15.969-18.182 0.031-0.086-0.138zM30.348 21.954c0.189-1.343 0.361-2.559 0.382-2.702l0.038-0.26h-0.907c-0.872 0-0.907 0.004-0.907 0.125 0 0.18-0.224 0.607-0.44 0.837-0.102 0.109-0.336 0.259-0.52 0.333-0.306 0.123-0.462 0.136-1.839 0.157-0.913 0.015-1.481 0.001-1.445-0.033 0.033-0.031 0.561-0.479 1.174-0.996 1.858-1.569 3.254-3.067 3.955-4.245 0.291-0.488 0.616-1.285 0.757-1.854 0.181-0.73 0.177-1.946-0.007-2.71-0.222-0.921-0.722-1.767-1.38-2.338-0.448-0.389-1.085-0.803-1.455-0.945-1.441-0.554-3.824-0.521-5.291 0.072-1.174 0.475-2.28 1.524-2.776 2.634-0.613 1.372-0.547 3.21 0.16 4.445 0.276 0.483 1.098 1.326 1.692 1.737l0.436 0.302 0.199-0.21c0.109-0.116 0.655-0.705 1.213-1.309s1.108-1.201 1.222-1.325l0.208-0.225-0.481-0.459c-0.841-0.803-1.398-1.792-1.401-2.488-0.001-0.382 0.283-0.806 0.723-1.075 0.422-0.259 0.68-0.26 1.151-0.006 0.915 0.494 1.674 1.888 1.675 3.074 0.001 0.624-0.452 1.626-1.192 2.638-1.127 1.542-3.284 3.748-5.251 5.37l-0.516 0.425 0.787 2.834h8.019l-0.055 0.675 1.727-0.034 0.344-2.443zM14.327 22.84v-0.916h-1.449l0.034-14.595h-2.091l-0.352 0.331c-0.933 0.876-2.473 1.814-3.381 2.060l-0.286 0.077v0.934c0 0.707 0.018 0.934 0.075 0.933 0.041-0 0.414-0.11 0.828-0.243s0.786-0.243 0.828-0.243c0.060-0.001 0.075 1.114 0.075 5.373v5.374h-1.505v1.832h7.224v-0.916z"></path>
</svg>
