<!-- Generated by IcoMoon.io -->
<svg version="1.1" xmlns="http://www.w3.org/2000/svg" width="32" height="32" viewBox="0 0 32 32">
<title>blizzardapp</title>
<path d="M0.546 31.91c-0.306-0.101-0.461-0.264-0.411-0.431 0.034-0.113 0.116-0.15 0.595-0.264 0.084-0.020 0.261-0.148 0.395-0.284 0.219-0.223 0.247-0.282 0.28-0.598 0.020-0.193 0.072-0.484 0.114-0.647 0.116-0.447 0.179-1.132 0.254-2.776 0.069-1.514 0.059-1.826-0.123-3.831-0.038-0.42-0.046-1.658-0.022-3.566 0.033-2.639 0.046-2.943 0.135-3.13 0.152-0.319 0.199-1.197 0.080-1.494-0.070-0.176-0.1-0.475-0.121-1.205-0.027-0.959-0.025-0.978 0.151-1.635 0.224-0.834 0.209-1.057-0.088-1.322-0.248-0.221-0.231 0.192-0.164-3.862l0.049-2.993 0.155-0.121c0.167-0.131 0.252-0.428 0.193-0.677-0.028-0.12-0.068-0.147-0.218-0.147-0.148 0-0.299-0.099-0.785-0.515-0.713-0.61-1.016-1.023-1.015-1.382 0.001-0.301 0.171-0.703 0.339-0.804 0.196-0.119 1.51-0.168 5.242-0.199l3.347-0.028 0.12 0.205c0.178 0.305 0.344 0.417 0.787 0.531 0.503 0.129 0.671 0.219 0.908 0.487 0.578 0.654 0.706 1.010 0.841 2.338 0.23 2.275 0.207 2.573-0.276 3.615-0.325 0.701-1.147 2.047-1.58 2.589-0.377 0.471-0.501 0.746-0.389 0.865 0.042 0.044 0.279 0.105 0.527 0.135 0.76 0.092 0.854 0.22 0.697 0.955-0.127 0.597-0.089 0.707 0.349 1.006 0.212 0.145 0.369 0.301 0.412 0.409 0.083 0.208 0.079 1.151-0.006 1.755-0.075 0.529-0.077 1.467-0.003 1.613 0.032 0.063 0.157 0.18 0.278 0.262s0.241 0.206 0.266 0.277c0.025 0.071 0.062 1.209 0.084 2.528l0.038 2.398-0.457 0.643 0.038 1.147c0.045 1.35 0.017 1.506-0.414 2.275-0.554 0.988-0.649 1.248-0.799 2.182-0.161 1.002-0.234 1.186-0.516 1.309-0.79 0.343-1.424 0.776-2.097 1.431-0.601 0.585-0.755 0.669-1.298 0.711-0.338 0.026-0.48 0.066-0.647 0.184-0.125 0.088-0.293 0.15-0.403 0.15-0.157 0-0.208-0.034-0.303-0.205-0.155-0.278-0.394-0.284-0.654-0.017l-0.183 0.188-1.723 0.014c-1.368 0.012-1.775-0.004-1.976-0.070zM5.483 28.585c0.426-0.121 0.482-0.157 1.115-0.722 0.762-0.681 1.103-1.054 1.208-1.32 0.040-0.103 0.102-0.595 0.138-1.093 0.051-0.719 0.115-1.121 0.309-1.943 0.308-1.305 0.318-1.669 0.071-2.386-0.243-0.705-0.251-0.851-0.075-1.294 0.284-0.715 0.29-0.768 0.1-1.025-0.393-0.53-0.423-0.754-0.21-1.571 0.167-0.639 0.169-0.736 0.022-1.176-0.098-0.295-0.11-0.427-0.081-0.899l0.034-0.554-0.37-0.353c-0.203-0.194-0.699-0.692-1.102-1.107-0.667-0.687-0.735-0.742-0.76-0.614-0.015 0.077-0.042 0.627-0.060 1.222-0.026 0.841-0.057 1.16-0.14 1.433-0.099 0.325-0.102 0.396-0.037 0.965 0.054 0.472 0.057 0.773 0.010 1.301-0.059 0.68-0.062 0.689-0.265 0.909-0.112 0.122-0.205 0.259-0.205 0.304s0.068 0.158 0.152 0.25l0.152 0.168 0.040 4.799-0.418 0.643 0.068 1.665 0.068 1.665-0.224 0.433c-0.123 0.238-0.224 0.449-0.224 0.469s0.053 0.018 0.117-0.004c0.064-0.022 0.319-0.097 0.566-0.166zM6.387 9.325c0.085-0.024 0.209-0.194 0.386-0.534 0.143-0.274 0.348-0.602 0.454-0.729 0.166-0.198 0.247-0.242 0.575-0.315 0.21-0.046 0.415-0.113 0.455-0.149 0.097-0.086 0.093-0.47-0.014-1.134-0.079-0.494-0.079-0.558 0-0.721 0.127-0.26 0.113-0.661-0.030-0.853-0.147-0.198-0.15-0.411-0.006-0.577 0.333-0.388 0.273-0.567-0.19-0.567-0.352 0-0.5-0.069-0.571-0.268-0.076-0.212-0.291-0.272-0.895-0.247-0.419 0.017-0.559 0.045-0.635 0.124-0.088 0.093-0.098 0.304-0.116 2.367-0.010 1.246-0.003 2.559 0.019 2.919 0.042 0.717 0.009 0.656 0.386 0.71 0.030 0.004 0.112-0.008 0.181-0.028zM11.445 31.809c-0.074-0.093-0.134-0.223-0.134-0.289 0-0.18 0.306-0.45 0.878-0.777 0.604-0.345 0.94-0.692 0.949-0.979 0.004-0.105 0.003-0.376-0.001-0.601-0.008-0.446 0.004-0.479 0.234-0.634 0.202-0.136 0.192-0.397-0.017-0.448-0.178-0.044-0.214-0.253-0.218-1.27l-0.003-0.773 0.173-0.209c0.166-0.201 0.172-0.223 0.137-0.58-0.044-0.458-0.015-0.543 0.221-0.648 0.16-0.071 0.186-0.111 0.186-0.28 0-0.189-0.178-0.451-0.307-0.452-0.028-0-0.126-0.064-0.217-0.141l-0.166-0.14-0.017-1.6c-0.009-0.88-0.003-1.686 0.017-1.792 0.024-0.135 0.076-0.21 0.176-0.25l0.142-0.057-0.041-1.955 0.166-0.083c0.091-0.046 0.186-0.112 0.211-0.147s0.025-0.485 0.001-1c-0.024-0.515-0.045-1.168-0.045-1.453-0.001-0.495 0.005-0.521 0.149-0.632 0.286-0.221 0.277-0.857-0.014-1.017l-0.163-0.089v-4.211l-0.139-0.067c-0.181-0.087-0.189-0.14-0.206-1.243l-0.014-0.933 0.193-0.131c0.491-0.334 0.463-0.261 0.466-1.18l0.003-0.824-0.209-0.203c-0.177-0.172-0.204-0.229-0.174-0.369 0.019-0.091 0.082-0.231 0.14-0.312 0.256-0.357 0.294-0.488 0.29-0.977-0.004-0.45-0.015-0.493-0.175-0.686-0.094-0.113-0.187-0.298-0.207-0.41-0.043-0.242-0.098-0.296-0.356-0.347-0.147-0.029-0.3-0.154-0.635-0.52-0.243-0.265-0.535-0.57-0.649-0.678s-0.233-0.246-0.264-0.307c-0.055-0.108-0.013-0.111 1.496-0.111 1.435 0 1.562 0.008 1.684 0.11 0.1 0.084 0.191 0.103 0.377 0.081 0.239-0.029 0.253-0.021 0.511 0.28 0.146 0.17 0.369 0.42 0.496 0.556 0.42 0.45 0.43 0.491 0.45 1.854l0.018 1.214-0.134 0.054c-0.169 0.068-0.21 0.227-0.137 0.532 0.045 0.187 0.095 0.255 0.238 0.318 0.16 0.071 0.189 0.119 0.246 0.415 0.038 0.193 0.050 0.468 0.028 0.649-0.031 0.265-0.061 0.328-0.19 0.398-0.151 0.083-0.153 0.093-0.189 0.798-0.055 1.088-0.043 3.118 0.024 4.078l0.060 0.859 0.53 0.594 0.042 0.639c0.045 0.692-0.003 3.193-0.081 4.324-0.034 0.488-0.084 0.788-0.164 0.985-0.096 0.236-0.115 0.402-0.115 1.004v0.721l0.186 0.237c0.173 0.22 0.187 0.267 0.19 0.661 0.003 0.233 0.020 0.525 0.039 0.648 0.034 0.214 0.023 0.236-0.273 0.523-0.361 0.351-0.408 0.572-0.171 0.809 0.219 0.218 0.193 0.545-0.063 0.794-0.198 0.192-0.2 0.201-0.167 0.534 0.019 0.187 0.050 0.449 0.070 0.583 0.034 0.23 0.026 0.249-0.142 0.341l-0.178 0.097 0.039 0.835c0.042 0.898 0.028 0.973-0.239 1.277-0.148 0.168-0.128 0.248 0.073 0.288 0.092 0.018 0.11 0.068 0.11 0.306 0 0.335 0.045 0.365 0.633 0.423 0.389 0.038 1.212-0.059 1.408-0.167 0.061-0.034 0.219-0.176 0.351-0.317s0.293-0.259 0.359-0.264c0.251-0.019 0.461 0.025 0.759 0.158 0.701 0.312 1.866 0.304 2.351-0.017 0.505-0.334 0.58-0.359 1.285-0.418 0.789-0.066 7.482-0.049 7.628 0.019 0.194 0.091 0.221 0.443 0.128 1.664-0.106 1.395-0.082 1.607 0.24 2.119l0.235 0.373-1.754 0.015c-1.569 0.014-1.76 0.005-1.804-0.079-0.041-0.078-0.109-0.088-0.39-0.056-0.317 0.036-0.37 0.024-0.78-0.184l-0.44-0.223h-2.735l-0.371-0.468-6.219-0.059-0.276-0.146c-0.248-0.132-0.342-0.146-0.942-0.146-0.619-0-0.68 0.010-0.87 0.146-0.112 0.080-0.331 0.312-0.486 0.514s-0.397 0.439-0.538 0.526l-0.255 0.159-2.408 0.008-0.134-0.169zM18.138 27.042c-0.151-0.177-0.209-0.407-0.146-0.585 0.070-0.197 0.375-0.539 0.729-0.816 0.165-0.129 0.316-0.316 0.402-0.496 0.134-0.281 0.139-0.329 0.168-1.88 0.029-1.54 0.034-1.6 0.164-1.863l0.134-0.273-0.139-0.175c-0.125-0.157-0.139-0.226-0.139-0.68 0-0.354 0.034-0.611 0.113-0.86 0.112-0.352 0.112-0.389 0.056-6.155-0.053-5.452-0.142-10.691-0.19-11.259-0.035-0.417-0.262-0.595-0.868-0.681-0.294-0.042-0.79-0.34-0.951-0.571-0.092-0.132-0.1-0.184-0.048-0.304 0.099-0.23 0.322-0.314 0.869-0.328 0.651-0.016 4.047 0.059 4.206 0.094 0.068 0.015 0.162 0.090 0.21 0.167 0.079 0.127 0.078 0.17-0.004 0.471-0.095 0.347-0.303 0.556-0.552 0.557-0.116 0-0.43 0.316-0.595 0.598-0.056 0.097-0.093 0.281-0.093 0.471 0 0.28 0.020 0.333 0.193 0.511 0.107 0.11 0.193 0.257 0.193 0.329s-0.092 0.257-0.203 0.413l-0.203 0.282 0.016 1.609c0.047 4.667 0.098 6.517 0.193 6.934 0.114 0.499 0.068 0.676-0.222 0.858l-0.2 0.125 0.030 0.941c0.016 0.517 0.057 1.165 0.090 1.438s0.072 0.589 0.086 0.702 0.040 0.376 0.059 0.585l0.034 0.38-0.254 0.261c-0.216 0.223-0.254 0.294-0.254 0.49 0 0.126 0.047 0.312 0.104 0.412 0.079 0.139 0.113 0.354 0.142 0.909 0.028 0.542 0.065 0.783 0.145 0.948 0.092 0.192 0.107 0.348 0.107 1.189v0.967l-0.395 0.582 0.067 0.56c0.077 0.645 0.060 0.625 0.88 1.111 0.878 0.521 1.049 0.704 1.048 1.119-0.001 0.402-0.154 0.503-0.63 0.416-0.242-0.044-0.376-0.042-0.511 0.010-0.161 0.062-0.207 0.055-0.372-0.053-0.104-0.068-0.316-0.139-0.471-0.159-0.253-0.032-1.601 0.061-1.921 0.132-0.070 0.015-0.274 0.172-0.455 0.348-0.347 0.338-0.478 0.384-0.62 0.218zM26.161 26.378l-0.175-0.299-2.149 0.085-0.083-0.21c-0.115-0.291-0.106-0.49 0.023-0.534 0.22-0.074 0.251-0.192 0.258-0.989 0.004-0.422 0.023-0.82 0.042-0.884s0.112-0.163 0.204-0.218c0.156-0.094 0.167-0.123 0.152-0.379-0.016-0.268-0.025-0.281-0.25-0.369-0.281-0.11-0.397-0.257-0.399-0.509-0.001-0.189 0.015-0.214 0.285-0.429 0.174-0.139 0.163-0.199-0.111-0.601-0.192-0.281-0.192-0.284-0.159-0.76 0.042-0.609 0.618-3.615 0.756-3.944 0.057-0.137 0.244-0.439 0.415-0.671 0.373-0.505 0.468-0.697 0.63-1.274 0.187-0.665 0.423-1.098 0.673-1.233 0.115-0.062 0.232-0.159 0.259-0.215s0.062-0.392 0.076-0.746c0.021-0.521 0.059-0.748 0.202-1.195 0.301-0.942 0.563-1.403 1.159-2.041 0.526-0.563 0.886-1.115 1.009-1.547 0.048-0.168 0.046-0.335-0.009-0.705-0.087-0.594-0.076-0.623 0.534-1.359 0.663-0.8 0.949-1.191 1.111-1.515 0.138-0.278 0.147-0.338 0.135-0.985-0.006-0.379-0.040-0.744-0.074-0.81-0.060-0.119-0.091-0.121-1.394-0.099-1.566 0.026-1.541 0.018-2.119 0.651-0.467 0.51-0.621 0.81-0.621 1.204 0 0.343-0.045 0.386-0.407 0.386-0.223 0-0.287 0.025-0.372 0.146-0.162 0.23-0.209 0.662-0.174 1.614 0.036 1.010 0.017 1.148-0.178 1.242-0.129 0.062-0.14 0.095-0.125 0.376l0.015 0.308-0.239 0.018c-0.34 0.026-0.41-0.056-0.366-0.431 0.031-0.262 0.016-0.342-0.103-0.561-0.095-0.174-0.174-0.474-0.25-0.952l-0.11-0.697 0.112-0.297c0.092-0.244 0.106-0.377 0.079-0.736-0.049-0.668-0.116-0.861-0.312-0.907l-0.164-0.038v-1.402c0-1.599 0.020-1.698 0.373-1.806 0.141-0.043 1.338-0.058 3.793-0.046l3.587 0.017-0.017 0.823c-0.017 0.819-0.016 0.823 0.116 0.887 0.112 0.054 0.138 0.12 0.168 0.429 0.050 0.509 0.042 2.018-0.019 3.504-0.046 1.121-0.063 1.272-0.164 1.416-0.095 0.136-0.113 0.251-0.114 0.734-0.001 0.645-0.032 0.741-0.48 1.52-0.167 0.29-0.313 0.634-0.369 0.871-0.093 0.394-0.152 0.54-0.461 1.135-0.152 0.293-0.169 0.383-0.193 1.007-0.032 0.831-0.096 0.981-0.421 0.981-0.168 0-0.263 0.048-0.461 0.232-0.387 0.361-0.443 0.536-0.398 1.25 0.033 0.521 0.026 0.614-0.056 0.7-0.051 0.055-0.152 0.099-0.224 0.099-0.162 0-0.264 0.149-0.62 0.907-0.345 0.734-0.7 1.719-1.157 3.212-0.196 0.641-0.602 1.897-0.903 2.792-0.629 1.873-0.663 2.022-0.499 2.179 0.144 0.138 0.263 0.091 0.887-0.347 0.244-0.171 0.587-0.354 0.761-0.406 1.075-0.32 1.167-0.388 1.536-1.147 0.285-0.585 0.447-0.758 1.060-1.133 0.577-0.353 0.698-0.496 0.687-0.809-0.005-0.138 0.028-0.306 0.075-0.382 0.079-0.128 0.114-0.135 0.536-0.117l0.451 0.019-0.019-0.252c-0.018-0.246-0.015-0.251 0.138-0.234s0.157 0.010 0.174-0.302c0.018-0.33 0.080-0.47 0.209-0.47 0.062 0 0.071 0.57 0.056 3.356-0.010 1.846-0.036 3.386-0.057 3.422s-0.174 0.066-0.34 0.066c-0.311 0-0.315 0.004-0.376 0.3-0.046 0.223-0.235 0.244-1.782 0.195l-1.335-0.042-0.017-0.183c-0.015-0.169-0.034-0.184-0.248-0.2-0.297-0.023-0.544 0.111-0.594 0.323-0.064 0.272-0.128 0.309-0.525 0.309h-0.371l-0.175-0.299z"></path>
</svg>
