<!-- Generated by IcoMoon.io -->
<svg version="1.1" xmlns="http://www.w3.org/2000/svg" width="49" height="36" viewBox="0 0 49 36">
<title>discord</title>
<path d="M14.327 35.974c-1.748-0.105-3.6-0.458-5.393-1.028-3.188-1.013-5.918-2.627-8.058-4.763-0.675-0.674-0.894-0.937-0.875-1.054 0.008-0.051 0.031-0.351 0.051-0.666 0.324-5.119 1.377-10.786 2.847-15.32 0.924-2.85 2.152-5.743 3.252-7.664 0.48-0.838 0.578-0.976 0.817-1.151 0.424-0.311 1.371-0.927 1.915-1.244 0.695-0.406 2.272-1.192 2.975-1.483 1.982-0.819 3.917-1.34 5.749-1.548l0.382-0.044 0.267 0.533c0.147 0.293 0.267 0.545 0.267 0.56 0 0.020-0.148 0.063-0.329 0.107-3.094 0.74-5.735 1.964-8.149 3.777-0.77 0.578-1.995 1.607-1.958 1.643 0.010 0 0.294-0.127 0.633-0.303 4.969-2.573 8.839-3.695 13.814-4.008 0.848-0.053 3.534-0.053 4.382 0 4.975 0.313 8.845 1.436 13.814 4.008 0.339 0.176 0.624 0.312 0.633 0.303 0.041-0.042-1.431-1.273-2.237-1.873-2.099-1.562-4.562-2.684-7.65-3.484-0.301-0.077-0.548-0.154-0.548-0.17 0-0.020 0.121-0.269 0.269-0.565l0.269-0.537 0.11 0.020c0.061 0 0.323 0.040 0.582 0.067 3.118 0.353 6.872 1.863 9.994 4.020 0.596 0.412 0.598 0.414 1.145 1.371 1.106 1.933 2.33 4.817 3.254 7.668 1.47 4.534 2.524 10.201 2.847 15.32 0.020 0.315 0.043 0.615 0.051 0.666 0.020 0.117-0.2 0.381-0.875 1.054-2.823 2.817-6.764 4.765-11.176 5.524-0.798 0.136-1.402 0.207-2.319 0.269l-0.246 0.020-0.928-1.237c-0.783-1.044-0.918-1.24-0.867-1.261 0.033-0.020 0.323-0.125 0.644-0.245 2.534-0.961 4.811-2.331 6.883-4.142 0.452-0.395 1.827-1.762 1.889-1.877 0.036-0.067 0.018-0.061-0.123 0.044-0.091 0.067-0.37 0.265-0.62 0.438-3.802 2.626-8.109 4.172-13.071 4.692-1.367 0.142-2.362 0.192-3.917 0.192s-2.551-0.049-3.917-0.192c-4.962-0.52-9.269-2.066-13.071-4.692-0.25-0.172-0.529-0.37-0.62-0.438-0.141-0.105-0.159-0.113-0.123-0.044 0.062 0.115 1.437 1.482 1.889 1.877 2.072 1.811 4.349 3.182 6.883 4.142 0.321 0.123 0.611 0.232 0.644 0.245 0.051 0.020-0.084 0.217-0.868 1.263-0.648 0.863-0.947 1.237-0.988 1.232-0.032 0-0.135-0.020-0.227-0.020zM17.721 24.704c0.874-0.083 1.608-0.437 2.265-1.091 0.966-0.963 1.449-2.33 1.333-3.768-0.099-1.224-0.559-2.218-1.4-3.029-0.442-0.425-0.811-0.659-1.349-0.852-0.686-0.246-1.528-0.255-2.236-0.024-0.89 0.291-1.734 1.023-2.236 1.94-0.733 1.337-0.784 3.038-0.136 4.461 0.279 0.612 0.888 1.347 1.438 1.736 0.471 0.333 1.086 0.564 1.663 0.625 0.146 0.020 0.273 0.030 0.282 0.032 0.010 0 0.179-0.020 0.377-0.030zM32.631 24.664c0.474-0.073 1.004-0.294 1.433-0.596 0.539-0.38 1.151-1.121 1.428-1.728 0.741-1.626 0.559-3.588-0.46-4.971-0.217-0.295-0.653-0.727-0.939-0.931-1.224-0.874-2.814-0.893-4.058-0.049-0.111 0.075-0.337 0.267-0.501 0.425-0.841 0.811-1.301 1.805-1.4 3.029-0.117 1.438 0.368 2.806 1.333 3.768 0.892 0.889 1.947 1.24 3.164 1.052z"></path>
</svg>
