<!-- Generated by IcoMoon.io -->
<svg version="1.1" xmlns="http://www.w3.org/2000/svg" width="36" height="36" viewBox="0 0 36 36">
<title>github</title>
<path d="M18 0.444c-9.94 0-18 8.058-18 18 0 7.953 5.158 14.7 12.309 17.080 0.9 0.167 1.23-0.391 1.23-0.866 0-0.429-0.017-1.847-0.024-3.351-5.008 1.089-6.065-2.124-6.065-2.124-0.819-2.080-1.999-2.634-1.999-2.634-1.633-1.117 0.123-1.094 0.123-1.094 1.807 0.127 2.759 1.855 2.759 1.855 1.606 2.752 4.211 1.956 5.238 1.496 0.161-1.163 0.628-1.957 1.143-2.407-3.998-0.455-8.201-1.999-8.201-8.896 0-1.965 0.703-3.571 1.855-4.831-0.187-0.454-0.803-2.284 0.174-4.764 0 0 1.512-0.483 4.951 1.845 1.436-0.399 2.975-0.599 4.505-0.606 1.529 0.007 3.070 0.207 4.509 0.606 3.436-2.329 4.945-1.845 4.945-1.845 0.98 2.48 0.364 4.31 0.177 4.764 1.154 1.261 1.853 2.866 1.853 4.831 0 6.914-4.211 8.436-8.219 8.881 0.646 0.559 1.221 1.654 1.221 3.333 0 2.408-0.021 4.347-0.021 4.94 0 0.479 0.324 1.040 1.237 0.864 7.148-2.383 12.299-9.127 12.299-17.078 0-9.941-8.059-18-18-18z"></path>
</svg>
