<!-- Generated by IcoMoon.io -->
<svg version="1.1" xmlns="http://www.w3.org/2000/svg" width="32" height="32" viewBox="0 0 32 32">
<title>hs-logo</title>
<path d="M10.199 31.661c-0.471-0.361-0.519-0.372-1.893-0.433-1.081-0.047-1.543-0.118-1.982-0.303-0.406-0.171-0.815-0.242-1.411-0.244l-0.838-0.003-0.783-0.713c-0.502-0.457-0.757-0.773-0.71-0.881 0.066-0.15 0.782-0.518 1.008-0.518 0.049 0 0.412-0.173 0.807-0.385 0.837-0.449 2.337-0.931 3.301-1.062 0.789-0.107 1.014-0.224 1.869-0.968 0.688-0.6 0.882-0.671 2.798-1.029 1.362-0.255 1.648-0.334 2.735-0.758 2.954-1.153 2.677-0.984 5.116-3.127 2.996-2.634 3.030-2.693 3.199-5.551 0.165-2.793 0.008-4.623-0.471-5.46-0.744-1.303-1.44-2.352-1.804-2.72-0.405-0.41-1.367-0.837-1.887-0.837-0.174 0-0.678-0.082-1.121-0.181-1.108-0.249-3.343-0.158-4.218 0.172-0.338 0.127-0.767 0.232-0.954 0.232-0.625 0-1.882 0.627-2.881 1.436-0.534 0.433-1.015 0.787-1.070 0.787-0.152 0-0.394 0.53-0.395 0.867-0.001 0.165-0.115 0.626-0.253 1.023-0.181 0.518-0.253 1.044-0.253 1.858-0.001 1.499 0.281 2.191 1.225 3.005 0.372 0.321 0.742 0.584 0.823 0.584s0.484-0.15 0.897-0.333 0.83-0.333 0.927-0.333c0.097 0 0.201-0.062 0.231-0.139 0.064-0.162-0.454-1.419-0.745-1.807-0.11-0.147-0.166-0.316-0.123-0.376s0.532-0.262 1.088-0.45c1.138-0.384 1.912-0.431 2.875-0.175 0.343 0.091 0.808 0.166 1.033 0.167 0.291 0.001 0.452 0.072 0.56 0.247 0.083 0.135 0.31 0.395 0.505 0.577 0.407 0.38 0.531 0.591 0.761 1.288 0.090 0.275 0.217 0.561 0.281 0.635s0.079 0.325 0.035 0.557c-0.052 0.27-0.015 0.562 0.104 0.811 0.159 0.332 0.16 0.429 0.010 0.665-0.096 0.152-0.177 0.543-0.18 0.869-0.004 0.498-0.057 0.63-0.334 0.834-0.181 0.133-0.677 0.532-1.101 0.886s-1.006 0.763-1.292 0.908c-0.709 0.359-2.047 0.726-2.644 0.726-0.27 0-0.848 0.109-1.283 0.243-0.591 0.181-1.067 0.241-1.881 0.235-1.345-0.010-1.87-0.217-2.819-1.111-0.835-0.786-1.862-1.683-2.842-2.481-0.579-0.472-0.9-0.868-1.389-1.716-0.391-0.678-0.901-1.354-1.325-1.756-0.872-0.827-0.914-0.999-1.014-4.157-0.071-2.233-0.101-2.484-0.327-2.702-0.348-0.335-0.211-0.482 1.24-1.339 1.012-0.597 1.364-0.886 2.024-1.663 0.44-0.517 1.172-1.207 1.627-1.533 3.647-2.614 6.422-4.029 7.898-4.029 0.478 0 0.762 0.159 1.011 0.564 0.174 0.285 0.463 0.268 1.076-0.061 0.741-0.399 1.162-0.364 1.776 0.146 0.674 0.56 1.338 0.715 2.855 0.668l1.216-0.038 0.168 0.306c0.179 0.326 0.214 0.338 0.952 0.308 0.431-0.017 0.494 0.016 0.618 0.325 0.208 0.521 0.492 0.601 1.35 0.38 0.403-0.104 0.832-0.184 0.955-0.177 0.52 0.028 3.943 3.344 4.602 4.457 0.117 0.198 0.439 0.552 0.715 0.786 0.457 0.388 0.502 0.477 0.502 1.001 0 0.316 0.053 0.785 0.117 1.041s0.184 0.766 0.265 1.133c0.082 0.367 0.321 1.113 0.532 1.659 0.361 0.933 0.38 1.061 0.308 2.168-0.042 0.647-0.134 1.601-0.205 2.12s-0.172 1.3-0.224 1.734c-0.087 0.722-0.16 0.872-0.858 1.767-1.203 1.541-1.183 1.493-1.458 3.481-0.119 0.863-0.234 1.054-0.814 1.363-0.201 0.107-1.318 1.016-2.482 2.019-1.716 1.479-2.238 1.864-2.751 2.032-0.349 0.114-0.966 0.401-1.372 0.638s-0.978 0.527-1.272 0.644c-0.62 0.246-1.83 0.285-2.681 0.086-0.536-0.125-0.606-0.112-1.623 0.319-1.394 0.591-3.145 0.99-4.894 1.117-0.593 0.043-0.694 0.014-1.134-0.323z"></path>
</svg>
