<!-- Generated by IcoMoon.io -->
<svg version="1.1" xmlns="http://www.w3.org/2000/svg" width="36" height="36" viewBox="0 0 36 36">
<title>reddit</title>
<path d="M9 22.5c0-1.243 1.007-2.25 2.25-2.25s2.25 1.007 2.25 2.25c0 1.243-1.007 2.25-2.25 2.25s-2.25-1.007-2.25-2.25zM22.5 22.5c0-1.243 1.007-2.25 2.25-2.25s2.25 1.007 2.25 2.25c0 1.243-1.007 2.25-2.25 2.25s-2.25-1.007-2.25-2.25zM22.609 27.309c0.579-0.457 1.419-0.357 1.876 0.223s0.357 1.42-0.223 1.876c-1.614 1.271-4.072 2.093-6.263 2.093s-4.649-0.821-6.263-2.093c-0.58-0.457-0.679-1.297-0.223-1.876s1.297-0.679 1.876-0.223c0.929 0.732 2.768 1.52 4.609 1.52s3.68-0.788 4.609-1.52zM36 18c0-2.485-2.015-4.5-4.5-4.5-1.692 0-3.164 0.934-3.932 2.314-2.313-1.265-5.131-2.083-8.201-2.271l2.685-6.030 5.14 1.484c0.462 1.313 1.713 2.254 3.184 2.254 1.864 0 3.375-1.511 3.375-3.375s-1.511-3.375-3.375-3.375c-1.285 0-2.403 0.719-2.973 1.776l-5.727-1.653c-0.641-0.185-1.32 0.131-1.591 0.74l-3.648 8.192c-2.993 0.211-5.74 1.020-8.003 2.258-0.769-1.38-2.242-2.313-3.933-2.313-2.485 0-4.5 2.015-4.5 4.5 0 1.839 1.104 3.419 2.685 4.117-0.284 0.845-0.435 1.726-0.435 2.633 0 6.213 7.051 11.25 15.75 11.25s15.75-5.037 15.75-11.25c0-0.907-0.151-1.788-0.435-2.633 1.581-0.698 2.685-2.278 2.685-4.117zM30.375 6.609c0.699 0 1.266 0.567 1.266 1.266s-0.567 1.266-1.266 1.266-1.266-0.567-1.266-1.266 0.567-1.266 1.266-1.266zM2.25 18c0-1.241 1.009-2.25 2.25-2.25 0.897 0 1.672 0.527 2.034 1.288-1.176 0.892-2.15 1.92-2.871 3.049-0.827-0.333-1.413-1.143-1.413-2.088zM18 33.328c-7.223 0-13.078-3.841-13.078-8.578s5.855-8.578 13.078-8.578c7.223 0 13.078 3.841 13.078 8.578s-5.855 8.578-13.078 8.578zM32.337 20.088c-0.721-1.129-1.695-2.158-2.871-3.049 0.361-0.761 1.137-1.288 2.034-1.288 1.241 0 2.25 1.009 2.25 2.25 0 0.945-0.586 1.755-1.413 2.088z"></path>
</svg>
