<!-- Generated by IcoMoon.io -->
<svg version="1.1" xmlns="http://www.w3.org/2000/svg" width="32" height="32" viewBox="0 0 32 32">
<title>twitch</title>
<path d="M6.605 29.035v-2.965h-6.605v-21.719l1.442-1.868c0.793-1.027 1.571-2.006 1.73-2.175l0.288-0.308h28.541v20.113l-2.192 1.624c-3.552 2.631-7.010 5.202-8.183 6.084l-1.094 0.823h-5.021l-1.178 0.874c-0.648 0.481-1.658 1.236-2.244 1.678l-1.066 0.804h-4.415v-2.965zM13.2 25.566l2.877-2.517h5.908l3.499-2.363c1.924-1.3 3.589-2.441 3.699-2.535l0.2-0.172-0.058-15.796h-24.484v20.811l5.181 0.060v4.882l0.076 0.075c0.042 0.041 0.11 0.075 0.151 0.075s1.37-1.133 2.952-2.517zM11.843 12.028v-4.867h2.847v9.734h-2.847v-4.867zM20.157 12.028v-4.867h2.847v9.734h-2.847v-4.867z"></path>
</svg>
