<!-- Generated by IcoMoon.io -->
<svg version="1.1" xmlns="http://www.w3.org/2000/svg" width="32" height="32" viewBox="0 0 32 32">
<title>hunter</title>
<path d="M3.985 30.86c-2.073-1.106-3.985-2.995-3.985-3.937 0-0.256 1.182-1.991 2.626-3.855 3.234-4.173 4.123-6.836 4.23-12.679 0.066-3.596 0.182-4.154 1.196-5.758 1.307-2.068 2.609-3.016 5.307-3.865 2.967-0.934 5.81-1.016 8.239-0.238 7.102 2.273 10.402 5.8 10.402 11.118 0 2.451-0.055 2.611-0.828 2.423-0.662-0.161-1.866 0.867-6.013 5.136-6.852 7.054-12.826 12.832-13.052 12.623-0.1-0.093 1.094-1.499 2.652-3.124s4.375-4.748 6.259-6.937c1.884-2.19 4.594-5.231 6.021-6.758l2.595-2.776-1.178-1.774c-2.045-3.080-5.813-3.941-9.634-2.203-3.12 1.42-3.478 2.273-3.679 8.771-0.169 5.476-0.491 6.757-2.715 10.814-1.031 1.881-3.924 4.166-5.267 4.161-0.576-0.002-2.006-0.515-3.177-1.14zM8.793 30.163l0.934-0.703-1.484-0.259c-0.965-0.168-2.258-0.917-3.696-2.139l-2.212-1.88-0.603 0.856c-0.535 0.76-0.53 0.958 0.050 1.77 0.841 1.179 4.028 3.060 5.183 3.060 0.492 0 1.314-0.317 1.828-0.703zM11.391 27.369c0.854-1.134 0.799-1.712-0.193-2.005-0.455-0.134-1.859-1.084-3.121-2.111s-2.419-1.867-2.573-1.867c-0.154 0-0.764 0.634-1.357 1.41l-1.078 1.41 1.319 1.291c2.817 2.758 5.746 3.541 7.003 1.872zM10.849 20.771c0.396-1.646 0.411-2.987 0.065-5.887-0.556-4.662-0.244-5.831 2.090-7.833 2.782-2.385 4.039-2.85 7.147-2.642 4.147 0.277 6.641 1.783 9.592 5.791l1.117 1.517-0.212-1.65c-0.467-3.63-3.886-6.803-9.056-8.403-2.361-0.731-2.97-0.781-5.155-0.423-3.528 0.578-5.897 1.755-7.19 3.573-1.004 1.412-1.097 1.865-1.135 5.547-0.029 2.872-0.296 4.865-0.939 7.026l-0.898 3.017 1.55 1.235c0.853 0.679 1.767 1.241 2.031 1.249s0.711-0.945 0.993-2.117z"></path>
</svg>
