<!-- Generated by IcoMoon.io -->
<svg version="1.1" xmlns="http://www.w3.org/2000/svg" width="32" height="32" viewBox="0 0 32 32">
<title>mage</title>
<path d="M0.023 29.081l0.023-2.919 6.812-6.409 0.122-3.913 3.043 0.1 0.11-4.424 0.308-0.637c0.169-0.35 0.632-1.366 1.028-2.258l0.72-1.621 7.751-4.388 1.348-1.305 5.3-0.702c2.915-0.386 5.347-0.655 5.404-0.598s-0.207 2.472-0.588 5.367l-0.691 5.263-0.691 0.633c-0.38 0.348-0.691 0.699-0.691 0.781s-0.932 1.761-2.070 3.734l-2.070 3.586-4.17 2.428-4.844 0.119 0.1 3.078h-3.778l-6.484 6.963-6.014 0.042 0.023-2.919zM14.56 22.554v-0.743h-4.431v-4.245h-1.477v5.731h5.908v-0.743zM20.996 17.391c0.58-0.421 1.107-0.838 1.169-0.927 0.111-0.156 2.981-2.384 5.641-4.379l1.324-0.993-3.332-0.122-1.873 1.419c-1.030 0.781-2.253 1.726-2.718 2.101s-1.58 1.187-2.479 1.804l-1.635 1.122v0.756l0.347 0.069c0.191 0.038 0.832 0.035 1.424-0.008l1.078-0.076 1.055-0.766zM15.825 13.055c0.729-1.080 1.539-2.202 1.8-2.494s1.106-1.379 1.878-2.415l1.403-1.885-0.122-3.352-0.983 1.332c-1.423 1.929-4.222 5.559-4.381 5.683-0.075 0.058-0.481 0.585-0.903 1.171l-0.766 1.065-0.037 1.058c-0.020 0.582-0.029 1.225-0.018 1.429l0.019 0.371h0.784l1.325-1.963zM23.686 11.596l1.424-1.069v-0.209c0-0.61-2.915-3.365-3.56-3.365h-0.202l-0.801 1.114c-0.44 0.613-1.205 1.587-1.7 2.165s-0.866 1.083-0.826 1.123c0.088 0.089 2.898-1.388 4.129-2.17 0.489-0.311 0.933-0.52 0.987-0.466 0.132 0.132-0.355 1.176-1.502 3.222-0.524 0.934-0.953 1.779-0.955 1.878l-0.003 0.18 0.791-0.667c0.435-0.367 1.432-1.148 2.216-1.736zM30.536 6.316c0.26-2.16 0.447-4.013 0.415-4.118l-0.058-0.191-1.658 3.057c-0.912 1.681-1.939 3.562-2.283 4.18l-0.625 1.123 3.736-0.123 0.473-3.927zM27.54 6.479c0.902-1.666 1.882-3.459 2.177-3.984l0.537-0.955-0.409 0.348c-0.225 0.192-1.834 1.134-3.575 2.093s-3.391 1.888-3.666 2.062l-0.501 0.317 2.479 1.64 1.033 1.685 0.142-0.088c0.078-0.049 0.88-1.452 1.783-3.118zM27.162 2.561c1.419-0.782 2.543-1.458 2.498-1.503s-1.238 0.069-2.651 0.253-2.929 0.335-3.368 0.335c-0.439 0-1.095 0.060-1.458 0.133l-0.659 0.133v3.782l1.53-0.856c0.841-0.471 2.69-1.495 4.109-2.277z"></path>
</svg>
