<!-- Generated by IcoMoon.io -->
<svg version="1.1" xmlns="http://www.w3.org/2000/svg" width="32" height="32" viewBox="0 0 32 32">
<title>paladin</title>
<path d="M1.569 30.413c-0.863-0.873-1.569-1.745-1.569-1.939s2.049-2.518 4.554-5.166c2.505-2.648 5.193-5.548 5.974-6.444l1.42-1.629-1.909-8.319 2.265-2.943c1.246-1.619 2.371-2.945 2.5-2.947s2.576-0.276 5.437-0.61c2.861-0.333 5.479-0.501 5.817-0.373 0.522 0.198 1.849 3.959 5.762 16.336 0.384 1.214 0.257 1.548-1.472 3.869-1.041 1.397-1.96 2.74-2.043 2.985-0.132 0.391-10.422 2.028-12.937 2.059-0.703 0.009-1.028-0.32-1.284-1.297l-0.343-1.309-4.734 4.657c-2.604 2.561-4.99 4.657-5.302 4.657s-1.274-0.714-2.137-1.587zM4.407 30.23c0.456-0.421 0.329-0.726-0.696-1.672-1.87-1.726-2.981-0.441-1.168 1.35 0.993 0.981 1.126 1.004 1.865 0.322zM7.090 27.71c0.296-0.372 0.018-0.907-0.966-1.854-0.76-0.732-1.496-1.219-1.635-1.081-0.584 0.577-0.185 2.203 0.688 2.807 1.139 0.788 1.376 0.804 1.912 0.128zM11.471 23.388l1.969-1.916-0.41-1.956c-0.559-2.666-0.864-2.846-2.106-1.243-0.587 0.759-1.838 2.116-2.779 3.017-1.674 1.602-1.82 2.22-0.826 3.49 0.777 0.991 2.189 0.518 4.152-1.392zM22.317 23.202c1.823-0.235 3.715-0.515 4.206-0.621 0.878-0.19 3.397-3.433 2.984-3.841-0.117-0.115-2.347 0.139-4.956 0.564-4.724 0.77-4.751 0.781-6.229 2.55l-1.485 1.777h1.083c0.596 0 2.575-0.193 4.397-0.428zM17.391 21.088l0.83-1.151-1.72-6.419c-0.946-3.531-1.913-7.146-2.149-8.033l-0.429-1.614-2.514 3.378 1.724 7.458c2.135 9.238 1.962 8.735 2.779 8.066 0.358-0.293 1.024-1.051 1.48-1.684zM25.544 17.919c2.378-0.379 4.484-0.829 4.68-1.001 0.259-0.227-4.050-15.108-4.568-15.772-0.145-0.187-9.904 1.043-10.327 1.301-0.28 0.171 0.165 2.538 1.251 6.644 0.928 3.508 1.873 7.084 2.102 7.947 0.494 1.866 0.595 1.879 6.862 0.881zM20.658 12.511c-1.383-0.741-1.903-2.387-1.178-3.725 1.347-2.486 5.87-2.486 7.217 0 1.6 2.954-2.62 5.558-6.039 3.725zM24.599 11.059c1.124-0.594 1.028-1.583-0.208-2.14-2.141-0.964-4.707 0.762-2.985 2.006 0.938 0.678 2.075 0.725 3.193 0.134z"></path>
</svg>
