<!-- Generated by IcoMoon.io -->
<svg version="1.1" xmlns="http://www.w3.org/2000/svg" width="32" height="32" viewBox="0 0 32 32">
<title>priest</title>
<path d="M2.528 31.166l-1.335-0.797-0.472-1.389 3.023-4.524-0.905-2.468 0.823-2.040h1.874l-1.172-2.561-0.619 0.287c-0.34 0.158-1.322 0.385-2.182 0.503l-1.563 0.216v-6.405l3.407-5.002 1.147 0.262c0.631 0.144 1.561 0.358 2.067 0.474l0.92 0.212 8.46-4.039 2.207-3.851 7.034-0.045 1.61 1.695v4.17l-1.655 0.827c-0.91 0.455-1.655 0.919-1.655 1.032s0.334 0.946 0.743 1.851l0.743 1.646h6.974v7.161l-4.49 5.722h-0.561c-0.309 0-1.447-0.573-2.53-1.273l-1.969-1.273-9.76 4.761-1.385 1.997-3.182-0.221-2.639 3.905-1.621-0.037-1.335-0.797zM10.543 25.064l-0.22-1.534-1.385-1.565-3.137-0.796-1.387 0.497v1.085l3.802 0.413 0.98 1.514v1.919h1.568l-0.22-1.534zM17.088 22.466l4.69-2.262 0.388-1.143-0.796-0.9-9.584 4.488-0.016 2.355 0.314-0.139c0.173-0.076 2.425-1.156 5.004-2.4zM26.477 21.506c-0.003-0.514-0.127-1.141-0.276-1.392-0.322-0.545-1.716-1.413-2.269-1.413h-0.392l-0.003 0.727-0.003 0.727 1.199 1.132c0.659 0.622 1.323 1.137 1.475 1.143l0.276 0.011-0.006-0.935zM30.897 16.329v-1.784h-0.323c-0.178 0-0.922 0.983-1.655 2.185l-1.332 2.185v2.867l3.31-3.671v-1.784zM11.034 19.253v-0.536l-1.906-0.541-1.519 1.716 2.505 1.202 0.46-0.653c0.253-0.359 0.46-0.894 0.46-1.189zM3.77 15.918c0.152-0.096 0.276-0.518 0.276-0.936v-0.762l-1.873-0.531-0.702 0.49v2.46l1.011-0.273c0.556-0.15 1.136-0.352 1.287-0.448zM15.591 16.139c0.045-0.076 0.833-1.167 1.75-2.425s1.767-2.598 1.887-2.979l0.219-0.693-0.559-0.242c-0.307-0.133-1.678-0.242-3.047-0.242h-2.489l-2.079 2.463c-2.189 2.593-2.362 2.988-1.618 3.686 0.751 0.704 5.567 1.054 5.934 0.431zM22.36 14.211l0.906-1.328h-3.228l-0.482 0.872c-0.265 0.479-0.429 0.919-0.364 0.978 0.524 0.473 1.651 1.012 1.925 0.92 0.185-0.062 0.744-0.711 1.243-1.441zM8.729 11.661l0.446-0.807-1.54-0.552-1.917 2.166h2.565l0.446-0.807zM19.303 7.409l0.946-0.487-0.26-0.896-2.799-0.264-0.736 0.832 0.442 1.303h0.73c0.401 0 1.156-0.219 1.676-0.487zM24.442 5.336l0.937-0.482v-0.903c0-0.497-0.113-1.031-0.252-1.187l-0.252-0.284-1.22 1.336c-0.671 0.735-1.22 1.486-1.22 1.67v0.334h0.534c0.294 0 0.956-0.217 1.471-0.482z"></path>
</svg>
