<!-- Generated by IcoMoon.io -->
<svg version="1.1" xmlns="http://www.w3.org/2000/svg" width="32" height="32" viewBox="0 0 32 32">
<title>rogue</title>
<path d="M8.584 31.793c-1.017-0.319-1.069-0.41-0.884-1.549 0.211-1.295 1.434-5.158 2.245-7.092 0.302-0.72 0.953-1.425 1.678-1.818 0.652-0.353 1.185-0.75 1.185-0.884s0.423-0.421 0.941-0.638c0.517-0.218 1.653-1.131 2.525-2.029 1.359-1.401 1.552-1.764 1.357-2.551-0.17-0.689-0.321-0.821-0.605-0.532-0.208 0.212-0.758 0.381-1.223 0.377-1.061-0.009-3.656-1.185-3.656-1.657 0-0.597-0.944-0.391-1.848 0.404-0.473 0.416-1.385 1.664-2.026 2.773-1.873 3.24-3.218 4.201-5.876 4.201-3.013 0-3.083-0.563-0.782-6.306 0.242-0.603 0.68-1.174 0.975-1.269 0.627-0.202 3.601-2.991 3.601-3.378 0-0.145 0.312-0.601 0.693-1.013l0.693-0.749-0.776-0.42c-1.793-0.97-2.178-2.793-0.709-3.361 1.073-0.414 3.82 0.156 4.608 0.957 0.438 0.445 0.558 0.452 0.81 0.048 0.163-0.261 0.298-0.596 0.301-0.745s0.824-0.652 1.825-1.117c1.168-0.543 1.82-1.051 1.82-1.419 0-0.315 0.244-0.926 0.541-1.358 0.457-0.663 0.744-0.757 1.846-0.607 1.566 0.213 2.221 0.988 2.235 2.643 0.009 1.043-0.194 1.397-1.323 2.305-0.733 0.59-1.571 1.548-1.862 2.129-0.596 1.191-1.569 2.232-2.085 2.232-0.541 0-0.412 0.45 0.482 1.681l0.827 1.139v-1.266c0-0.756 0.346-1.865 0.859-2.754 1.207-2.092 1.499-2.013 1.942 0.528 0.116 0.666 0.755 1.812 1.473 2.643l1.268 1.466 0.86-1.846c0.698-1.5 1.101-1.944 2.147-2.369 1.121-0.456 1.314-0.696 1.498-1.864 0.222-1.409 1.447-2.735 2.527-2.735 1.32 0 3.309 2.44 3.309 4.061 0 0.762-2.061 2.997-2.764 2.997-0.22 0-0.592 0.658-0.826 1.462-0.26 0.895-1.026 2.102-1.975 3.112-1.513 1.611-1.54 1.677-1.155 2.823 0.217 0.645 0.403 2.335 0.414 3.756 0.017 2.327-0.049 2.604-0.668 2.804-0.378 0.122-0.713 0.17-0.744 0.107-1.197-2.376-1.748-3.308-1.956-3.308-0.671 0-2.361 2.020-3.284 3.926-0.564 1.163-1.229 2.286-1.478 2.496s-0.453 0.53-0.453 0.71c0 0.578-1.973 2.223-3.072 2.562-1.69 0.521-4.278 0.659-5.454 0.291zM14.042 30.020c1.534-0.648 2.242-1.544 4.054-5.128 0.97-1.919 1.764-3.028 2.526-3.529 1.29-0.849 1.373-1.234 0.448-2.085-0.797-0.732-0.398-1.079-4.638 4.043-2.916 3.523-5.419 6.218-5.776 6.218-0.371 0-0.122-0.762 0.579-1.773 0.409-0.59 2.42-3.093 4.469-5.562s3.64-4.626 3.538-4.795c-0.297-0.488-1.14-0.355-1.14 0.18 0 0.268-0.558 0.911-1.241 1.428s-1.292 1.059-1.354 1.202c-0.062 0.144-0.695 0.563-1.406 0.931s-1.294 0.78-1.295 0.915c-0.001 0.135-0.448 0.503-0.993 0.818s-0.991 0.788-0.991 1.051c0 0.263-0.362 1.309-0.804 2.325s-0.906 2.396-1.030 3.067l-0.225 1.22h2.015c1.109 0 2.577-0.237 3.263-0.527zM23.954 18.35c-0.442-0.964-1.791-2.911-2.997-4.328s-2.196-2.702-2.2-2.857c-0.004-0.155-0.284-0.647-0.622-1.094l-0.615-0.812-0.227 0.728c-0.446 1.427 1.485 5.526 3.575 7.589 0.798 0.788 1.954 2.358 2.569 3.49l1.118 2.058 0.101-1.511c0.071-1.063-0.137-2.031-0.703-3.263zM5.511 18.795c0.502-0.363 1.418-1.669 2.036-2.904s1.594-2.627 2.168-3.096c0.948-0.774 1.168-1.744 0.395-1.744-0.366 0-2.259 1.922-5.22 5.302-1.975 2.254-2.67 2.818-2.67 2.167 0-0.418 3.496-4.781 5.46-6.814 1.765-1.826 1.789-1.877 1.149-2.434-0.359-0.313-0.653-0.408-0.653-0.212 0 0.468-2.663 3.67-3.052 3.67-0.854 0-2.567 1.864-3.18 3.46-1.31 3.412-1.346 3.262 0.781 3.262 1.332 0 2.138-0.191 2.786-0.66zM25.242 15.206c0.895-0.595 2.456-3.058 2.456-3.873 0-0.275-0.335-0.818-0.744-1.205-0.663-0.628-0.853-0.659-1.737-0.278-1.212 0.521-1.554 0.949-2.282 2.853-0.561 1.466-0.559 1.492 0.196 2.248 0.931 0.934 1.067 0.95 2.112 0.254zM14.41 11.609c-0.972-1.201-2.286-2.874-2.919-3.717-1.152-1.533-2.357-2.217-3.906-2.217-0.749 0-0.667 0.144 0.912 1.597 0.954 0.878 2.269 2.412 2.921 3.408 0.911 1.392 1.574 1.987 2.86 2.568 0.921 0.416 1.725 0.709 1.787 0.651s-0.683-1.088-1.654-2.289zM30.432 8.986c0.804-1.095 0.479-2.431-0.833-3.427-0.809-0.614-0.927-0.622-1.676-0.124-1.248 0.831-1.302 2.321-0.131 3.595 1.114 1.211 1.725 1.201 2.64-0.044zM14.697 8.011c1.19-0.421 1.846-1.531 1.696-2.87-0.092-0.824-0.275-0.995-1.155-1.082-1.871-0.184-3.591 2.654-2.364 3.901 0.484 0.491 0.572 0.494 1.822 0.051zM18.786 3.982c1.215-0.66 0.446-3.349-0.957-3.349-0.673 0-1.712 0.988-1.712 1.627 0 0.563 1.262 2.070 1.734 2.070 0.162 0 0.583-0.157 0.935-0.348z"></path>
</svg>
