<!-- Generated by IcoMoon.io -->
<svg version="1.1" xmlns="http://www.w3.org/2000/svg" width="108" height="36" viewBox="0 0 108 36">
<title>prestige-4</title>
<path d="M16.937 34.106c-1.906-1.106-5.433-3.149-7.837-4.539l-4.371-2.528v-8.105l-1.343-1.319c-1.452-1.425-1.745-2.388-0.726-2.388 0.559 0 0.52-0.119-0.412-1.269-1.345-1.659-2.354-3.688-2.238-4.501 0.065-0.457 0.335-0.677 0.913-0.743 0.452-0.052 0.821-0.124 0.821-0.16s-0.273-0.843-0.608-1.794c-0.542-1.541-0.569-1.924-0.255-3.524 0.197-1.003 0.54-1.867 0.777-1.957 0.233-0.089 0.851 0.239 1.374 0.729 1.423 1.335 3.752 2.827 4.088 2.619 0.163-0.101 0.296-0.444 0.296-0.762 0-0.754 0.601-0.739 2.859 0.071l1.814 0.65 3.952-2.292c2.173-1.261 4.215-2.292 4.538-2.292s2.355 1.025 4.518 2.277l3.932 2.277 1.422-0.511c0.782-0.281 1.562-0.425 1.733-0.319s0.311 0.655 0.311 1.22c0 0.565 0.149 1.027 0.331 1.027 0.615 0 3.732-1.81 5.186-3.011 0.959-0.792 1.544-1.093 1.741-0.896 0.164 0.164 0.268 1.311 0.232 2.55l-0.066 2.253h1.094c1.343 0 2.948 0.728 3.509 1.593 0.231 0.355 0.727 1.586 1.103 2.736s0.87 2.459 1.099 2.911l0.415 0.821h60.59v2.986c0 2.986 0 2.986-0.746 2.986-0.63 0-0.746 0.139-0.746 0.896 0 0.846-0.066 0.896-1.194 0.896h-1.194v5.634l1.188 0.84c0.888 0.628 1.189 1.048 1.194 1.661l0.006 0.821h-11.345v-3.527l1.493-1.072c0.884-0.635 1.493-1.302 1.493-1.635 0-0.623-1.503-2.084-3.698-3.595-1.696-1.167-1.859-1.127-5.034 1.227-2.496 1.85-2.578 2.383-0.63 4.099 0.762 0.671 1.501 1.22 1.642 1.22s0.256 0.739 0.256 1.642v1.642h-11.643v-0.861c0-0.576 0.234-1.014 0.704-1.323 1.589-1.041 1.684-1.282 1.684-4.256v-2.815h-1.194c-1.076 0-1.194-0.074-1.194-0.749v-0.749l-31.749 0.155-1.092 3.393c-1.51 4.695-2.364 5.221-7.329 4.516-2.152-0.306-2.523-0.441-2.523-0.924 0-0.311-0.059-0.566-0.131-0.566s-3.449 1.892-7.504 4.205c-4.055 2.313-7.522 4.259-7.706 4.325s-1.893-0.785-3.799-1.891zM23.823 27.733c1.813-1.003 3.297-1.862 3.297-1.909 0-0.133-1.723 0.29-4.304 1.057l-2.363 0.703-2.962-0.781c-1.629-0.43-2.881-0.699-2.781-0.599 0.147 0.147 5.538 3.272 5.754 3.336 0.034 0.010 1.545-0.803 3.359-1.806zM24.975 25.101c2.412-0.809 4.889-1.684 5.504-1.945l1.12-0.474v-8.786c0-4.832-0.116-8.857-0.258-8.945s-1.452 0.324-2.911 0.915c-1.459 0.591-3.814 1.51-5.235 2.041l-2.582 0.965-4.284-1.55c-2.356-0.853-4.85-1.841-5.541-2.197-2.33-1.199-2.195-1.737-2.106 8.355l0.079 9.002 2.090 0.871c1.149 0.479 2.56 1.003 3.135 1.163s1.314 0.417 1.642 0.57c0.442 0.206 3.868 1.236 4.87 1.463 0.051 0.012 2.067-0.64 4.478-1.449zM39.867 19.675c0.89-0.841 1.576-1.557 1.526-1.591s-0.479-0.355-0.953-0.713c-1.124-0.852-1.791-0.823-3.040 0.129l-1.025 0.782 0.016 6.348 0.929-1.713c0.511-0.942 1.657-2.401 2.547-3.242z"></path>
</svg>
