<!-- Generated by IcoMoon.io -->
<svg version="1.1" xmlns="http://www.w3.org/2000/svg" width="32" height="32" viewBox="0 0 32 32">
<title>blackrock-mountain</title>
<path d="M0.235 26.783l-0.235-0.646 2.349-3.845c1.292-2.114 3.405-5.71 4.696-7.989s2.394-4.211 2.452-4.292c0.057-0.081 0.509 0.119 1.002 0.443s0.973 0.494 1.066 0.377c0.092-0.117 1.135-1.574 2.317-3.238s2.346-3.024 2.586-3.023c0.241 0.001 1.791 2.295 3.445 5.097s3.080 5.18 3.169 5.284c0.089 0.104 0.528-0.16 0.977-0.587l0.815-0.777 2.296 3.681c1.263 2.024 2.866 4.95 3.563 6.502l1.268 2.821-0.49 0.835h-6.885l-1.813-2.427-1.814 2.427h-20.527l-0.235-0.646zM21.672 25.012l1.112-1.496 2.433 3.047 5.846-0.286-1.416-2.993c-1.467-3.101-4.599-8.289-5.005-8.289-0.128 0-0.546 0.299-0.929 0.665l-0.698 0.665-3.228-5.5c-1.776-3.025-3.274-5.5-3.33-5.5s-1.11 1.455-2.343 3.233c-1.233 1.778-2.241 3.468-2.241 3.756v0.522l-1.695-1.615-0.447 0.291c-0.246 0.16-2.065 3.133-4.043 6.608s-3.879 6.783-4.225 7.353l-0.629 1.036h19.725l1.112-1.496zM15.89 24.567c-1.006-0.814-1.829-1.696-1.829-1.96v-0.479l2.734-1.094c3.076-1.23 5.327-2.522 6.779-3.89 0.54-0.509 1.058-0.838 1.15-0.731s1.193 2.101 2.446 4.433l2.279 4.239-0.565 0.963h-2.948l-0.645-0.679c-0.355-0.373-1.083-1.425-1.618-2.336l-0.973-1.658-0.304 0.379c-0.167 0.209-0.946 1.26-1.731 2.336l-1.427 1.957h-1.517l-1.83-1.48zM2.835 24.921c0.433-1.187 7.060-11.764 7.373-11.766 0.167-0.001 1.594 1.15 3.172 2.559l2.869 2.562v1.11l-2.645 1.106c-1.455 0.608-2.736 1.261-2.847 1.45s0.292 0.961 0.895 1.716c0.603 0.755 1.097 1.497 1.097 1.651s-2.285 0.279-5.078 0.279h-5.078l0.243-0.666zM15.909 15.8c-1.722-1.33-3.138-2.606-3.146-2.836-0.021-0.558 3.499-5.339 3.93-5.339 0.364 0 5.243 8.61 5.243 9.252 0 0.477-1.478 1.34-2.294 1.34-0.331 0-2.011-1.088-3.733-2.418z"></path>
</svg>
