<!-- Generated by IcoMoon.io -->
<svg version="1.1" xmlns="http://www.w3.org/2000/svg" width="32" height="32" viewBox="0 0 32 32">
<title>karazhan</title>
<path d="M3.5 31.554c-0.238-0.256-0.343-1.256-0.283-2.685l0.095-2.277 12.014-0.081c6.607-0.044 12.342-0.009 12.744 0.078 0.68 0.148 0.731 0.316 0.731 2.418 0 1.37-0.153 2.396-0.39 2.607-0.617 0.551-24.396 0.495-24.911-0.060zM5.429 23.907c2.67-2.707 3.877-5.908 3.885-10.305l0.005-2.54h12.663l0.005 2.54c0.009 4.397 1.215 7.599 3.885 10.305l1.36 1.379h-23.163l1.36-1.379zM17.751 18.682c-0.009-1.761-0.107-2.056-0.974-2.908l-0.965-0.948-0.965 0.948c-0.867 0.852-0.966 1.147-0.974 2.908l-0.009 1.959h3.896l-0.009-1.959zM7.289 9.877c-1.224-0.638-1.542-1.82-1.542-5.737 0-4.178-0.039-4.11 2.299-4.11h1.272v3.193h3.572v-3.193h5.52v3.193h3.896v-3.224l3.409 0.175 0.18 7.944-2.033 2.071-8.002-0.009c-4.829-0.005-8.228-0.126-8.571-0.305z"></path>
</svg>
