<!-- Generated by IcoMoon.io -->
<svg version="1.1" xmlns="http://www.w3.org/2000/svg" width="41" height="36" viewBox="0 0 41 36">
<title>bubbles22</title>
<path d="M16.875 0v0c9.32 0 16.875 6.114 16.875 13.656s-7.555 13.656-16.875 13.656c-0.895 0-1.773-0.057-2.631-0.166-3.625 3.61-7.811 4.258-11.994 4.353v-0.884c2.259-1.102 4.078-3.11 4.078-5.405 0-0.32-0.025-0.634-0.071-0.942-3.816-2.504-6.257-6.328-6.257-10.613 0-7.542 7.555-13.656 16.875-13.656zM35.016 30.61c0 1.967 1.277 3.688 3.234 4.633v0.757c-3.626-0.081-6.953-0.636-10.095-3.731-0.743 0.093-1.504 0.142-2.28 0.142-3.356 0-6.448-0.906-8.916-2.427 5.086-0.018 9.888-1.647 13.529-4.594 1.835-1.485 3.283-3.228 4.304-5.18 1.082-2.070 1.63-4.274 1.63-6.553 0-0.367-0.016-0.733-0.044-1.096 2.551 2.107 4.122 4.979 4.122 8.145 0 3.673-2.115 6.951-5.422 9.097-0.040 0.264-0.062 0.533-0.062 0.807z"></path>
</svg>
