<!-- Generated by IcoMoon.io -->
<svg version="1.1" xmlns="http://www.w3.org/2000/svg" width="36" height="36" viewBox="0 0 36 36">
<title>cross</title>
<path d="M35.672 28.922c-0-0-0-0-0-0l-10.921-10.921 10.921-10.921c0-0 0-0 0-0 0.118-0.118 0.203-0.255 0.257-0.401 0.149-0.4 0.064-0.868-0.257-1.189l-5.159-5.159c-0.322-0.322-0.789-0.407-1.189-0.257-0.146 0.054-0.284 0.139-0.401 0.257 0 0-0 0-0 0l-10.921 10.921-10.921-10.921c-0-0-0-0-0-0-0.118-0.117-0.255-0.202-0.401-0.257-0.4-0.149-0.868-0.064-1.189 0.257l-5.159 5.159c-0.322 0.322-0.407 0.789-0.257 1.189 0.055 0.146 0.14 0.284 0.257 0.401 0 0 0 0 0 0l10.921 10.921-10.921 10.921c-0 0-0 0-0 0-0.117 0.118-0.203 0.255-0.257 0.401-0.149 0.4-0.064 0.868 0.257 1.189l5.159 5.159c0.322 0.322 0.789 0.407 1.189 0.257 0.146-0.055 0.284-0.14 0.401-0.257 0-0 0-0 0-0l10.921-10.921 10.921 10.921c0 0 0 0 0 0 0.118 0.118 0.255 0.203 0.401 0.257 0.4 0.149 0.868 0.064 1.189-0.257l5.159-5.159c0.322-0.322 0.407-0.789 0.257-1.189-0.055-0.146-0.14-0.284-0.257-0.401z"></path>
</svg>
