<!-- Generated by IcoMoon.io -->
<svg version="1.1" xmlns="http://www.w3.org/2000/svg" width="32" height="32" viewBox="0 0 32 32">
<title>grid</title>
<path d="M0 27.062v-4.938h21.802v9.877h-21.802v-4.938zM21.099 27.062v-4.148h-20.396v8.296h20.396v-4.148zM23.209 27.062v-4.938h8.791v9.877h-8.791v-4.938zM31.297 27.062v-4.148h-7.385v8.296h7.385v-4.148zM0.352 20.543v-0.395h2.11v0.79h-2.11v-0.395zM3.165 20.543v-0.395h2.11v0.79h-2.11v-0.395zM5.978 20.543v-0.395h1.758v0.79h-1.758v-0.395zM10.198 16v-4.938h21.802v9.877h-21.802v-4.938zM31.297 16v-4.148h-20.396v8.296h20.396v-4.148zM8.088 19.16v-1.383h0.703v2.765h-0.703v-1.383zM0 18.568v-1.185h0.703v2.37h-0.703v-1.185zM8.088 15.802v-1.185h0.703v2.37h-0.703v-1.185zM0 15.407v-1.185h0.703v2.37h-0.703v-1.185zM8.088 12.444v-1.383h0.703v2.765h-0.703v-1.383zM0 12.247v-1.185h2.11v0.79h-1.407v1.58h-0.703v-1.185zM2.813 11.457v-0.395h2.11v0.79h-2.11v-0.395zM5.626 11.457v-0.395h2.11v0.79h-2.11v-0.395zM1.055 9.481v-0.395h2.11v0.79h-2.11v-0.395zM3.868 9.481v-0.395h2.11v0.79h-2.11v-0.395zM6.681 9.481v-0.395h2.11v0.79h-2.11v-0.395zM9.495 9.481v-0.395h2.11v0.79h-2.11v-0.395zM12.308 9.481v-0.395h2.11v0.79h-2.11v-0.395zM15.121 9.481v-0.395h2.11v0.79h-2.11v-0.395zM17.934 9.481v-0.395h2.462v0.79h-2.462v-0.395zM21.099 8.889v-0.988h0.703v1.975h-0.703v-0.988zM23.56 9.481v-0.395h2.11v0.79h-2.11v-0.395zM26.374 9.481v-0.395h2.11v0.79h-2.11v-0.395zM29.187 9.481v-0.395h1.758v0.79h-1.758v-0.395zM0 8.296v-1.185h0.703v2.37h-0.703v-1.185zM31.297 8.099v-1.383h0.703v2.765h-0.703v-1.383zM23.209 7.506v-1.185h0.703v2.37h-0.703v-1.185zM21.099 5.926v-1.185h0.703v2.37h-0.703v-1.185zM0 5.136v-1.185h0.703v2.37h-0.703v-1.185zM31.297 4.741v-1.185h0.703v2.37h-0.703v-1.185zM23.209 4.346v-1.185h0.703v2.37h-0.703v-1.185zM21.099 2.765v-1.185h0.703v2.37h-0.703v-1.185zM0 1.58v-1.58h2.11v0.79h-1.407v2.37h-0.703v-1.58zM31.297 1.383v-1.383h0.703v2.765h-0.703v-1.383zM23.209 1.185v-1.185h2.11v0.79h-1.407v1.58h-0.703v-1.185zM2.813 0.395v-0.395h2.11v0.79h-2.11v-0.395zM5.626 0.395v-0.395h2.11v0.79h-2.11v-0.395zM8.44 0.395v-0.395h2.11v0.79h-2.11v-0.395zM11.253 0.395v-0.395h2.11v0.79h-2.11v-0.395zM14.066 0.395v-0.395h2.11v0.79h-2.11v-0.395zM16.879 0.395v-0.395h2.11v0.79h-2.11v-0.395zM19.692 0.395v-0.395h2.11v0.79h-2.11v-0.395zM26.022 0.395v-0.395h2.11v0.79h-2.11v-0.395zM28.835 0.395v-0.395h2.11v0.79h-2.11v-0.395z"></path>
</svg>
