<!-- Generated by IcoMoon.io -->
<svg version="1.1" xmlns="http://www.w3.org/2000/svg" width="32" height="32" viewBox="0 0 32 32">
<title>rarity</title>
<path d="M11.518 29.389c-7.822-5.815-9.855-14.87-5.086-22.664 5.486-8.967 13.65-8.967 19.136 0 4.826 7.888 2.681 17.067-5.315 22.741-4.774 3.388-4.065 3.394-8.734-0.077zM12.765 23.007c-1.935-1.929-3.95-3.077-4.477-2.552-1.321 1.316 5.058 7.867 6.685 6.865 0.721-0.444-0.273-2.385-2.208-4.314zM24.154 20.126c0.778-1.449 1.415-3.819 1.415-5.266 0-3.398-5.059-9.81-7.74-9.81-1.522 0-1.106 1.145 1.567 4.311 3.469 4.108 3.652 5.556 1.397 11.016-1.357 3.284 1.58 3.064 3.361-0.251z"></path>
</svg>
