<!-- Generated by IcoMoon.io -->
<svg version="1.1" xmlns="http://www.w3.org/2000/svg" width="36" height="36" viewBox="0 0 36 36">
<title>stats-dots</title>
<path d="M4.5 31.5h31.5v4.5h-36v-36h4.5zM10.125 29.25c-1.864 0-3.375-1.511-3.375-3.375s1.511-3.375 3.375-3.375c0.099 0 0.198 0.005 0.295 0.014l3.628-6.046c-0.346-0.53-0.548-1.162-0.548-1.842 0-1.864 1.511-3.375 3.375-3.375s3.375 1.511 3.375 3.375c0 0.68-0.202 1.312-0.548 1.842l3.628 6.046c0.097-0.008 0.195-0.014 0.295-0.014 0.075 0 0.149 0.003 0.223 0.008l5.989-10.481c-0.37-0.542-0.587-1.197-0.587-1.902 0-1.864 1.511-3.375 3.375-3.375s3.375 1.511 3.375 3.375c0 1.864-1.511 3.375-3.375 3.375-0.075 0-0.149-0.003-0.223-0.008l-5.989 10.481c0.37 0.542 0.587 1.197 0.587 1.902 0 1.864-1.511 3.375-3.375 3.375s-3.375-1.511-3.375-3.375c0-0.68 0.202-1.312 0.548-1.842l-3.628-6.046c-0.097 0.008-0.195 0.014-0.295 0.014s-0.198-0.005-0.295-0.014l-3.628 6.046c0.346 0.53 0.548 1.162 0.548 1.842 0 1.864-1.511 3.375-3.375 3.375z"></path>
</svg>
