<!-- Generated by IcoMoon.io -->
<svg version="1.1" xmlns="http://www.w3.org/2000/svg" width="36" height="36" viewBox="0 0 36 36">
<title>strikethrough</title>
<path d="M36 18v2.25h-8.244c0.967 1.354 1.494 2.907 1.494 4.5 0 2.492-1.289 4.888-3.536 6.573-2.087 1.565-4.826 2.427-7.714 2.427s-5.627-0.862-7.714-2.427c-2.247-1.685-3.536-4.081-3.536-6.573h4.5c0 2.439 3.091 4.5 6.75 4.5s6.75-2.061 6.75-4.5c0-2.439-3.091-4.5-6.75-4.5h-18v-2.25h10.53c-0.082-0.058-0.164-0.117-0.244-0.177-2.247-1.685-3.536-4.081-3.536-6.573s1.289-4.888 3.536-6.573c2.087-1.565 4.826-2.427 7.714-2.427s5.627 0.862 7.714 2.427c2.247 1.685 3.536 4.081 3.536 6.573h-4.5c0-2.439-3.091-4.5-6.75-4.5s-6.75 2.061-6.75 4.5c0 2.439 3.091 4.5 6.75 4.5 2.777 0 5.416 0.797 7.47 2.25h10.53z"></path>
</svg>
