<!-- Generated by IcoMoon.io -->
<svg version="1.1" xmlns="http://www.w3.org/2000/svg" width="32" height="32" viewBox="0 0 32 32">
<title>goblins-vs-gnomes</title>
<path d="M12.805 31.897c-1.807-0.196-2.050-0.528-1.84-2.516l0.18-1.704-3.495-2.045-1.408 0.793c-0.775 0.436-1.558 0.793-1.741 0.793s-1.114-1.187-2.069-2.637l-1.736-2.637 0.755-0.656c0.415-0.361 1.115-0.931 1.555-1.268 0.763-0.584 0.791-0.704 0.601-2.571l-0.2-1.958-1.62-0.621c-0.891-0.342-1.688-0.8-1.771-1.018-0.172-0.454 1.255-4.974 1.811-5.735 0.341-0.467 0.497-0.468 2.083-0.010l1.715 0.495 2.792-2.945-0.475-1.651c-0.316-1.098-0.375-1.772-0.178-2.013 0.428-0.522 5.302-2.176 5.819-1.975 0.239 0.093 0.68 0.856 0.979 1.696l0.543 1.527 2.030 0.197c1.877 0.183 2.065 0.146 2.485-0.489 0.25-0.377 0.796-1.073 1.212-1.545l0.758-0.859 2.521 1.572c1.386 0.865 2.591 1.759 2.678 1.987s-0.207 1.077-0.653 1.886l-0.811 1.471 2.023 3.47 1.852-0.167c1.091-0.098 1.928-0.042 2.038 0.139 0.103 0.168 0.35 1.645 0.549 3.283 0.415 3.416 0.444 3.364-1.985 3.679l-1.544 0.201-1.248 3.94 1 0.98c1.665 1.631 1.619 1.911-0.698 4.27-1.138 1.159-2.249 2.108-2.468 2.108s-0.956-0.526-1.637-1.168l-1.239-1.168-3.778 1.5-0.54 3.439-1.818 0.031c-1 0.017-2.362-0.027-3.027-0.099zM20.377 25.583c6.625-3.104 8.107-11.817 2.903-17.076-2.125-2.147-4.265-3.039-7.298-3.039-3.115 0-5.167 0.881-7.471 3.207-1.574 1.59-1.963 2.206-2.5 3.965-0.796 2.603-0.802 4.168-0.027 6.704 0.95 3.11 3.614 5.802 6.762 6.834 2.064 0.677 5.484 0.41 7.63-0.595zM13.255 25.417c-2.719-0.902-4.995-2.937-6.168-5.514-0.998-2.193-0.917-6.093 0.17-8.188 1.069-2.059 3.484-4.228 5.438-4.884 2.334-0.784 5.713-0.508 7.79 0.634 6.705 3.689 6.701 13.456-0.008 17.146-1.328 0.73-2.031 0.9-4.036 0.971-1.336 0.047-2.769-0.027-3.186-0.166zM18.095 20.023c2.691-1.407 3.174-5.391 0.888-7.334-3.819-3.248-9.299 0.944-6.986 5.343 1.157 2.2 3.952 3.112 6.097 1.991z"></path>
</svg>
