<!-- Generated by IcoMoon.io -->
<svg version="1.1" xmlns="http://www.w3.org/2000/svg" width="32" height="32" viewBox="0 0 32 32">
<title>journey-to-ungoro</title>
<path d="M2.442 31.414c-2.458-1.154-3.023-3.047-1.864-6.243 0.467-1.286 0.515-1.757 0.254-2.468-0.203-0.551-0.255-1.939-0.142-3.719 0.122-1.92 0.046-3.568-0.237-5.087-0.515-2.765-0.255-4.882 1.058-8.6 0.865-2.451 2.194-5.297 2.473-5.297 0.067 0 0.342 0.726 0.611 1.614s0.933 2.374 1.477 3.303l0.988 1.688-0.167 3.438c-0.148 3.055-0.108 3.5 0.367 3.997 1.308 1.37 2.814 0.113 5.2-4.341 1.703-3.179 3.517-5.239 6.093-6.92 1.506-0.982 3.904-1.938 4.862-1.938 0.563 0 0.591 0.119 0.42 1.755-0.566 5.406-1.302 7.092-4.591 10.512-3.263 3.393-3.816 4.277-3.276 5.234 0.213 0.377 0.713 0.827 1.112 0.999 0.854 0.369 1.262 0.201 3.623-1.485l1.599-1.143 4.324-0.185c2.378-0.102 4.557-0.276 4.842-0.386 2.461-0.951-4.23 6.585-7.033 7.922-0.651 0.311-1.718 0.717-2.369 0.902s-2.317 0.768-3.702 1.295c-1.384 0.527-3.85 1.207-5.479 1.513-2.874 0.539-2.996 0.593-4.146 1.837-2.287 2.475-3.886 2.932-6.296 1.801z"></path>
</svg>
