<!-- Generated by IcoMoon.io -->
<svg version="1.1" xmlns="http://www.w3.org/2000/svg" width="32" height="32" viewBox="0 0 32 32">
<title>mean-streets-of-gadgetzan</title>
<path d="M11.15 31.413c-0.367-0.785-0.135-1.489 0.812-2.471 0.684-0.709 0.747-1.413 0.2-2.239-0.542-0.818-1.033-0.722-2.905 0.569-2.732 1.884-4.389 1.927-6.516 0.171-1.794-1.482-2.571-2.994-2.716-5.286-0.219-3.461 0.996-5.832 3.405-6.646 1.192-0.403 1.241-0.474 1.605-2.309 0.78-3.933 2.374-5.771 5.208-6.006 1.601-0.133 1.649-0.166 2.305-1.58 1.737-3.749 5.225-5.31 8.004-3.581 0.625 0.389 0.872 0.322 2.432-0.659 3.215-2.021 5.397-1.824 7.165 0.646 1.895 2.648 2.333 5.077 1.323 7.333-0.718 1.604-1.599 2.508-3.267 3.353-1.731 0.877-1.913 1.413-0.893 2.632 0.919 1.098 1.297 1.173 2.263 0.449 0.844-0.633 1.869-0.15 1.869 0.88 0 2.041-4.684 7.637-8.597 10.271-3.394 2.285-8.363 4.762-9.994 4.984-1.203 0.163-1.418 0.099-1.703-0.51zM7.148 25.899c0.928-0.628 1.694-2.217 1.694-3.516 0-2.003-1.645-4.223-3.64-4.915-0.904-0.313-2.434 0.613-3.079 1.864-0.693 1.344-0.715 3.801-0.043 4.974 1.132 1.978 3.432 2.701 5.069 1.593zM20.413 24.679c1.693-0.948 4.337-3.979 4.628-5.305 0.215-0.98-0.318-3.292-0.995-4.32l-0.496-0.753-1.661 1.001c-1.335 0.804-2.010 1-3.439 1-1.744 0-1.786 0.021-2.247 1.128-0.438 1.052-3.087 3.786-3.668 3.786-0.143 0-0.26 0.363-0.26 0.808 0 0.883 1.481 3.019 2.416 3.485 1.072 0.534 4.062 0.101 5.722-0.83zM12.884 18.411c0.928-0.549 1.68-2.175 1.68-3.631 0-1.391-1.091-3.626-2.128-4.36-2.592-1.834-5.359 0.395-4.939 3.978 0.184 1.574 0.867 2.75 2.201 3.789 1.113 0.867 1.995 0.929 3.187 0.224zM20.268 13.739c2.376-1.459 2.717-5.533 0.668-7.993-1.032-1.239-2.394-1.712-3.607-1.254-3.414 1.29-3.737 7-0.517 9.138 1.287 0.855 2.194 0.883 3.456 0.108zM29.187 9.49c1.070-1.371 1.268-3.006 0.58-4.788-1.071-2.772-3.551-3.529-5.237-1.598-0.735 0.841-0.927 1.361-1.026 2.777-0.206 2.94 1.479 5.039 3.791 4.723 0.795-0.109 1.373-0.449 1.892-1.114z"></path>
</svg>
