<!-- Generated by IcoMoon.io -->
<svg version="1.1" xmlns="http://www.w3.org/2000/svg" width="32" height="32" viewBox="0 0 32 32">
<title>whispers-of-the-old-gods</title>
<path d="M4.534 29.114c-0.146-0.118-0.558-0.427-0.917-0.686-1.67-1.208-2.068-1.596-2.372-2.308-0.070-0.164-0.376-0.872-0.681-1.575s-0.558-1.301-0.563-1.331c-0.005-0.030 0.066-0.090 0.159-0.134l0.169-0.080 0.225 0.496c0.201 0.444 0.277 0.557 0.716 1.077 0.926 1.095 1.667 1.647 2.981 2.221 0.452 0.197 1.216 0.474 1.24 0.448 0.033-0.035-0.779-1.49-0.995-1.781-1.244-1.68-2.162-3.844-2.564-6.044-0.234-1.283-0.298-3.099-0.152-4.32 0.336-2.806 1.291-5.213 2.912-7.342 0.418-0.548 1.56-1.739 2.084-2.173 1.76-1.456 3.852-2.419 5.991-2.76 3.542-0.564 7.058 0.416 9.899 2.76 0.57 0.47 1.726 1.692 2.177 2.3 1.744 2.355 2.686 4.977 2.878 8.015 0.095 1.495-0.087 3.272-0.484 4.742-0.065 0.24-0.108 0.436-0.097 0.436 0.054 0 0.493-0.38 0.849-0.735 0.66-0.658 1.148-1.384 1.61-2.394 0.112-0.245 0.212-0.446 0.223-0.446 0.064 0 0.34 0.18 0.323 0.21-0.011 0.020-0.095 0.429-0.185 0.909-0.258 1.377-0.473 2.038-0.855 2.625-0.095 0.146-0.402 0.527-0.682 0.846s-0.623 0.733-0.762 0.921c-0.298 0.4-0.731 1.043-0.703 1.043 0.011 0 0.576-0.347 1.256-0.771 1.871-1.167 2.322-1.506 3.263-2.458l0.52-0.527v0.275c0 0.218-0.016 0.291-0.079 0.35-0.043 0.041-0.076 0.107-0.073 0.147 0.006 0.080-0.133 0.464-0.287 0.792-0.197 0.419-0.437 0.734-1.087 1.426-0.6 0.638-0.943 1.052-0.904 1.093 0.013 0.014 1.096-0.419 1.503-0.6l0.152-0.068 0.062 0.154c0.087 0.216 0.080 0.239-0.093 0.342-0.266 0.159-1.091 0.804-1.464 1.145-0.197 0.18-0.463 0.405-0.592 0.5s-0.229 0.176-0.224 0.18c0.005 0.004 0.356-0.030 0.779-0.075 0.847-0.090 0.838-0.092 0.839 0.167 0.001 0.149 0.006 0.147-0.48 0.204-0.171 0.020-0.268 0.065-0.469 0.219-0.315 0.242-0.463 0.32-0.823 0.433-0.157 0.049-0.32 0.116-0.363 0.149-0.069 0.053-0.026 0.063 0.387 0.089 0.707 0.045 0.73 0.052 0.73 0.211-0 0.073-0.014 0.155-0.030 0.182s-0.177 0.058-0.356 0.070c-0.351 0.024-1.19 0.174-1.235 0.221-0.014 0.016 0.030 0.080 0.101 0.142s0.213 0.187 0.316 0.276c0.103 0.089 0.187 0.19 0.187 0.223 0 0.082 0.006 0.080 0.297-0.072 0.396-0.208 0.592-0.36 0.987-0.764 0.202-0.206 0.474-0.442 0.605-0.524 0.276-0.172 0.733-0.299 1.405-0.389l0.216-0.029-0.026 0.413-0.211 0.027c-0.262 0.034-0.593 0.227-0.907 0.531-0.183 0.177-0.291 0.337-0.472 0.7-0.129 0.259-0.317 0.566-0.416 0.681-0.174 0.202-0.189 0.21-0.399 0.21-0.12 0-0.227-0.016-0.239-0.036s0.044-0.101 0.123-0.181c0.208-0.209 0.386-0.475 0.609-0.911l0.196-0.383-0.28 0.272c-0.154 0.15-0.401 0.353-0.548 0.452-0.341 0.23-1.021 0.587-1.021 0.536 0-0.081-0.356-0.477-0.575-0.639-0.284-0.211-0.477-0.554-0.411-0.731l0.041-0.111 0.534 0.011c0.421 0.009 0.546-0.002 0.592-0.050 0.032-0.034 0.049-0.087 0.038-0.118-0.027-0.073-0.388-0.113-0.747-0.081-0.168 0.015-0.286 0.007-0.302-0.019-0.014-0.024 0.016-0.106 0.066-0.182 0.11-0.168 0.721-0.51 1.051-0.587 0.361-0.085 0.387-0.142 0.049-0.11-0.284 0.027-0.296 0.024-0.334-0.073-0.021-0.056-0.040-0.082-0.042-0.059s-0.050-0.042-0.106-0.146c-0.080-0.146-0.091-0.196-0.050-0.22 0.439-0.262 0.839-0.548 1.151-0.824 0.211-0.187 0.378-0.345 0.372-0.352s-0.098 0.026-0.204 0.073c-0.291 0.13-0.389 0.137-0.543 0.038-0.162-0.105-0.163-0.099 0.124-0.585 0.152-0.257 0.42-0.582 0.952-1.158 0.717-0.775 0.9-1.004 1.052-1.314 0.071-0.146 0.071-0.147-0.010-0.085-0.044 0.034-0.29 0.227-0.545 0.428s-0.621 0.468-0.811 0.593c-0.81 0.531-3.193 1.999-3.244 1.999-0.031 0-0.057 0.014-0.058 0.032s-0.027 0.068-0.059 0.111c-0.056 0.077-0.062 0.077-0.202-0.014-0.080-0.051-0.145-0.111-0.145-0.133 0-0.064 1.020-1.639 1.334-2.060 0.157-0.211 0.473-0.594 0.703-0.851 0.704-0.788 0.944-1.18 1.159-1.894 0.144-0.477 0.236-0.899 0.172-0.792-0.359 0.602-0.928 1.288-1.427 1.722-0.431 0.375-1.652 1.326-1.701 1.326-0.058 0-1.46 0.986-1.992 1.401-0.523 0.407-1.235 1.126-1.629 1.642-0.143 0.187-0.273 0.356-0.288 0.376s-0.070 0.010-0.121-0.021c-0.066-0.041-0.096-0.043-0.108-0.009s-0.066 0.037-0.187 0.009c-0.094-0.022-0.175-0.045-0.181-0.052s0.070-0.412 0.17-0.902c0.218-1.071 0.358-1.927 0.469-2.869 0.085-0.724 0.157-1.42 0.148-1.433-0.003-0.004-0.185 0.337-0.405 0.758-0.364 0.696-2.090 3.867-2.125 3.904-0.009 0.009-0.038 0-0.066-0.018s-0.138-0.028-0.244-0.023l-0.193 0.011-0.021-0.184c-0.011-0.101-0.050-0.472-0.085-0.825s-0.135-1.090-0.222-1.639c-0.087-0.549-0.171-1.122-0.188-1.274-0.052-0.481-0.067-0.481-0.274 0.005-0.104 0.243-0.252 0.614-0.329 0.825-0.212 0.577-0.394 0.975-0.775 1.691-0.19 0.357-0.397 0.758-0.461 0.891-0.117 0.245-0.584 1.149-0.61 1.181-0.024 0.030-0.341-0.135-0.341-0.178 0-0.12-0.495-0.705-1.164-1.375-0.812-0.813-0.931-0.961-1.24-1.536l-0.202-0.376-0.001 0.302c-0 0.177 0.052 0.564 0.126 0.936 0.169 0.842 0.154 1.362-0.049 1.705-0.092 0.156-0.44 0.355-0.62 0.355-0.089 0-0.113 0.016-0.095 0.065 0.030 0.081-0.095 0.361-0.161 0.361-0.117 0-0.568-0.374-0.948-0.786-0.226-0.245-0.396-0.404-0.376-0.351s0.074 0.196 0.121 0.32l0.085 0.225-0.092 0.037c-0.050 0.020-0.145 0.097-0.211 0.169s-0.141 0.132-0.168 0.132c-0.027 0-0.207-0.203-0.4-0.451s-0.351-0.441-0.351-0.429c0 0.012 0.046 0.201 0.102 0.419 0.118 0.458 0.118 0.461 0.053 0.461-0.027 0-0.107 0.059-0.178 0.131l-0.129 0.131-0.274-0.268c-0.151-0.147-0.484-0.522-0.741-0.833s-0.474-0.565-0.483-0.565c-0.010 0 0.037 0.158 0.103 0.351 0.103 0.301 0.111 0.358 0.061 0.398-0.033 0.026-0.050 0.056-0.040 0.067s-0.044 0.084-0.122 0.163c-0.078 0.079-0.147 0.135-0.154 0.125-0.124-0.181-1.271-1.651-1.281-1.641-0.036 0.038 0.385 1.254 0.577 1.665 0.245 0.524 0.674 1.175 0.966 1.467 0.327 0.326 0.369 0.725 0.077 0.725-0.15 0-0.482-0.108-0.566-0.183-0.037-0.034-0.123-0.075-0.19-0.091-0.196-0.049-0.763-0.339-1.023-0.524-0.633-0.45-1.568-1.392-2.463-2.481-0.249-0.303-0.459-0.552-0.465-0.552-0.040 0 0.283 0.779 0.609 1.468 0.21 0.445 0.493 1.055 0.629 1.356s0.312 0.622 0.391 0.713c0.151 0.175 0.193 0.395 0.095 0.498-0.067 0.070-0.263 0.064-0.393-0.012-0.060-0.035-0.402-0.171-0.76-0.302-1.469-0.539-2.369-1.057-3.197-1.841-0.352-0.334-0.351-0.336-0.107 0.221 0.34 0.773 0.577 1.009 2.203 2.199 0.838 0.613 1.569 1.193 1.569 1.244 0 0.018-0.124 0.031-0.275 0.030-0.267-0.002-0.283-0.009-0.54-0.217zM22.987 24.3c0.235-0.252 0.526-0.539 0.645-0.638l0.217-0.18-0.246-0.106 0.087-0.224c0.119-0.308 0.447-1.36 0.429-1.379-0.007-0.009-0.093 0.124-0.19 0.294-0.339 0.597-1.263 1.76-1.366 1.719-0.028-0.011-0.085 0.197-0.155 0.563-0.060 0.319-0.121 0.629-0.134 0.687-0.020 0.088 0.003 0.073 0.131-0.085 0.085-0.105 0.347-0.398 0.583-0.65zM16.638 24.689c0.286-0.593 0.786-2.571 0.974-3.847 0.279-1.896 0.165-3.809-0.346-5.808-0.478-1.868-1.276-3.569-2.525-5.379-0.617-0.894-2.086-2.819-2.196-2.879-0.094-0.051-0.87 3.283-1.083 4.653-0.498 3.2-0.065 5.878 1.458 9.026 0.251 0.519 0.357 0.701 0.367 0.633 0.010-0.066 0.043-0.096 0.103-0.095 0.172 0.001 0.272 0.051 0.272 0.134 0 0.099 0.231 0.691 0.435 1.113 0.309 0.642 0.6 1.008 1.358 1.712 0.235 0.218 0.547 0.551 0.693 0.739s0.278 0.342 0.295 0.343c0.016 0 0.105-0.155 0.197-0.345zM20.46 23.466c0.272-0.5 0.494-0.926 0.494-0.947s-0.028-0.038-0.061-0.038c-0.075 0-0.075 0.031 0.019-0.723 0.042-0.339 0.072-0.622 0.065-0.629s-0.098 0.251-0.204 0.574c-0.223 0.684-0.415 1.126-0.734 1.692l-0.23 0.408 0.028 0.362c0.024 0.304 0.036 0.35 0.078 0.286 0.028-0.041 0.273-0.484 0.544-0.984z"></path>
</svg>
