<!-- Generated by IcoMoon.io -->
<svg version="1.1" xmlns="http://www.w3.org/2000/svg" width="32" height="32" viewBox="0 0 32 32">
<title>basic</title>
<path d="M16.219 31.842c-0.123-0.203-1.127-1.898-2.005-3.383-0.28-0.474-0.511-0.892-0.514-0.927s0.144 0.032 0.326 0.149c0.69 0.448 1.131 0.572 2.177 0.612 0.854 0.033 1.056 0.014 1.506-0.143 0.286-0.099 0.664-0.274 0.84-0.389s0.342-0.208 0.367-0.208c0.026 0-0.086 0.243-0.248 0.541s-0.376 0.692-0.476 0.878c-0.1 0.185-0.49 0.882-0.866 1.548s-0.712 1.266-0.745 1.333c-0.1 0.2-0.237 0.196-0.362-0.010zM15.364 26.195c-1.279-0.153-2.62-0.598-3.687-1.222l-0.65-0.381-1.691 0.468c-0.93 0.257-1.729 0.468-1.775 0.468s0.032-0.437 0.18-0.992c0.145-0.545 0.348-1.352 0.451-1.794l0.187-0.802-0.225-0.337c-0.646-0.97-1.307-2.698-1.532-4.008-0.165-0.958-0.128-2.83 0.075-3.798 0.267-1.273 0.804-2.648 1.392-3.56l0.209-0.325-0.432-1.86c-0.238-1.023-0.409-1.883-0.381-1.912 0.044-0.045 0.993 0.207 1.981 0.527 0.181 0.059 0.61 0.187 0.953 0.285l0.624 0.179 0.567-0.335c1.148-0.678 2.497-1.115 3.925-1.273 1.836-0.203 3.905 0.301 5.582 1.361l0.395 0.25 0.796-0.248c0.438-0.136 1.213-0.379 1.722-0.539 0.761-0.239 0.919-0.267 0.886-0.156-0.022 0.075-0.208 0.928-0.414 1.897l-0.373 1.762 0.489 1.023c0.881 1.846 1.182 3.11 1.184 4.99 0.003 1.898-0.306 3.179-1.225 5.073l-0.537 1.107 0.407 1.72c0.224 0.946 0.395 1.733 0.38 1.749s-0.767-0.185-1.672-0.445l-1.645-0.474-0.395 0.249c-1.101 0.696-2.469 1.186-3.763 1.349-0.824 0.104-1.127 0.104-1.989 0.001zM17.673 21.902c0.992-0.261 1.712-0.695 2.522-1.52 0.61-0.622 0.762-0.839 1.126-1.605 0.468-0.986 0.675-1.84 0.675-2.785s-0.207-1.799-0.675-2.785c-0.364-0.766-0.517-0.985-1.133-1.616-0.572-0.585-0.849-0.797-1.404-1.072-1.183-0.587-2.331-0.744-3.531-0.483-3.607 0.785-5.658 4.824-4.226 8.319 1.101 2.687 4.010 4.239 6.646 3.546zM2.359 17.336c-1.152-0.639-2.169-1.219-2.259-1.288-0.219-0.168-0.193-0.191 1.297-1.116 0.668-0.415 1.593-0.989 2.054-1.277s0.867-0.525 0.902-0.527c0.034-0.003-0.031 0.148-0.145 0.334-0.476 0.775-0.569 1.146-0.569 2.278 0 1.158 0.109 1.571 0.62 2.348 0.135 0.205 0.234 0.382 0.221 0.392s-0.967-0.504-2.119-1.143zM28.044 17.954c0.753-1.285 0.784-2.972 0.077-4.292-0.159-0.297-0.272-0.539-0.251-0.539s0.824 0.518 1.785 1.152c0.961 0.634 1.889 1.243 2.061 1.355s0.299 0.247 0.282 0.3c-0.029 0.088-4.054 2.5-4.184 2.507-0.031 0.001 0.072-0.215 0.229-0.482zM14.17 4.030c0.168-0.313 0.714-1.348 1.213-2.3s0.956-1.73 1.015-1.73c0.102 0 2.36 4.408 2.294 4.476-0.017 0.018-0.196-0.081-0.397-0.22-1.152-0.792-2.778-0.753-4.002 0.095-0.197 0.136-0.373 0.248-0.393 0.248s0.102-0.256 0.27-0.57z"></path>
</svg>
