<!-- Generated by IcoMoon.io -->
<svg version="1.1" xmlns="http://www.w3.org/2000/svg" width="32" height="32" viewBox="0 0 32 32">
<title>adventures</title>
<path d="M3.41 31.905c-1.962-0.418-3.405-2.208-3.41-4.229-0.005-2.033 1.472-3.847 3.467-4.26 0.243-0.050 0.51-0.091 0.593-0.091h0.151v-14.726l-0.439-0.066c-1.070-0.159-2.096-0.736-2.74-1.539-0.315-0.393-0.745-1.261-0.862-1.738-0.103-0.419-0.103-1.539-0.001-1.962 0.112-0.463 0.547-1.336 0.866-1.738 0.149-0.188 0.424-0.463 0.611-0.613 0.401-0.319 1.273-0.755 1.735-0.867 0.422-0.102 1.539-0.102 1.958 0.001 0.476 0.117 1.343 0.548 1.735 0.864 0.818 0.658 1.386 1.705 1.56 2.874l0.038 0.253h14.753l0.041-0.342c0.056-0.464 0.323-1.246 0.567-1.662 0.258-0.439 1.055-1.238 1.493-1.496 0.188-0.111 0.574-0.283 0.859-0.382 0.478-0.167 0.579-0.181 1.319-0.181s0.841 0.014 1.319 0.181c0.72 0.251 1.123 0.506 1.676 1.059 0.556 0.555 0.862 1.051 1.084 1.753 0.138 0.436 0.159 0.607 0.159 1.248s-0.022 0.812-0.159 1.248c-0.088 0.278-0.26 0.679-0.384 0.892-0.288 0.496-1.064 1.274-1.559 1.562-0.415 0.242-1.144 0.485-1.646 0.549l-0.311 0.040v14.834l0.439 0.066c1.079 0.161 2.098 0.734 2.737 1.539 0.319 0.402 0.754 1.275 0.866 1.738 0.102 0.423 0.102 1.542-0.001 1.962-0.117 0.477-0.547 1.345-0.862 1.738-0.381 0.475-0.863 0.846-1.489 1.144-0.704 0.336-1.054 0.415-1.839 0.415-0.791 0-1.142-0.080-1.839-0.417-0.974-0.472-1.561-1.059-2.016-2.018-0.266-0.562-0.351-0.847-0.419-1.412l-0.041-0.342h-14.758v0.151c0 0.374-0.202 1.107-0.442 1.602-0.468 0.968-1.054 1.555-2.020 2.024-0.875 0.425-1.847 0.545-2.788 0.345zM5.48 31.581c0.812-0.242 1.497-0.701 2.020-1.353 0.638-0.796 0.888-1.529 0.882-2.593-0.003-0.612-0.026-0.781-0.164-1.188-0.254-0.753-0.492-1.145-1.011-1.667-0.814-0.817-1.699-1.179-2.878-1.179s-2.063 0.362-2.879 1.179-1.177 1.703-1.177 2.884c0 0.739 0.119 1.269 0.421 1.872 0.337 0.674 1.098 1.429 1.795 1.782 0.296 0.15 0.984 0.365 1.306 0.408 0.403 0.053 1.266-0.021 1.684-0.146zM1.008 29.181c-0.077-0.093-0.065-0.138 0.104-0.397 0.057-0.087 0.197-0.312 0.311-0.499 0.306-0.502 0.316-0.518 0.445-0.711 0.19-0.284 0.263-0.405 0.34-0.563 0.040-0.082 0.088-0.162 0.107-0.178s0.098-0.137 0.176-0.267 0.157-0.251 0.176-0.267 0.066-0.103 0.106-0.193c0.081-0.185 0.145-0.204 0.252-0.074 0.084 0.102 0.297 0.121 0.297 0.027 0-0.034 0.067-0.124 0.148-0.2s0.148-0.157 0.148-0.18c0-0.038 0.392-0.551 0.479-0.627 0.019-0.016 0.054-0.083 0.079-0.149 0.043-0.116 0.048-0.115 0.159 0.021 0.063 0.077 0.114 0.175 0.114 0.218s0.020 0.087 0.045 0.097c0.068 0.030 0.311 0.393 0.311 0.463 0 0.034 0.027 0.062 0.059 0.062s0.059 0.028 0.059 0.062c0 0.054 0.212 0.39 0.298 0.473 0.017 0.016 0.070 0.108 0.119 0.203 0.176 0.349 0.206 0.391 0.277 0.391 0.040 0 0.125-0.056 0.189-0.125 0.112-0.121 0.244-0.112 0.244 0.016 0 0.034 0.080 0.164 0.178 0.287s0.178 0.244 0.178 0.267 0.080 0.144 0.178 0.267 0.178 0.251 0.178 0.284c0 0.032 0.040 0.092 0.089 0.133s0.089 0.124 0.089 0.186 0.025 0.112 0.055 0.112c0.030 0 0.072 0.080 0.094 0.178s0.061 0.178 0.087 0.178 0.067 0.073 0.089 0.163c0.022 0.090 0.070 0.181 0.106 0.203 0.047 0.029 0.043 0.068-0.012 0.134-0.063 0.076-0.211 0.093-0.767 0.093-0.648-0.001-0.698-0.010-0.823-0.142-0.073-0.078-0.133-0.171-0.133-0.207 0-0.123-0.122-0.066-0.305 0.142l-0.182 0.208h-2.033c-1.727 0-2.044-0.013-2.107-0.088zM5.201 28.962c0.076-0.071 0.137-0.153 0.137-0.183s0.043-0.096 0.094-0.148c0.086-0.087 0.115-0.071 0.331 0.183l0.236 0.277h1.231l-0.096-0.193c-0.053-0.106-0.119-0.233-0.147-0.282s-0.067-0.136-0.086-0.193c-0.019-0.057-0.058-0.104-0.087-0.104s-0.052-0.068-0.052-0.15c0-0.083-0.040-0.166-0.089-0.185s-0.089-0.059-0.089-0.090c0-0.048-0.212-0.382-0.297-0.467-0.043-0.043-0.168-0.245-0.247-0.401-0.038-0.074-0.096-0.134-0.129-0.134s-0.126 0.060-0.206 0.134c-0.103 0.094-0.153 0.112-0.172 0.058-0.015-0.041-0.063-0.112-0.108-0.156s-0.098-0.151-0.12-0.237c-0.021-0.086-0.061-0.156-0.089-0.156-0.047 0-0.13-0.131-0.303-0.476-0.041-0.082-0.149-0.246-0.24-0.365s-0.166-0.235-0.166-0.258-0.056-0.121-0.125-0.218c-0.119-0.168-0.13-0.171-0.237-0.074-0.062 0.056-0.112 0.127-0.112 0.158 0 0.050-0.095 0.182-0.59 0.826-0.067 0.087-0.122 0.206-0.122 0.264 0 0.087-0.031 0.076-0.177-0.064-0.172-0.166-0.18-0.167-0.297-0.061-0.066 0.060-0.12 0.141-0.12 0.181s-0.038 0.104-0.084 0.142c-0.046 0.038-0.127 0.162-0.181 0.275s-0.12 0.205-0.147 0.205c-0.028 0-0.068 0.073-0.091 0.163s-0.060 0.177-0.084 0.193-0.107 0.137-0.185 0.268c-0.078 0.131-0.157 0.251-0.176 0.267s-0.067 0.097-0.107 0.178c-0.082 0.169-0.168 0.308-0.345 0.565-0.287 0.415-0.419 0.386 1.767 0.386 1.938 0 1.969-0.001 2.104-0.129zM4.299 28.84c-0.13-0.105-0.249-0.207-0.266-0.227s-0.076-0.053-0.133-0.074c-0.186-0.069-0.119-0.245 0.134-0.355 0.131-0.057 0.262-0.103 0.292-0.103 0.054 0 0.191-0.063 0.627-0.291 0.131-0.068 0.317-0.162 0.415-0.209s0.243-0.154 0.322-0.239c0.183-0.196 0.257-0.194 0.349 0.010 0.111 0.247 0.389 0.745 0.525 0.941 0.066 0.096 0.164 0.263 0.217 0.373 0.083 0.171 0.085 0.211 0.014 0.282-0.095 0.095-0.625 0.115-0.625 0.024 0-0.033-0.029-0.060-0.065-0.060-0.074 0-0.286-0.238-0.291-0.327-0.002-0.033-0.079-0.151-0.172-0.263l-0.168-0.203-0.11 0.174c-0.061 0.096-0.144 0.195-0.186 0.221s-0.076 0.081-0.076 0.123c0 0.115-0.318 0.395-0.45 0.395-0.064 0-0.223-0.086-0.353-0.191zM1.482 28.831c0-0.044 0.093-0.203 0.208-0.353s0.208-0.291 0.208-0.314 0.067-0.13 0.148-0.237c0.082-0.107 0.148-0.213 0.148-0.235s0.080-0.141 0.178-0.265c0.098-0.124 0.178-0.244 0.178-0.267s0.080-0.144 0.178-0.267c0.098-0.124 0.178-0.255 0.178-0.291s0.010-0.066 0.023-0.066c0.066 0 0.334 0.17 0.486 0.309 0.095 0.087 0.314 0.284 0.485 0.438 0.308 0.277 0.404 0.501 0.214 0.501-0.054 0-0.207 0.051-0.341 0.113s-0.345 0.158-0.469 0.212c-0.262 0.115-0.258 0.214 0.022 0.521 0.095 0.105 0.174 0.211 0.174 0.237s-0.454 0.046-1.008 0.046c-0.809 0-1.008-0.016-1.008-0.081zM4.715 27.467c-0.065-0.039-0.256-0.184-0.425-0.323s-0.329-0.254-0.356-0.255c-0.113-0.005-0.449-0.351-0.414-0.425 0.080-0.168 0.193-0.317 0.349-0.461 0.090-0.082 0.163-0.179 0.163-0.216 0-0.111 0.226-0.28 0.324-0.243 0.050 0.019 0.091 0.076 0.091 0.126s0.020 0.091 0.045 0.091c0.047 0 0.068 0.035 0.301 0.494 0.076 0.15 0.176 0.304 0.222 0.343s0.084 0.103 0.084 0.144c0 0.041 0.053 0.142 0.119 0.225 0.173 0.22 0.151 0.375-0.068 0.485s-0.276 0.111-0.436 0.016zM28.919 31.587c0.652-0.203 1.137-0.505 1.666-1.035 0.537-0.538 0.832-1.018 1.043-1.699 0.115-0.37 0.138-0.572 0.135-1.189-0.003-0.653-0.023-0.8-0.168-1.218-0.242-0.699-0.477-1.073-1.012-1.61s-1.015-0.833-1.695-1.045c-0.369-0.115-0.571-0.138-1.186-0.136-0.652 0.003-0.799 0.023-1.216 0.168-0.647 0.225-1.042 0.462-1.519 0.913-0.702 0.663-1.085 1.391-1.259 2.393-0.076 0.435-0.077 0.58-0.008 1.040 0.149 0.989 0.447 1.623 1.079 2.295 0.603 0.64 1.268 1.022 2.122 1.218 0.507 0.116 1.488 0.070 2.017-0.095zM25.869 30.016c-0.042-0.051-0.062-0.234-0.052-0.461l0.018-0.377h3.975l0.018 0.377c0.011 0.227-0.010 0.41-0.052 0.461-0.057 0.069-0.403 0.084-1.953 0.084s-1.896-0.015-1.953-0.084zM25.983 28.934c0-0.020 0.096-0.144 0.214-0.275 0.381-0.422 0.52-0.816 0.547-1.545l0.023-0.639h2.004v0.463c0 0.754 0.254 1.464 0.653 1.826 0.065 0.059 0.118 0.13 0.118 0.157s-0.801 0.050-1.78 0.050c-0.979 0-1.78-0.017-1.78-0.037zM28.119 27.8c0-0.287-0.025-0.364-0.16-0.505l-0.16-0.167-0.167 0.16c-0.145 0.139-0.167 0.204-0.167 0.505v0.346h0.653v-0.339zM26.392 26.18l-0.175-0.176 0.034-1.402 0.504-0.037v0.542h0.593v-0.535h0.831v0.535h0.653v-0.542l0.504 0.037 0.034 1.402-0.351 0.351h-2.451l-0.175-0.176zM23.483 27.104c0.081-0.542 0.198-0.901 0.459-1.402 0.449-0.861 1.044-1.431 1.952-1.869 0.557-0.269 0.837-0.353 1.409-0.422l0.341-0.041v-14.831l-0.371-0.040c-0.534-0.058-1.26-0.293-1.706-0.553-0.474-0.276-1.265-1.059-1.536-1.52-0.262-0.445-0.517-1.217-0.571-1.721l-0.043-0.401h-14.743l-0.041 0.372c-0.064 0.581-0.147 0.865-0.42 1.441-0.456 0.962-1.056 1.563-2.016 2.020-0.561 0.267-0.846 0.352-1.409 0.42l-0.341 0.041v14.727h0.151c0.325 0 1.087 0.199 1.507 0.393 0.937 0.433 1.648 1.132 2.11 2.073 0.244 0.498 0.444 1.219 0.444 1.603v0.151h14.757l0.065-0.44zM13.434 24.266c-0.219-0.193-0.242-0.199-0.883-0.231-0.504-0.025-0.72-0.063-0.925-0.162-0.19-0.092-0.38-0.129-0.658-0.13l-0.391-0.001-0.365-0.381c-0.234-0.244-0.353-0.413-0.331-0.471 0.031-0.080 0.365-0.277 0.47-0.277 0.023 0 0.192-0.093 0.377-0.206 0.39-0.24 1.090-0.498 1.54-0.568 0.368-0.057 0.473-0.12 0.872-0.518 0.321-0.321 0.411-0.359 1.305-0.55 0.635-0.136 0.768-0.178 1.275-0.405 1.378-0.617 1.249-0.526 2.386-1.672 1.397-1.408 1.413-1.44 1.492-2.968 0.077-1.493 0.003-2.472-0.22-2.919-0.347-0.697-0.672-1.258-0.841-1.455-0.189-0.219-0.638-0.447-0.88-0.447-0.081 0-0.316-0.044-0.523-0.097-0.517-0.133-1.559-0.085-1.967 0.092-0.158 0.068-0.358 0.124-0.445 0.124-0.292 0-0.878 0.335-1.344 0.768-0.249 0.231-0.474 0.421-0.499 0.421-0.071 0-0.184 0.284-0.184 0.463-0 0.088-0.053 0.335-0.118 0.547-0.084 0.277-0.118 0.558-0.118 0.993-0.001 0.802 0.131 1.172 0.571 1.607 0.174 0.172 0.346 0.312 0.384 0.312s0.226-0.080 0.418-0.178c0.193-0.098 0.387-0.178 0.432-0.178s0.094-0.033 0.108-0.074c0.030-0.087-0.212-0.759-0.348-0.966-0.051-0.079-0.077-0.169-0.058-0.201s0.248-0.14 0.507-0.24c0.531-0.205 0.892-0.23 1.341-0.094 0.16 0.049 0.377 0.089 0.482 0.089 0.136 0 0.211 0.039 0.261 0.132 0.039 0.072 0.145 0.211 0.236 0.309 0.19 0.203 0.248 0.316 0.355 0.689 0.042 0.147 0.101 0.3 0.131 0.34s0.037 0.174 0.016 0.298c-0.024 0.144-0.007 0.301 0.049 0.434 0.074 0.178 0.075 0.229 0.005 0.356-0.045 0.081-0.083 0.29-0.084 0.465-0.002 0.266-0.026 0.337-0.156 0.446-0.085 0.071-0.316 0.284-0.514 0.474s-0.469 0.408-0.603 0.486c-0.331 0.192-0.955 0.388-1.233 0.388-0.126 0-0.395 0.058-0.598 0.13-0.275 0.097-0.498 0.129-0.878 0.125-0.628-0.005-0.872-0.116-1.315-0.594-0.389-0.42-0.869-0.9-1.325-1.327-0.27-0.252-0.42-0.464-0.648-0.918-0.183-0.363-0.42-0.724-0.618-0.939-0.407-0.442-0.426-0.534-0.473-2.223-0.033-1.194-0.047-1.328-0.152-1.445-0.162-0.179-0.099-0.258 0.579-0.716 0.472-0.319 0.636-0.474 0.944-0.889 0.205-0.277 0.547-0.645 0.759-0.82 1.701-1.398 2.995-2.155 3.684-2.155 0.223 0 0.356 0.085 0.472 0.302 0.081 0.152 0.216 0.144 0.502-0.033 0.346-0.213 0.542-0.195 0.828 0.078 0.314 0.299 0.624 0.382 1.332 0.357l0.567-0.020 0.078 0.163c0.084 0.175 0.1 0.181 0.444 0.165 0.201-0.010 0.231 0.009 0.288 0.174 0.097 0.279 0.23 0.321 0.63 0.203 0.188-0.056 0.388-0.098 0.445-0.095 0.242 0.015 1.839 1.788 2.146 2.383 0.055 0.106 0.205 0.295 0.334 0.42 0.213 0.207 0.234 0.255 0.234 0.535 0 0.169 0.025 0.42 0.055 0.557s0.086 0.41 0.124 0.606c0.038 0.196 0.15 0.595 0.248 0.887 0.169 0.499 0.177 0.567 0.144 1.159-0.019 0.346-0.063 0.856-0.096 1.134s-0.080 0.695-0.104 0.927c-0.040 0.386-0.074 0.467-0.4 0.945-0.561 0.824-0.552 0.798-0.68 1.861-0.056 0.461-0.109 0.564-0.38 0.729-0.094 0.057-0.615 0.543-1.158 1.080-0.8 0.791-1.044 0.997-1.283 1.086-0.163 0.061-0.451 0.214-0.64 0.341s-0.456 0.282-0.593 0.344c-0.289 0.132-0.854 0.152-1.25 0.046-0.25-0.067-0.283-0.060-0.757 0.171-0.65 0.316-1.467 0.53-2.283 0.597-0.277 0.023-0.324 0.008-0.529-0.173zM5.546 8.168c0.652-0.203 1.137-0.505 1.666-1.035 0.537-0.538 0.832-1.018 1.043-1.699 0.115-0.37 0.138-0.572 0.135-1.189-0.003-0.653-0.023-0.8-0.168-1.218-0.242-0.699-0.477-1.073-1.012-1.61s-1.015-0.833-1.695-1.045c-0.369-0.115-0.571-0.138-1.186-0.136-0.652 0.003-0.799 0.023-1.216 0.168-0.698 0.243-1.071 0.478-1.606 1.014s-0.77 0.909-1.012 1.609c-0.145 0.418-0.165 0.565-0.167 1.218-0.003 0.617 0.020 0.819 0.135 1.189 0.193 0.621 0.49 1.129 0.94 1.607 0.607 0.644 1.27 1.026 2.125 1.222 0.507 0.116 1.488 0.070 2.017-0.095zM1.893 6.409c-0.079-0.085-0.224-0.19-0.322-0.234-0.256-0.115-0.564-0.423-0.564-0.562 0-0.066 0.027-0.12 0.059-0.12s0.059-0.034 0.059-0.076c0-0.042 0.14-0.212 0.311-0.378 0.309-0.299 0.519-0.427 0.519-0.316 0 0.032 0.050 0.058 0.111 0.058s0.145 0.040 0.185 0.089c0.041 0.049 0.107 0.089 0.148 0.089s0.108 0.040 0.148 0.089c0.050 0.060 0.184 0.089 0.415 0.089s0.365-0.029 0.415-0.089c0.041-0.049 0.16-0.089 0.265-0.089 0.116 0 0.233-0.047 0.299-0.119 0.059-0.065 0.138-0.119 0.175-0.119s0.172-0.053 0.3-0.119c0.128-0.065 0.267-0.119 0.309-0.119s0.076-0.027 0.076-0.060c0-0.033 0.037-0.060 0.082-0.060s0.113-0.037 0.15-0.083c0.038-0.046 0.161-0.1 0.274-0.122s0.206-0.064 0.206-0.095c0-0.031 0.051-0.057 0.114-0.057 0.151 0 0.873-0.374 0.963-0.5 0.021-0.030 0.208-0.056 0.415-0.060 0.316-0.004 0.398 0.016 0.51 0.128 0.253 0.254 0.146 0.966-0.146 0.966-0.034 0-0.095 0.040-0.136 0.089s-0.135 0.089-0.211 0.089-0.177 0.040-0.226 0.089c-0.131 0.131-0.684 0.121-0.785-0.015-0.064-0.087-0.095-0.092-0.184-0.029-0.059 0.041-0.147 0.092-0.196 0.113-0.102 0.044-0.605 0.436-0.659 0.514-0.034 0.049-0.21 0.16-0.407 0.258-0.048 0.024-0.149 0.11-0.224 0.191-0.126 0.136-0.269 0.237-0.49 0.344-0.049 0.024-0.116 0.078-0.148 0.121s-0.227 0.095-0.432 0.116c-0.205 0.021-0.387 0.061-0.404 0.089s-0.212 0.051-0.433 0.051c-0.355 0-0.418-0.018-0.545-0.154zM2.881 4.854c-0.019-0.019-0.035-0.077-0.035-0.129s-0.025-0.133-0.055-0.179c-0.045-0.071-0.070-0.072-0.148-0.008-0.080 0.066-0.113 0.062-0.212-0.028-0.126-0.114-0.167-0.526-0.058-0.593 0.075-0.046 0.078-0.308 0.004-0.354-0.031-0.019-0.094-0.112-0.142-0.207-0.081-0.163-0.077-0.181 0.074-0.326 0.088-0.084 0.191-0.153 0.23-0.153s0.071-0.024 0.071-0.053c0-0.029 0.181-0.063 0.402-0.076 0.32-0.018 0.429-0.050 0.536-0.158 0.161-0.161 0.304-0.219 0.677-0.274 0.154-0.023 0.296-0.066 0.315-0.097s0.086-0.056 0.15-0.056c0.063 0 0.115-0.040 0.115-0.089 0-0.135 0.141-0.107 0.297 0.060 0.077 0.082 0.188 0.149 0.248 0.149 0.083 0 0.108 0.046 0.108 0.199 0 0.123 0.045 0.24 0.119 0.306 0.065 0.059 0.12 0.15 0.121 0.202s0.041 0.147 0.089 0.21c0.048 0.063 0.087 0.205 0.087 0.315 0 0.171-0.029 0.212-0.204 0.285-0.112 0.047-0.221 0.113-0.241 0.147s-0.062 0.046-0.092 0.028c-0.030-0.018-0.111-0.003-0.181 0.035-0.085 0.046-0.169 0.050-0.253 0.012-0.144-0.064-0.274-0.036-0.274 0.060 0 0.036-0.045 0.114-0.099 0.175-0.096 0.106-0.105 0.105-0.263-0.048-0.142-0.136-0.176-0.146-0.249-0.073-0.047 0.047-0.105 0.15-0.13 0.231-0.068 0.216-0.326 0.339-0.326 0.155 0-0.044-0.050-0.125-0.111-0.181-0.105-0.095-0.113-0.095-0.147 0.005-0.073 0.22-0.36 0.567-0.42 0.508zM28.475 8.197c1.239-0.235 2.29-1.046 2.847-2.199 0.972-2.010 0.141-4.403-1.868-5.379-2.006-0.974-4.394-0.141-5.368 1.872-0.814 1.682-0.374 3.679 1.076 4.884 0.438 0.364 1.169 0.707 1.742 0.817 0.823 0.158 0.763 0.158 1.572 0.004zM25.902 6.652c-0.019-0.049-0.069-0.089-0.113-0.089s-0.196-0.12-0.34-0.267c-0.144-0.147-0.292-0.267-0.329-0.267-0.25 0-0.357-0.551-0.145-0.743 0.121-0.11 0.296-0.417 0.296-0.52 0-0.031-0.085-0.136-0.189-0.233-0.256-0.24-0.345-0.431-0.345-0.74 0-0.302 0.061-0.324 0.386-0.142 0.266 0.15 0.388 0.151 0.427 0.004 0.027-0.103 0.055-0.090 0.261 0.114 0.127 0.126 0.231 0.282 0.231 0.346 0 0.144 0.096 0.228 0.327 0.283 0.226 0.054 0.385 0.192 0.385 0.333 0 0.060 0.040 0.11 0.089 0.11s0.089 0.027 0.089 0.060c0 0.033-0.027 0.060-0.059 0.060s-0.059 0.054-0.059 0.121c0 0.147 0.17 0.225 0.242 0.111 0.041-0.064 0.053-0.056 0.055 0.036 0.007 0.289 0.369 0.44 0.571 0.238 0.176-0.176 0.674-0.028 0.674 0.2 0 0.037 0.042 0.067 0.093 0.067s0.083-0.020 0.071-0.045c-0.012-0.025-0.057-0.117-0.101-0.206-0.065-0.131-0.066-0.179-0.005-0.253 0.042-0.050 0.109-0.091 0.15-0.091s0.107-0.039 0.146-0.086c0.075-0.091 0.192-0.053 0.432 0.14 0.084 0.068 0.104 0.068 0.104 0.004 0-0.050 0.055-0.027 0.148 0.061 0.107 0.101 0.148 0.202 0.148 0.362 0 0.122 0.023 0.231 0.051 0.242 0.085 0.033 0.143 0.466 0.063 0.466-0.038 0-0.113 0.050-0.166 0.11-0.17 0.195-0.331 0.206-0.534 0.035-0.102-0.086-0.185-0.193-0.185-0.24s-0.036-0.084-0.080-0.084-0.128-0.053-0.187-0.119c-0.097-0.108-0.183-0.12-0.86-0.12h-0.752l-0.401 0.416c-0.406 0.421-0.527 0.489-0.589 0.327zM29.805 5.998c-0.021-0.115-0.063-0.223-0.092-0.241s-0.053-0.133-0.053-0.256c0-0.253-0.19-0.482-0.4-0.482-0.069 0-0.207-0.069-0.308-0.154-0.169-0.142-0.183-0.182-0.183-0.535 0-0.299 0.019-0.381 0.089-0.381 0.049 0 0.089-0.041 0.089-0.090 0-0.067-0.039-0.080-0.148-0.053-0.127 0.032-0.148 0.017-0.148-0.105 0-0.156-0.256-0.346-0.465-0.346-0.066 0-0.137-0.027-0.157-0.060-0.046-0.075-0.59-0.078-0.728-0.004-0.057 0.030-0.147 0.068-0.2 0.085-0.135 0.041-0.299 0.373-0.342 0.692-0.026 0.197-0.065 0.272-0.147 0.288-0.061 0.012-0.128-0.001-0.148-0.029s-0.090-0.080-0.155-0.116-0.128-0.116-0.139-0.178c-0.025-0.139-0.42-0.558-0.526-0.558-0.054 0-0.077-0.102-0.077-0.344 0-0.336 0.007-0.351 0.313-0.654 0.301-0.298 0.577-0.409 0.577-0.232 0 0.114 0.335 0.417 0.41 0.371 0.035-0.022 0.065-0.138 0.065-0.259 0.001-0.185 0.053-0.273 0.334-0.564 0.361-0.374 0.527-0.418 0.65-0.17 0.038 0.076 0.152 0.225 0.254 0.33 0.129 0.133 0.185 0.249 0.185 0.382 0 0.105 0.021 0.19 0.047 0.19s0.152-0.107 0.279-0.238c0.23-0.236 0.445-0.312 0.445-0.158 0 0.044 0.053 0.128 0.119 0.188s0.119 0.142 0.119 0.183c0 0.041 0.067 0.155 0.148 0.252 0.085 0.101 0.148 0.252 0.148 0.353 0 0.097 0.017 0.299 0.037 0.449 0.037 0.268 0.041 0.272 0.222 0.238 0.102-0.019 0.21-0.058 0.241-0.086s0.131-0.052 0.222-0.052c0.153 0 0.166 0.018 0.166 0.225 0 0.196-0.046 0.27-0.356 0.578-0.196 0.194-0.356 0.386-0.356 0.426s0.067 0.199 0.148 0.353c0.167 0.315 0.192 0.627 0.059 0.737-0.049 0.041-0.089 0.111-0.089 0.156 0 0.169-0.115 0.074-0.152-0.127zM27.565 5.097c-0.105-0.105 0.006-0.436 0.146-0.436 0.046 0 0.23 0.34 0.23 0.425 0 0.059-0.318 0.068-0.376 0.010zM27.011 4.65c-0.155-0.2-0.15-0.583 0.007-0.583 0.164 0 0.502 0.446 0.408 0.538-0.099 0.097-0.354 0.125-0.415 0.046zM27.944 4.575c-0.157-0.168-0.119-0.234 0.234-0.404l0.208-0.1 0.019 0.211c0.012 0.138-0.017 0.251-0.083 0.324-0.135 0.149-0.213 0.143-0.377-0.032z"></path>
</svg>
