<!-- Generated by IcoMoon.io -->
<svg version="1.1" xmlns="http://www.w3.org/2000/svg" width="32" height="32" viewBox="0 0 32 32">
<title>all-cards</title>
<path d="M5.271 31.628c-0.060-0.22-0.149-0.509-0.198-0.642-0.1-0.271-0.281-0.963-2.399-9.158-0.827-3.2-1.771-6.792-2.097-7.982s-0.586-2.171-0.577-2.18c0.031-0.031 1.89-0.574 3.406-0.995 0.841-0.233 1.555-0.45 1.587-0.481s-0.034-0.756-0.154-1.663c-0.263-1.989-0.468-3.589-0.468-3.648-0-0.050 0.039-0.055 3.755-0.542 1.462-0.192 2.711-0.365 2.775-0.385 0.107-0.033 0.116-0.189 0.116-1.994v-1.958h15.023v4.227c0 3.966 0.008 4.229 0.116 4.261 0.547 0.163 1.805 0.512 2.908 0.806 1.222 0.325 2.896 0.81 2.933 0.848 0.009 0.009-0.070 0.341-0.175 0.738-0.398 1.504-4.253 16.484-4.589 17.833-0.194 0.776-0.377 1.508-0.408 1.625l-0.056 0.213-0.814-0.201c-0.684-0.169-4.242-1.144-6.65-1.824l-0.651-0.184-6.562 1.812c-3.609 0.997-6.596 1.826-6.639 1.842-0.046 0.018-0.12-0.13-0.186-0.371zM11.097 28.605c2.438-0.677 4.418-1.246 4.4-1.265s-0.602-0.211-1.298-0.427-1.276-0.404-1.289-0.418c-0.013-0.013 0.031-0.225 0.098-0.47 0.188-0.689 0.48-1.939 0.457-1.96s-4.547 0.574-5.702 0.748c-0.383 0.058-0.708 0.093-0.723 0.077s-0.398-2.932-0.851-6.482-0.832-6.462-0.842-6.473c-0.010-0.010-0.735 0.177-1.611 0.417-1.409 0.386-1.591 0.451-1.579 0.569s3.999 15.691 4.252 16.605c0.060 0.217 0.133 0.355 0.178 0.337 0.042-0.016 2.072-0.583 4.51-1.26zM27.73 19.981c1.198-4.613 2.183-8.443 2.189-8.511 0.009-0.105-0.276-0.204-1.917-0.665-1.060-0.298-1.935-0.543-1.944-0.544s-0.017 2.214-0.017 4.921v4.923h-2.559c-2.427 0-2.559 0.006-2.559 0.125 0 0.069 0.047 0.479 0.106 0.912 0.176 1.314 0.21 1.748 0.138 1.797-0.081 0.056-0.44 0.108-3.501 0.512-1.334 0.176-2.447 0.34-2.472 0.363-0.080 0.075-0.42 1.512-0.37 1.563 0.052 0.054 10.455 2.977 10.624 2.985 0.083 0.004 0.551-1.717 2.282-8.383zM14.139 22.379c3.042-0.454 5.547-0.826 5.568-0.826 0.040 0-0.028-0.917-0.093-1.25l-0.038-0.196h-8.559v-14.391h-0.176c-0.28 0-4.367 0.553-4.48 0.606-0.090 0.042 0.031 1.102 0.964 8.466 0.924 7.292 1.081 8.418 1.175 8.418 0.060 0 2.597-0.372 5.639-0.826zM24.512 10.053v-8.469h-11.966v16.939h11.966v-8.469zM17.144 14.439c-0.046-0.057-0.239-0.121-0.429-0.141-0.674-0.071-0.88-0.131-1.060-0.306-0.1-0.098-0.183-0.202-0.183-0.233 0-0.085 0.964-0.539 1.145-0.539 0.090 0 0.241-0.088 0.346-0.201 0.135-0.146 0.316-0.233 0.661-0.32 0.765-0.191 1.272-0.496 1.847-1.109 0.634-0.677 0.679-0.815 0.64-1.956-0.028-0.811-0.040-0.876-0.246-1.254-0.287-0.528-0.42-0.608-1.084-0.65-0.701-0.044-1.217 0.101-1.603 0.451-0.151 0.137-0.283 0.253-0.293 0.258-0.044 0.022-0.215 0.816-0.215 0.999 0 0.261 0.148 0.629 0.326 0.814 0.133 0.138 0.147 0.139 0.371 0.028 0.265-0.131 0.269-0.144 0.137-0.471l-0.096-0.239 0.246-0.108c0.303-0.133 0.926-0.075 1.061 0.098 0.22 0.282 0.329 0.669 0.311 1.104-0.017 0.404-0.038 0.46-0.269 0.705-0.326 0.345-1.069 0.612-1.707 0.612-0.268 0-0.318-0.035-0.873-0.603-0.324-0.331-0.633-0.711-0.685-0.844s-0.175-0.328-0.271-0.434c-0.164-0.181-0.177-0.242-0.2-0.964-0.014-0.432-0.058-0.813-0.1-0.867-0.059-0.075-0.039-0.119 0.090-0.202 0.091-0.058 0.36-0.312 0.597-0.564 0.565-0.598 0.997-0.954 1.535-1.263 0.48-0.276 0.749-0.317 0.851-0.131 0.056 0.102 0.087 0.107 0.202 0.034 0.19-0.121 0.323-0.108 0.518 0.052 0.12 0.098 0.27 0.138 0.519 0.138 0.248 0 0.361 0.030 0.387 0.102 0.022 0.060 0.082 0.085 0.144 0.060 0.066-0.026 0.143 0.012 0.203 0.1 0.084 0.124 0.124 0.133 0.3 0.069 0.188-0.068 0.224-0.054 0.471 0.193 0.147 0.147 0.441 0.503 0.652 0.792 0.345 0.471 0.389 0.571 0.432 0.964 0.026 0.241 0.090 0.543 0.14 0.671 0.113 0.283 0.116 0.557 0.015 1.317-0.062 0.468-0.122 0.654-0.299 0.929-0.165 0.256-0.221 0.419-0.221 0.639 0 0.282-0.027 0.322-0.604 0.896-0.332 0.331-0.714 0.659-0.848 0.73s-0.299 0.179-0.366 0.241c-0.084 0.077-0.264 0.116-0.565 0.124-0.252 0.006-0.6 0.071-0.809 0.15-0.536 0.203-1.013 0.257-1.118 0.127z"></path>
</svg>
