<!-- Generated by IcoMoon.io -->
<svg version="1.1" xmlns="http://www.w3.org/2000/svg" width="32" height="32" viewBox="0 0 32 32">
<title>arena-picker</title>
<path d="M16.099 12.8c-0.039-0-0.225 0.381-0.415 0.847s-0.357 0.874-0.371 0.907c-0.015 0.033-0.092-0.015-0.171-0.106s-0.152-0.147-0.161-0.124c-0.009 0.023-0.186 0.563-0.393 1.201s-0.546 1.645-0.753 2.237l-0.377 1.076 0.037 0.181 0.038 0.18h3.291l0.145-0.34 0.145-0.34 0.291 0.68h1.104l0.039-0.116 0.040-0.117-0.203-0.79c-0.112-0.434-0.369-1.254-0.572-1.821l-0.368-1.031-0.131 0.217c-0.072 0.12-0.142 0.194-0.157 0.165s-0.243-0.695-0.508-1.479-0.514-1.427-0.553-1.428zM16.097 13.011c0.009 0 0.249 0.693 0.534 1.54l0.518 1.54 0.112-0.187c0.062-0.102 0.129-0.186 0.149-0.186 0.065 0 0.567 1.453 0.803 2.321l0.227 0.838-0.937 0.080-0.195-0.427-0.195-0.427-0.357 0.838h-3.163l0.101-0.291c0.055-0.16 0.36-1.086 0.677-2.058s0.609-1.806 0.648-1.851l0.072-0.081 0.136 0.226 0.136 0.226v-0.146c0-0.080 0.162-0.554 0.359-1.052s0.367-0.905 0.376-0.905zM16.135 13.655c-0.069 0-0.634 1.339-0.63 1.495 0.001 0.064 0.228 0.422 0.505 0.794s0.545 0.677 0.598 0.677c0.131 0 0.368-0.242 0.368-0.375 0-0.18-0.782-2.591-0.841-2.591zM15.095 15.204c-0.050 0.001-1.113 2.962-1.182 3.295l-0.039 0.186h0.814c0.448 0 0.814-0.035 0.814-0.078s-0.079-0.251-0.176-0.462c-0.097-0.211-0.161-0.428-0.143-0.48s0.223-0.236 0.456-0.406l0.424-0.309v-0.311l-0.46-0.717c-0.253-0.395-0.482-0.717-0.509-0.716zM17.4 16.115c-0.034 0.020-0.096 0.099-0.162 0.206-0.233 0.383-0.594 0.744-1.087 1.089l-0.438 0.306v0.134c0 0.074 0.132 0.321 0.293 0.549l0.294 0.415h0.243l0.229-0.548c0.126-0.301 0.251-0.596 0.277-0.654l0.049-0.106 0.156 0.464c0.086 0.255 0.203 0.55 0.259 0.654l0.103 0.19h0.473l0.045-0.135 0.046-0.134-0.366-1.187c-0.201-0.653-0.377-1.212-0.392-1.241-0.004-0.007-0.012-0.007-0.023-0z"></path>
<path d="M10.572 2.667v26.667h10.904v-26.667h-10.904zM10.863 3.094h10.322v25.813h-10.322v-25.813z"></path>
<path d="M21.096 2.667v26.667h10.904v-26.667h-10.904zM21.387 3.094h10.323v25.813h-10.322v-25.813z"></path>
<path d="M24.766 18.496c-0.097-0.141-0.264-0.373-0.371-0.516s-0.195-0.338-0.195-0.435c0-0.241 0.656-1.355 0.692-1.176 0.016 0.077 0.062 0.141 0.104 0.142s0.148 0.101 0.236 0.221c0.171 0.231 0.609 0.304 0.677 0.112 0.022-0.061 0.109-0.112 0.194-0.112s0.168-0.041 0.186-0.092c0.018-0.051 0.245-0.27 0.504-0.487 1.485-1.246 1.723-1.431 1.835-1.431 0.421 0 0.576 1.008 0.222 1.444-0.103 0.127-0.232 0.231-0.286 0.231s-0.117 0.050-0.139 0.112c-0.054 0.152-0.505 0.142-0.594-0.013-0.078-0.135-0.136-0.071-1.123 1.226-0.643 0.845-0.713 0.897-1.307 0.973-0.413 0.053-0.477 0.032-0.635-0.198zM25.526 16.331c-0.033-0.224-0.061-0.262-0.127-0.166-0.145 0.208-0.255-0.145-0.207-0.664 0.030-0.328 0.012-0.526-0.069-0.74-0.108-0.285-0.106-0.298 0.067-0.557 0.12-0.178 0.258-0.265 0.423-0.265 0.142 0 0.311-0.088 0.4-0.208 0.085-0.114 0.328-0.295 0.541-0.402s0.407-0.25 0.431-0.318c0.031-0.085 0.083-0.064 0.166 0.067 0.067 0.105 0.156 0.191 0.197 0.191s0.076 0.123 0.076 0.273c0 0.15 0.029 0.304 0.065 0.343 0.083 0.089 0.257 0.803 0.257 1.056 0 0.168-0.158 0.367-0.355 0.447-0.035 0.014-0.117 0.075-0.181 0.135-0.078 0.072-0.145 0.068-0.201-0.013-0.064-0.092-0.111-0.051-0.194 0.169-0.107 0.284-0.113 0.286-0.242 0.086-0.128-0.199-0.134-0.199-0.205 0-0.206 0.583-0.219 0.596-0.334 0.317l-0.107-0.259-0.157 0.399c-0.086 0.219-0.167 0.399-0.18 0.399s-0.042-0.13-0.065-0.289z"></path>
<path d="M0 2.667v26.667h10.904v-26.667h-10.904zM0.291 3.094h10.322v25.813h-10.322v-25.813z"></path>
<path d="M3.815 18.66v-0.434h3.275v0.869h-3.275v-0.434zM4.24 17.764c0.024-0.194 0.098-0.646 0.165-1.004s0.153-0.908 0.191-1.221l0.070-0.57h-0.060c-0.033 0-0.17-0.126-0.306-0.281l-0.246-0.281v-1.501h0.559v0.434h0.24v-0.434h1.118v0.434h0.24v-0.434h0.559v1.497l-0.519 0.62 0.062 0.543c0.034 0.299 0.118 0.836 0.185 1.194s0.142 0.81 0.166 1.004l0.043 0.353h-2.511l0.043-0.353zM5.811 16.67v-0.47l-0.399-0.51-0.399 0.51v0.939h0.799v-0.47z"></path>
</svg>
