<!-- Generated by IcoMoon.io -->
<svg version="1.1" xmlns="http://www.w3.org/2000/svg" width="32" height="32" viewBox="0 0 32 32">
<title>create-deck</title>
<path d="M5.587 24.9c-2.938-2.438-5.344-4.467-5.347-4.508s0.337-0.285 0.756-0.541 0.761-0.497 0.761-0.534c-0-0.037-0.369-0.37-0.82-0.739s-0.819-0.688-0.819-0.709c0-0.021 0.369-0.252 0.821-0.515s0.821-0.504 0.821-0.536c0-0.032-0.396-0.378-0.879-0.768s-0.879-0.75-0.879-0.8c0-0.050 2.545-1.602 5.656-3.448s6.078-3.613 6.594-3.926c0.516-0.314 2.098-1.257 3.517-2.096s3.167-1.883 3.885-2.319c0.718-0.437 1.366-0.794 1.439-0.794 0.154 0 2.939 2.311 3.167 2.628 0.132 0.183 0.122 0.214-0.065 0.211-0.121-0.002-0.853-0.55-1.626-1.216s-1.471-1.198-1.549-1.18c-0.281 0.063-20.421 12.081-20.397 12.172 0.013 0.051 2.293 1.982 5.065 4.29l5.041 4.197 1.524-0.924c0.838-0.508 5.401-3.223 10.14-6.034s8.66-5.156 8.714-5.212c0.054-0.056-0.719-0.805-1.717-1.665-1.882-1.621-2.104-1.852-1.774-1.852 0.107 0 0.783 0.507 1.502 1.127s1.613 1.386 1.987 1.702c0.789 0.666 0.778 0.72-0.262 1.294l-0.707 0.39 0.877 0.73c0.482 0.401 0.877 0.786 0.877 0.855s-0.346 0.326-0.77 0.573l-0.77 0.448 0.827 0.67c0.455 0.369 0.827 0.731 0.828 0.806 0.001 0.119-4.017 2.538-17.591 10.592l-3.479 2.065-5.342-4.433zM21.101 22.869c5.255-3.126 9.751-5.8 9.993-5.941l0.439-0.257-1.503-1.259-9.534 5.674c-5.244 3.121-9.6 5.659-9.679 5.64s-2.049-1.618-4.375-3.553c-2.326-1.936-4.301-3.503-4.388-3.482s-0.399 0.193-0.694 0.383l-0.536 0.346 5.069 4.231c4.801 4.007 5.085 4.222 5.362 4.066 0.161-0.091 4.592-2.723 9.847-5.849zM16.111 23.291c2.841-1.685 5.64-3.352 6.221-3.705s2.321-1.387 3.868-2.3c1.547-0.913 3.355-1.991 4.017-2.396l1.204-0.736-0.677-0.573c-0.372-0.315-0.741-0.618-0.82-0.673-0.085-0.059-4.033 2.216-9.707 5.594l-9.564 5.694-4.221-3.523c-2.322-1.938-4.284-3.52-4.361-3.517s-0.418 0.173-0.759 0.377l-0.62 0.371 5.072 4.225c2.789 2.324 5.096 4.225 5.125 4.225s2.379-1.379 5.22-3.064zM14.829 15.273c-1.042-0.218-2.704-1.475-2.409-1.822 0.052-0.062 0.637 0.081 1.298 0.316 1.725 0.615 2.278 0.656 3.080 0.232 0.357-0.189 0.713-0.482 0.792-0.652 0.127-0.275 0.104-0.349-0.217-0.68-0.495-0.511-1.291-0.645-1.798-0.303-0.577 0.389-0.584 0.638-0.014 0.527 0.363-0.071 0.513-0.038 0.673 0.147 0.197 0.227 0.192 0.252-0.108 0.55-0.385 0.383-0.889 0.397-1.561 0.045-0.354-0.186-0.498-0.343-0.498-0.543 0-0.55 0.336-1.206 0.782-1.528 0.422-0.304 0.511-0.317 1.485-0.216 0.57 0.059 1.15 0.148 1.29 0.198 0.291 0.104 1.014 0.988 1.015 1.239 0 0.093 0.053 0.169 0.117 0.169 0.157 0 0.148 0.449-0.017 0.869-0.385 0.976-2.473 1.751-3.91 1.451zM25.438 9.164v-1.354h-2.227v-2.030h2.227v-2.572h1.758v2.572h2.345v2.030h-2.345v2.707h-1.758v-1.354z"></path>
</svg>
