<!-- Generated by IcoMoon.io -->
<svg version="1.1" xmlns="http://www.w3.org/2000/svg" width="32" height="32" viewBox="0 0 32 32">
<title>deck</title>
<path d="M5.166 24.571c-2.834-2.618-5.159-4.775-5.165-4.795s0.375-0.247 0.849-0.505l0.861-0.47-0.194-0.169c-0.559-0.487-1.519-1.4-1.502-1.428 0.011-0.018 0.405-0.242 0.875-0.498l0.855-0.466-0.141-0.144c-0.078-0.079-0.472-0.442-0.876-0.807-0.485-0.438-0.731-0.692-0.725-0.749 0.006-0.061 0.85-0.547 2.907-1.676 1.593-0.875 4.682-2.57 6.863-3.768s5.709-3.135 7.84-4.305c2.137-1.173 3.927-2.127 3.991-2.127 0.088 0 0.787 0.619 2.846 2.519 1.501 1.385 3.691 3.405 4.866 4.488 2.895 2.669 2.724 2.502 2.632 2.574-0.042 0.033-0.431 0.251-0.865 0.486s-0.789 0.437-0.79 0.45c-0 0.013 0.384 0.375 0.853 0.805 0.597 0.547 0.854 0.812 0.854 0.884 0 0.083-0.14 0.178-0.758 0.512-0.417 0.225-0.77 0.428-0.783 0.45s0.329 0.365 0.761 0.763c0.645 0.593 0.783 0.743 0.772 0.836-0.012 0.096-0.342 0.293-2.199 1.312-1.202 0.66-6.035 3.313-10.741 5.896s-8.596 4.695-8.644 4.694c-0.049-0.001-2.394-2.132-5.241-4.762zM14.784 26.555c2.324-1.276 7.016-3.85 10.425-5.72s6.215-3.416 6.236-3.435c0.058-0.052-1.354-1.335-1.444-1.312-0.058 0.015-12.812 6.996-16.975 9.292-0.34 0.187-0.959 0.528-1.377 0.757s-0.871 0.479-1.006 0.554l-0.246 0.138-4.164-3.842c-2.29-2.113-4.192-3.853-4.227-3.866s-0.363 0.143-0.73 0.346c-0.622 0.345-0.662 0.376-0.585 0.447 0.045 0.042 0.948 0.873 2.006 1.847 2.179 2.006 4.429 4.081 6.407 5.908 0.742 0.685 1.373 1.237 1.402 1.226s1.955-1.064 4.279-2.34zM16.612 23.010c3.122-1.713 7.247-3.977 9.167-5.032s3.683-2.018 3.918-2.14c0.235-0.122 0.513-0.275 0.617-0.341s0.398-0.23 0.652-0.367 0.473-0.265 0.486-0.286c0.013-0.021-0.248-0.291-0.581-0.598s-0.681-0.631-0.774-0.718l-0.17-0.158-0.376 0.207c-0.207 0.114-0.825 0.453-1.374 0.753-1.016 0.555-10.781 5.914-15.337 8.416-2.486 1.365-2.515 1.38-2.612 1.292-0.27-0.241-7.776-7.156-7.967-7.34l-0.222-0.213-0.633 0.345c-0.348 0.189-0.671 0.371-0.717 0.402-0.075 0.052-0.007 0.128 0.639 0.716 0.398 0.362 0.863 0.791 1.034 0.953s2.064 1.913 4.206 3.89l3.895 3.595 0.237-0.132c0.131-0.072 2.792-1.533 5.913-3.246zM25.232 15.541c3.37-1.849 6.14-3.375 6.156-3.393s-0.529-0.546-1.211-1.174-1.818-1.675-2.523-2.325c-5.655-5.217-6.081-5.604-6.15-5.578-0.040 0.015-3.289 1.793-7.22 3.951s-8.612 4.727-10.401 5.71c-1.789 0.982-3.275 1.807-3.301 1.833-0.032 0.031 0.002 0.089 0.101 0.173 0.082 0.070 0.541 0.491 1.021 0.937s1.738 1.608 2.796 2.583c1.058 0.975 2.816 2.595 3.907 3.601l1.983 1.829 4.358-2.393c2.397-1.316 7.115-3.905 10.485-5.754zM15.184 15.292c-0.534-0.077-1.001-0.236-1.142-0.387-0.063-0.067-0.285-0.207-0.494-0.312-0.492-0.247-0.641-0.354-0.641-0.463 0-0.048-0.051-0.148-0.113-0.222-0.196-0.233-0.362-0.5-0.362-0.579 0.002-0.191 0.067-0.204 0.403-0.078 0.178 0.067 0.39 0.161 0.471 0.21s0.234 0.101 0.339 0.117 0.394 0.131 0.641 0.257c0.5 0.254 0.972 0.377 1.606 0.419 0.475 0.031 0.647-0.016 1.17-0.321 0.414-0.242 0.56-0.375 0.665-0.608 0.112-0.248 0.068-0.386-0.217-0.67-0.277-0.276-0.615-0.443-1.034-0.509-0.26-0.041-0.335-0.035-0.554 0.047-0.321 0.12-0.554 0.276-0.625 0.419-0.077 0.154-0.037 0.226 0.162 0.292 0.161 0.053 0.177 0.049 0.275-0.074 0.082-0.103 0.127-0.123 0.217-0.096 0.184 0.056 0.403 0.244 0.469 0.402 0.055 0.131 0.051 0.163-0.033 0.275-0.052 0.070-0.185 0.197-0.296 0.281-0.173 0.132-0.239 0.154-0.471 0.154-0.148-0-0.351-0.023-0.451-0.051-0.254-0.070-0.835-0.421-0.947-0.572-0.086-0.116-0.089-0.151-0.037-0.45 0.062-0.356 0.257-0.892 0.373-1.025 0.041-0.046 0.188-0.15 0.328-0.229s0.318-0.199 0.397-0.265c0.143-0.12 0.143-0.12 0.604-0.065 0.746 0.089 1.627 0.266 1.934 0.388 0.219 0.087 0.289 0.139 0.3 0.223 0.009 0.060 0.065 0.132 0.126 0.16 0.064 0.029 0.143 0.135 0.188 0.251 0.042 0.11 0.129 0.249 0.193 0.309s0.106 0.126 0.093 0.146-0.001 0.051 0.025 0.067c0.027 0.016 0.048 0.082 0.048 0.145s0.021 0.116 0.046 0.116c0.026 0 0.079 0.049 0.118 0.109 0.064 0.097 0.063 0.141-0.005 0.415-0.116 0.463-0.218 0.623-0.617 0.97-0.427 0.371-0.798 0.56-1.297 0.661-0.197 0.040-0.497 0.104-0.667 0.144-0.358 0.083-0.626 0.083-1.19 0.001z"></path>
</svg>
