<!-- Generated by IcoMoon.io -->
<svg version="1.1" xmlns="http://www.w3.org/2000/svg" width="17" height="32" viewBox="0 0 17 32">
<title>marker</title>
<path d="M4.187 22.988l-4.187-9.059 0.005-9.397 4.096-2.266c2.253-1.246 4.151-2.266 4.218-2.266s1.967 1.019 4.222 2.265l4.099 2.265-0 9.446-4.089 8.988c-2.249 4.944-4.109 9.010-4.133 9.036s-1.928-4.029-4.231-9.012zM14.070 14.011l1.404-0.79-0.004-8.006-3.522-1.934c-1.937-1.064-3.57-1.934-3.628-1.934s-1.691 0.87-3.629 1.934l-3.523 1.934 0.051 8.049 7.101 3.94 2.173-1.202c1.195-0.661 2.805-1.557 3.577-1.992zM10.866 13.694c-0.188-0.223-0.188-0.237 0.008-0.47 0.201-0.238 0.199-0.242-0.328-0.737-0.291-0.274-0.575-0.499-0.63-0.5s-0.238 0.138-0.406 0.311l-0.306 0.313-0.261-0.341c-0.182-0.239-0.245-0.432-0.208-0.643 0.037-0.215-0.021-0.387-0.203-0.597-0.313-0.363-0.322-0.363-0.755-0.008-0.297 0.243-0.336 0.328-0.257 0.553 0.077 0.216 0.035 0.335-0.223 0.639l-0.318 0.373-0.43-0.76-0.466 0.563c-0.401 0.484-0.458 0.614-0.408 0.932 0.093 0.595-0.317 0.499-0.989-0.231-0.593-0.644-0.642-0.77-0.392-0.994 0.131-0.117 0.196-0.109 0.353 0.043 0.106 0.103 0.217 0.186 0.248 0.186s0.252-0.306 0.491-0.679l0.434-0.679-0.261-0.333c-0.143-0.183-0.261-0.38-0.261-0.437 0-0.195 0.639-0.617 0.834-0.55 0.116 0.039 0.266-0.024 0.381-0.162 0.187-0.222 0.171-0.25-0.724-1.259-0.503-0.568-0.915-1.079-0.915-1.135s-0.117-0.288-0.259-0.513c-0.143-0.226-0.291-0.638-0.33-0.917s-0.113-0.534-0.164-0.568c-0.052-0.034-0.094-0.213-0.094-0.397 0-0.294 0.037-0.335 0.312-0.335 0.171 0 0.341 0.051 0.377 0.114s0.154 0.114 0.262 0.114c0.534 0 1.233 0.497 2.206 1.567l1.004 1.104 0.701-0.807c1.12-1.288 2.026-1.917 2.97-2.058l0.467-0.070-0.070 0.642c-0.063 0.577-0.328 1.321-0.755 2.124-0.083 0.156-0.543 0.704-1.021 1.218l-0.87 0.933 0.282 0.398c0.264 0.371 0.304 0.389 0.609 0.275 0.254-0.095 0.357-0.087 0.467 0.035 0.25 0.278 0.229 0.628-0.053 0.876l-0.265 0.233 0.477 0.527c0.371 0.41 0.534 0.515 0.735 0.475 0.336-0.068 0.537 0.020 0.537 0.234 0 0.152-1.085 1.518-1.269 1.599-0.039 0.017-0.159-0.072-0.265-0.199zM11.703 13.007c0.273-0.314 0.471-0.616 0.438-0.672-0.081-0.141-0.482-0.013-0.482 0.153 0 0.075-0.143 0.283-0.318 0.463-0.305 0.314-0.418 0.626-0.226 0.626 0.050 0 0.315-0.257 0.588-0.57zM5.511 13.374c0-0.050-0.21-0.312-0.467-0.582-0.638-0.672-0.886-0.509-0.263 0.174 0.418 0.458 0.73 0.632 0.73 0.409zM5.86 12.276c0.216-0.278 0.393-0.582 0.393-0.676 0-0.367-0.214-0.275-0.676 0.292-0.366 0.45-0.454 0.627-0.367 0.74 0.171 0.222 0.221 0.194 0.65-0.356zM10.994 11.899c-0.242-0.266-0.498-0.484-0.57-0.484-0.32 0-0.231 0.282 0.244 0.776 0.44 0.457 0.532 0.509 0.64 0.363 0.103-0.14 0.046-0.259-0.314-0.655zM10.113 11.278c0.676-0.795 0.839-1.116 0.565-1.112-0.239 0.004-1.696 1.579-1.631 1.763 0.115 0.322 0.371 0.166 1.066-0.651zM7.207 11.76c0-0.18-1.187-1.823-1.317-1.823-0.019 0-0.088 0.068-0.152 0.151-0.133 0.172 0.092 0.549 0.831 1.396 0.48 0.55 0.638 0.618 0.638 0.276zM8.509 9.797c0.454-0.487 0.853-0.885 0.888-0.885s0.457-0.435 0.939-0.967c0.818-0.902 1.644-2.253 1.484-2.425-0.077-0.083-3.286 3.443-4.146 4.554-0.325 0.42-0.558 0.82-0.518 0.889 0.089 0.155 0.255 0.012 1.353-1.166zM9.332 10.897c0.116-0.15 0.088-0.23-0.179-0.517-0.21-0.225-0.376-0.314-0.495-0.266-0.251 0.104-0.224 0.271 0.106 0.641s0.382 0.382 0.568 0.142zM8.691 8.346c1.231-1.337 2.766-3.11 2.865-3.309 0.086-0.172 0.056-0.185-0.247-0.111-0.557 0.135-1.169 0.617-2.162 1.705-0.897 0.982-2.576 3.257-2.576 3.49 0 0.062 0.060 0.177 0.133 0.255 0.106 0.114 0.249 0 0.715-0.569 0.321-0.391 0.893-1.048 1.272-1.46zM9.963 10.266c0-0.244-0.51-0.703-0.697-0.627-0.163 0.067-0.142 0.125 0.166 0.467 0.328 0.363 0.531 0.424 0.531 0.16zM7.248 8.632c0.19-0.311 0.388-0.031-1.79-2.537-0.35-0.403-0.714-0.777-0.81-0.832-0.151-0.087-0.163-0.052-0.090 0.267 0.182 0.8 0.768 1.722 1.878 2.955 0.451 0.501 0.581 0.524 0.811 0.146zM7.781 7.82c0.256-0.105 0.2-0.448-0.097-0.593-0.146-0.071-0.265-0.193-0.265-0.271 0-0.157-1.161-1.456-1.301-1.456-0.049 0-0.264-0.128-0.478-0.284-0.574-0.419-0.786-0.359-0.341 0.097 0.204 0.209 0.795 0.874 1.314 1.478s0.956 1.099 0.972 1.099c0.016 0 0.104-0.031 0.196-0.069z"></path>
</svg>
